{
.appVersion = "3414";
.formatVersion = 3;
axes = (
{
name = Weight;
tag = wght;
},
{
name = Width;
tag = wdth;
}
);
classes = (
{
automatic = 1;
code = "A Aacute Abreve Acircumflex Adieresis Agrave Amacron Aogonek Aring Atilde AE AEacute B C Cacute Ccaron Ccedilla Ccircumflex Cdotaccent D Dcaron Dcroat Eth E Eacute Ebreve Ecaron Ecircumflex Edieresis Edotaccent Egrave Emacron Eogonek F G Gbreve Gcircumflex Gcommaaccent Gdotaccent H Hbar Hcircumflex I IJ Iacute Ibreve Icircumflex Idieresis Idotaccent Igrave Imacron Iogonek Itilde J Jcircumflex K Kcommaaccent L Lacute Lcaron Lcommaaccent Ldot Lslash M N Nacute Ncaron Ncommaaccent Ntilde Eng O Oacute Obreve Ocircumflex Odieresis Ograve Ohungarumlaut Omacron Oslash Oslashacute Otilde OE P Thorn Q R Racute Rcaron Rcommaaccent S Sacute Scaron Scedilla Scircumflex Scommaaccent Germandbls T Tbar Tcaron Tcommaaccent U Uacute Ubreve Ucircumflex Udieresis Ugrave Uhungarumlaut Umacron Uogonek Uring Utilde V W Wacute Wcircumflex Wdieresis Wgrave X Y Yacute Ycircumflex Ydieresis Ygrave Z Zacute Zcaron Zdotaccent Delta Mu Omega";
name = Uppercase;
}
);
customParameters = (
{
disabled = 1;
name = glyphOrder;
value = (
.notdef,
.null,
CR,
nbspace,
space,
A,
B,
C,
D,
E,
F,
G,
H,
I,
J,
K,
L,
M,
N,
O,
P,
Q,
R,
S,
T,
U,
V,
W,
X,
Y,
Z,
a,
b,
c,
d,
e,
f,
g,
g.ss01,
h,
i,
j,
k,
l,
m,
n,
o,
p,
q,
r,
s,
t,
u,
v,
w,
x,
y,
z,
Aacute,
Abreve,
Acircumflex,
Adieresis,
Agrave,
Amacron,
Aogonek,
Aring,
Atilde,
AE,
AEacute,
Cacute,
Ccaron,
Ccedilla,
Ccircumflex,
Cdotaccent,
Eth,
Dcaron,
Dcroat,
Eacute,
Ebreve,
Ecaron,
Ecircumflex,
Edieresis,
Edotaccent,
Egrave,
Emacron,
Eogonek,
Gbreve,
Gcircumflex,
Gcommaaccent,
Gdotaccent,
Hbar,
Hcircumflex,
Iacute,
Ibreve,
Icircumflex,
Idieresis,
Idotaccent,
Igrave,
IJ,
Imacron,
Iogonek,
Itilde,
Jcircumflex,
Kcommaaccent,
Lacute,
Lcaron,
Lcommaaccent,
Ldot,
Lslash,
Nacute,
Ncaron,
Ncommaaccent,
Eng,
Ntilde,
Oacute,
Obreve,
Ocircumflex,
Odieresis,
Ograve,
Ohungarumlaut,
Omacron,
Oslash,
Oslashacute,
Otilde,
OE,

glyphs = (
{
glyphname = A;
kernLeft = A;
kernRight = A;
lastChange = "2023-10-17 00:48:53 +0000";
layers = (
{
anchors = (
{
name = bottom;
pos = (327,0);
},
{
name = ogonek;
pos = (644,0);
},
{
name = top;
pos = (327,710);
}
);
background = {
anchors = (
{
name = bottom;
pos = (351,0);
},
{
name = ogonek;
pos = (686,0);
},
{
name = top;
pos = (351,720);
}
);
shapes = (
{
closed = 1;
nodes = (
(101,0,l),
(182,216,l),
(190,239,l),
(347,648,l),
(353,648,l),
(510,239,l),
(518,216,l),
(599,0,l),
(685,0,l),
(405,720,l),
(295,720,l),
(15,0,l)
);
},
{
closed = 1;
nodes = (
(534,200,l),
(534,269,l),
(167,269,l),
(167,200,l)
);
}
);
};
layerId = "E39CE873-C6CB-4040-8FBA-1D86B139B3E5";
shapes = (
{
closed = 1;
nodes = (
(98,0,l),
(175,213,l),
(182,236,l),
(327,635,l),
(323,635,l),
(468,236,l),
(475,213,l),
(552,0,l),
(643,0,l),
(377,710,l),
(276,710,l),
(10,0,l)
);
},
{
closed = 1;
nodes = (
(495,198,l),
(495,267,l),
(154,267,l),
(154,198,l)
);
}
);
width = 653;
},
{
anchors = (
{
name = bottom;
pos = (353,0);
},
{
name = ogonek;
pos = (689,0);
},
{
name = top;
pos = (353,710);
}
);
layerId = "7F29FB76-5474-4FBC-BDD6-396388860F4A";
shapes = (
{
closed = 1;
nodes = (
(185,0,l),
(245,205,l),
(255,238,l),
(359,572,l),
(343,572,l),
(447,238,l),
(457,205,l),
(517,0,l),
(704,0,l),
(465,710,l),
(240,710,l),
(1,0,l)
);
},
{
closed = 1;
nodes = (
(543,166,l),
(543,298,l),
(163,298,l),
(163,166,l)
);
}
);
width = 705;
},
{
anchors = (
{
name = bottom;
pos = (204,0);
},
{
name = ogonek;
pos = (390,0);
},
{
name = top;
pos = (204,710);
}
);
layerId = "C91C925B-D0D7-4075-AF07-39B2B48BEC27";
shapes = (
{
closed = 1;
nodes = (
(81,0,l),
(121,204,l),
(123,221,l),
(204,648,l),
(199,648,l),
(281,221,l),
(282,204,l),
(324,0,l),
(396,0,l),
(252,710,l),
(155,710,l),
(11,0,l)
);
},
{
closed = 1;
nodes = (
(329,186,l),
(329,249,l),
(76,249,l),
(76,186,l)
);
}
);
width = 407;
},
{
anchors = (
{
name = bottom;
pos = (255,0);
},
{
name = ogonek;
pos = (470,0);
},
{
name = top;
pos = (255,710);
}
);
layerId = "B6DC6C93-7E5A-4350-AC8D-F1BB3AE9B4CB";
shapes = (
{
closed = 1;
nodes = (
(158,0,l),
(192,200,l),
(198,235,l),
(254,594,l),
(241,594,l),
(297,235,l),
(303,200,l),
(337,0,l),
(497,0,l),
(353,710,l),
(147,710,l),
(4,0,l)
);
},
{
closed = 1;
nodes = (
(351,156,l),
(351,274,l),
(135,274,l),
(135,156,l)
);
}
);
width = 501;
},
{
anchors = (
{
name = bottom;
pos = (409,0);
},
{
name = ogonek;
pos = (806,0);
},
{
name = top;
pos = (409,710);
}
);
background = {
anchors = (
{
name = bottom;
pos = (361,0);
},
{
name = ogonek;
pos = (696,0);
},
{
name = top;
pos = (361,720);
}
);
shapes = (
{
closed = 1;
nodes = (
(111,0,l),
(192,216,l),
(200,239,l),
(357,648,l),
(363,648,l),
(520,239,l),
(528,216,l),
(609,0,l),
(695,0,l),
(415,720,l),
(305,720,l),
(25,0,l)
);
},
{
closed = 1;
nodes = (
(544,200,l),
(544,269,l),
(177,269,l),
(177,200,l)
);
}
);
};
guides = (
{
angle = 180;
pos = (313,228);
}
);
layerId = "AD0154C7-7101-4C76-975C-BE8A541C5FBC";
shapes = (
{
closed = 1;
nodes = (
(105,0,l),
(216,228,l),
(227,251,l),
(417,641,l),
(401,641,l),
(591,251,l),
(602,228,l),
(713,0,l),
(808,0,l),
(458,710,l),
(360,710,l),
(10,0,l)
);
},
{
closed = 1;
nodes = (
(647,206,l),
(647,279,l),
(162,279,l),
(162,206,l)
);
}
);
width = 818;
},
{
anchors = (
{
name = bottom;
pos = (450,0);
},
{
name = ogonek;
pos = (870,0);
},
{
name = top;
pos = (450,710);
}
);
guides = (
{
angle = 180;
pos = (372,244);
}
);
layerId = "E5B4AC11-8521-476B-8B52-54F023F880B1";
shapes = (
{
closed = 1;
nodes = (
(199,0,l),
(294,207,l),
(312,244,l),
(466,573,l),
(424,573,l),
(577,244,l),
(593,207,l),
(689,0,l),
(902,0,l),
(556,710,l),
(344,710,l),
(-2,0,l)
);
},
{
closed = 1;
nodes = (
(711,168,l),
(711,304,l),
(184,304,l),
(184,168,l)
);
}
);
width = 900;
}
);
note = A;
unicode = 65;
},
{
glyphname = Aogonek;
kernLeft = A;
kernRight = A;
lastChange = "2023-10-17 00:48:53 +0000";
layers = (
{
background = {
shapes = (
{
ref = A;
},
{
pos = (522,0);
ref = ogonekcomb;
}
);
};
layerId = "E39CE873-C6CB-4040-8FBA-1D86B139B3E5";
shapes = (
{
closed = 1;
nodes = (
(635,-105,l),
(603,-108,o),
(564,-101,o),
(564,-63,cs),
(564,-45,o),
(572,-25,o),
(605,0,c),
(643,0,l),
(377,710,l),
(276,710,l),
(10,0,l),
(98,0,l),
(175,213,l),
(182,236,l),
(325,629,l),
(468,236,l),
(475,213,l),
(548,12,l),
(518,-14,o),
(498,-45,o),
(498,-80,cs),
(498,-152,o),
(582,-170,o),
(635,-158,c)
);
},
{
closed = 1;
nodes = (
(495,198,l),
(495,267,l),
(154,267,l),
(154,198,l)
);
}
);
width = 653;
},
{
background = {
shapes = (
{
ref = A;
},
{
pos = (527,0);
ref = ogonekcomb;
}
);
};
layerId = "7F29FB76-5474-4FBC-BDD6-396388860F4A";
shapes = (
{
closed = 1;
nodes = (
(678,-76,l),
(650,-82,o),
(597,-84,o),
(597,-47,cs),
(597,-26,o),
(610,-12,o),
(627,0,c),
(704,0,l),
(465,710,l),
(240,710,l),
(1,0,l),
(185,0,l),
(245,205,l),
(255,238,l),
(351,546,l),
(447,238,l),
(457,205,l),
(515,7,l),
(496,-17,o),
(483,-46,o),
(483,-72,cs),
(483,-173,o),
(608,-181,o),
(678,-161,c)
);
},
{
closed = 1;
nodes = (
(543,166,l),
(543,298,l),
(163,298,l),
(163,166,l)
);
}
);
width = 705;
},
{
background = {
shapes = (
{
ref = A;
},
{
pos = (296,0);
ref = ogonekcomb;
}
);
};
layerId = "C91C925B-D0D7-4075-AF07-39B2B48BEC27";
shapes = (
{
closed = 1;
nodes = (
(392,-110,l),
(365,-112,o),
(347,-101,o),
(347,-70,cs),
(347,-47,o),
(355,-20,o),
(376,0,c),
(403,0,l),
(259,710,l),
(155,710,l),
(11,0,l),
(85,0,l),
(125,204,l),
(127,221,l),
(205,634,l),
(284,221,l),
(285,204,l),
(325,5,l),
(301,-25,o),
(292,-54,o),
(292,-84,cs),
(292,-146,o),
(340,-164,o),
(392,-157,c)
);
},
{
closed = 1;
nodes = (
(332,185,l),
(332,250,l),
(80,250,l),
(80,185,l)
);
}
);
width = 414;
},
{
background = {
shapes = (
{
ref = A;
},
{
pos = (338,0);
ref = ogonekcomb;
}
);
};
layerId = "B6DC6C93-7E5A-4350-AC8D-F1BB3AE9B4CB";
shapes = (
{
closed = 1;
nodes = (
(465,-87,l),
(420,-89,o),
(398,-81,o),
(398,-48,cs),
(398,-29,o),
(408,-11,o),
(417,0,c),
(497,0,l),
(353,710,l),
(147,710,l),
(4,0,l),
(158,0,l),
(192,200,l),
(198,235,l),
(248,552,l),
(297,235,l),
(303,200,l),
(336,4,l),
(318,-21,o),
(304,-49,o),
(304,-81,cs),
(304,-160,o),
(380,-176,o),
(465,-165,c)
);
},
{
closed = 1;
nodes = (
(351,156,l),
(351,274,l),
(135,274,l),
(135,156,l)
);
}
);
width = 501;
},
{
background = {
shapes = (
{
ref = A;
},
{
pos = (661,0);
ref = ogonekcomb;
}
);
};
layerId = "AD0154C7-7101-4C76-975C-BE8A541C5FBC";
shapes = (
{
closed = 1;
nodes = (
(802,-99,l),
(770,-103,o),
(723,-100,o),
(723,-62,cs),
(723,-36,o),
(743,-17,o),
(773,0,c),
(808,0,l),
(458,710,l),
(360,710,l),
(10,0,l),
(105,0,l),
(216,228,l),
(227,251,l),
(409,625,l),
(591,251,l),
(602,228,l),
(710,6,l),
(679,-14,o),
(650,-43,o),
(650,-82,cs),
(650,-154,o),
(741,-170,o),
(802,-153,c)
);
},
{
closed = 1;
nodes = (
(647,206,l),
(647,279,l),
(162,279,l),
(162,206,l)
);
}
);
width = 818;
},
{
background = {
shapes = (
{
ref = A;
},
{
pos = (675,0);
ref = ogonekcomb;
}
);
};
layerId = "E5B4AC11-8521-476B-8B52-54F023F880B1";
shapes = (
{
closed = 1;
nodes = (
(879,-68,l),
(845,-75,o),
(783,-81,o),
(783,-42,cs),
(783,-27,o),
(792,-15,o),
(809,0,c),
(902,0,l),
(556,710,l),
(344,710,l),
(-2,0,l),
(199,0,l),
(294,207,l),
(312,244,l),
(445,528,l),
(577,244,l),
(593,207,l),
(686,6,l),
(664,-19,o),
(648,-43,o),
(648,-71,cs),
(648,-170,o),
(795,-183,o),
(879,-159,c)
);
},
{
closed = 1;
nodes = (
(711,168,l),
(711,304,l),
(184,304,l),
(184,168,l)
);
}
);
width = 900;
}
);
unicode = 260;
},
{
glyphname = AE;
kernLeft = AE;
kernRight = E;
lastChange = "2023-10-17 00:48:53 +0000";
layers = (
{
anchors = (
{
name = bottom;
pos = (467,0);
},
{
name = top;
pos = (581,710);
}
);
layerId = "E39CE873-C6CB-4040-8FBA-1D86B139B3E5";
shapes = (
{
closed = 1;
nodes = (
(81,0,l),
(177,213,l),
(186,236,l),
(377,663,l),
(327,640,l),
(505,640,l),
(505,710,l),
(318,710,l),
(-9,0,l)
);
},
{
closed = 1;
nodes = (
(505,198,l),
(505,267,l),
(164,267,l),
(164,198,l)
);
},
{
closed = 1;
nodes = (
(914,0,l),
(914,70,l),
(520,70,l),
(552,44,l),
(552,670,l),
(520,640,l),
(910,640,l),
(910,710,l),
(466,710,l),
(466,0,l)
);
},
{
closed = 1;
nodes = (
(859,329,l),
(859,399,l),
(534,399,l),
(534,329,l)
);
}
);
width = 955;
},
{
anchors = (
{
name = bottom;
pos = (498,0);
},
{
name = top;
pos = (641,710);
}
);
layerId = "7F29FB76-5474-4FBC-BDD6-396388860F4A";
shapes = (
{
closed = 1;
nodes = (
(182,0,l),
(256,205,l),
(269,238,l),
(418,629,l),
(329,574,l),
(503,574,l),
(503,710,l),
(281,710,l),
(-10,0,l)
);
},
{
closed = 1;
nodes = (
(562,166,l),
(562,298,l),
(182,298,l),
(182,166,l)
);
},
{
closed = 1;
nodes = (
(969,0,l),
(969,136,l),
(621,136,l),
(651,112,l),
(651,602,l),
(621,574,l),
(961,574,l),
(961,710,l),
(471,710,l),
(471,0,l)
);
},
{
closed = 1;
nodes = (
(907,294,l),
(907,428,l),
(606,428,l),
(606,294,l)
);
}
);
width = 998;
},
{
anchors = (
{
name = bottom;
pos = (298,0);
},
{
name = top;
pos = (391,710);
}
);
layerId = "C91C925B-D0D7-4075-AF07-39B2B48BEC27";
shapes = (
{
closed = 1;
nodes = (
(67,0,l),
(125,204,l),
(128,221,l),
(252,672,l),
(219,648,l),
(303,648,l),
(303,710,l),
(201,710,l),
(-5,0,l)
);
},
{
closed = 1;
nodes = (
(348,185,l),
(348,250,l),
(96,250,l),
(96,185,l)
);
},
{
closed = 1;
nodes = (
(582,0,l),
(582,60,l),
(349,60,l),
(365,32,l),
(365,678,l),
(349,650,l),
(578,650,l),
(578,710,l),
(295,710,l),
(295,0,l)
);
},
{
closed = 1;
nodes = (
(556,335,l),
(556,394,l),
(350,394,l),
(350,335,l)
);
}
);
width = 610;
},
{
anchors = (
{
name = bottom;
pos = (356,0);
},
{
name = top;
pos = (486,710);
}
);
layerId = "B6DC6C93-7E5A-4350-AC8D-F1BB3AE9B4CB";
shapes = (
{
closed = 1;
nodes = (
(152,0,l),
(200,200,l),
(209,235,l),
(301,645,l),
(238,578,l),
(388,578,l),
(390,710,l),
(181,710,l),
(-10,0,l)
);
},
{
closed = 1;
nodes = (
(362,156,l),
(362,274,l),
(146,274,l),
(146,156,l)
);
},
{
closed = 1;
nodes = (
(698,0,l),
(698,132,l),
(467,132,l),
(491,104,l),
(491,607,l),
(467,578,l),
(694,578,l),
(694,710,l),
(333,710,l),
(333,0,l)
);
},
{
closed = 1;
nodes = (
(671,300,l),
(671,423,l),
(441,423,l),
(441,300,l)
);
}
);
width = 722;
},
{
anchors = (
{
name = bottom;
pos = (614,0);
},
{
name = top;
pos = (807,710);
}
);
layerId = "AD0154C7-7101-4C76-975C-BE8A541C5FBC";
shapes = (
{
closed = 1;
nodes = (
(84,0,l),
(231,228,l),
(246,251,l),
(515,668,l),
(466,635,l),
(623,635,l),
(623,710,l),
(446,710,l),
(-20,0,l)
);
},
{
closed = 1;
nodes = (
(602,206,l),
(602,279,l),
(200,279,l),
(200,206,l)
);
},
{
closed = 1;
nodes = (
(1213,0,l),
(1213,75,l),
(658,75,l),
(683,41,l),
(683,669,l),
(658,635,l),
(1203,635,l),
(1203,710,l),
(588,710,l),
(588,0,l)
);
},
{
closed = 1;
nodes = (
(1168,327,l),
(1168,402,l),
(658,402,l),
(658,327,l)
);
}
);
width = 1261;
},
{
anchors = (
{
name = bottom;
pos = (651,0);
},
{
name = top;
pos = (847,710);
}
);
layerId = "E5B4AC11-8521-476B-8B52-54F023F880B1";
shapes = (
{
closed = 1;
nodes = (
(198,0,l),
(318,207,l),
(340,244,l),
(566,626,l),
(456,562,l),
(677,562,l),
(677,710,l),
(419,710,l),
(-23,0,l)
);
},
{
closed = 1;
nodes = (
(678,168,l),
(678,304,l),
(216,304,l),
(216,168,l)
);
},
{
closed = 1;
nodes = (
(1286,0,l),
(1286,148,l),
(767,148,l),
(819,95,l),
(819,615,l),
(767,562,l),
(1279,562,l),
(1279,710,l),
(619,710,l),
(619,0,l)
);
},
{
closed = 1;
nodes = (
(1234,288,l),
(1234,430,l),
(710,430,l),
(710,288,l)
);
}
);
width = 1324;
}
);
unicode = 198;
},
{
glyphname = B;
kernLeft = H;
lastChange = "2023-10-17 00:48:53 +0000";
layers = (
{
anchors = (
{
name = bottom;
pos = (324,0);
},
{
name = center;
pos = (324,355);
},
{
name = top;
pos = (324,710);
}
);
background = {
shapes = (
{
closed = 0;
nodes = (
(451,523,l)
);
}
);
};
layerId = "E39CE873-C6CB-4040-8FBA-1D86B139B3E5";
shapes = (
{
closed = 1;
nodes = (
(363,0,ls),
(517,0,o),
(586,90,o),
(586,197,cs),
(586,293,o),
(532,369,o),
(409,378,c),
(409,358,l),
(505,374,o),
(557,444,o),
(557,532,cs),
(557,626,o),
(493,710,o),
(349,710,cs),
(78,710,l),
(78,0,l)
);
},
{
closed = 1;
nodes = (
(164,640,l),
(346,640,ls),
(433,640,o),
(471,595,o),
(471,530,cs),
(471,520,ls),
(471,450,o),
(434,400,o),
(346,400,cs),
(148,400,l),
(148,333,l),
(360,333,ls),
(456,333,o),
(500,278,o),
(500,206,cs),
(500,195,ls),
(500,119,o),
(455,70,o),
(360,70,cs),
(164,70,l)
);
}
);
width = 628;
},
{
anchors = (
{
name = bottom;
pos = (337,0);
},
{
name = center;
pos = (337,355);
},
{
name = top;
pos = (337,710);
}
);
layerId = "7F29FB76-5474-4FBC-BDD6-396388860F4A";
shapes = (
{
closed = 1;
nodes = (
(389,0,ls),
(537,0,o),
(631,71,o),
(631,195,cs),
(631,283,o),
(578,354,o),
(458,372,c),
(462,354,l),
(548,375,o),
(607,433,o),
(607,523,cs),
(607,645,o),
(512,710,o),
(369,710,cs),
(51,710,l),
(51,0,l)
);
},
{
closed = 1;
nodes = (
(231,578,l),
(343,578,ls),
(406,578,o),
(429,547,o),
(429,505,cs),
(429,496,ls),
(429,453,o),
(408,422,o),
(343,422,cs),
(215,422,l),
(215,294,l),
(361,294,ls),
(428,294,o),
(450,262,o),
(450,217,cs),
(450,208,ls),
(450,164,o),
(426,132,o),
(361,132,cs),
(231,132,l)
);
}
);
width = 656;
},
{
anchors = (
{
name = bottom;
pos = (198,0);
},
{
name = center;
pos = (198,355);
},
{
name = top;
pos = (198,710);
}
);
layerId = "C91C925B-D0D7-4075-AF07-39B2B48BEC27";
shapes = (
{
closed = 1;
nodes = (
(198,0,ls),
(329,0,o),
(369,88,o),
(369,198,cs),
(369,281,o),
(347,349,o),
(269,375,c),
(269,360,l),
(339,385,o),
(363,449,o),
(363,529,cs),
(363,630,o),
(324,710,o),
(196,710,cs),
(52,710,l),
(52,0,l)
);
},
{
closed = 1;
nodes = (
(122,650,l),
(196,650,ls),
(259,650,o),
(293,612,o),
(293,542,cs),
(293,504,ls),
(293,433,o),
(259,396,o),
(196,396,cs),
(111,396,l),
(111,336,l),
(198,336,ls),
(263,336,o),
(297,299,o),
(297,221,cs),
(297,179,ls),
(297,102,o),
(263,60,o),
(198,60,cs),
(122,60,l)
);
}
);
width = 403;
},
{
anchors = (
{
name = bottom;
pos = (239,0);
},
{
name = center;
pos = (239,355);
},
{
name = top;
pos = (239,710);
}
);
layerId = "B6DC6C93-7E5A-4350-AC8D-F1BB3AE9B4CB";
shapes = (
{
closed = 1;
nodes = (
(257,0,ls),
(384,0,o),
(462,76,o),
(462,197,cs),
(462,293,o),
(418,350,o),
(334,375,c),
(334,347,l),
(412,373,o),
(453,440,o),
(453,516,cs),
(453,647,o),
(376,710,o),
(252,710,cs),
(37,710,l),
(37,0,l)
);
},
{
closed = 1;
nodes = (
(195,586,l),
(234,586,ls),
(279,586,o),
(299,563,o),
(299,520,cs),
(299,482,ls),
(299,438,o),
(280,420,o),
(234,420,cs),
(175,420,l),
(175,298,l),
(239,298,ls),
(286,298,o),
(305,278,o),
(305,233,cs),
(305,191,ls),
(305,147,o),
(285,124,o),
(239,124,cs),
(195,124,l)
);
}
);
width = 482;
},
{
anchors = (
{
name = bottom;
pos = (438,0);
},
{
name = center;
pos = (438,355);
},
{
name = top;
pos = (438,710);
}
);
background = {
anchors = (
{
name = bottom;
pos = (328,0);
},
{
name = top;
pos = (328,720);
}
);
shapes = (
{
closed = 1;
nodes = (
(369,0,ls),
(539,0,o),
(609,91,o),
(609,200,cs),
(609,298,o),
(552,375,o),
(423,384,c),
(423,363,l),
(531,381,o),
(577,457,o),
(577,539,cs),
(577,635,o),
(514,720,o),
(355,720,cs),
(88,720,l),
(88,0,l)
);
},
{
closed = 1;
nodes = (
(170,338,l),
(378,338,ls),
(482,338,o),
(527,279,o),
(527,204,cs),
(527,128,o),
(482,72,o),
(379,72,cs),
(170,72,l)
);
},
{
closed = 1;
nodes = (
(170,648,l),
(354,648,ls),
(465,648,o),
(495,596,o),
(495,530,cs),
(495,462,o),
(463,405,o),
(361,405,cs),
(170,405,l)
);
}
);
};
layerId = "AD0154C7-7101-4C76-975C-BE8A541C5FBC";
shapes = (
{
closed = 1;
nodes = (
(531,0,ls),
(696,0,o),
(778,76,o),
(778,198,cs),
(778,289,o),
(719,358,o),
(620,372,c),
(624,363,l),
(695,378,o),
(764,435,o),
(764,529,cs),
(764,641,o),
(683,710,o),
(518,710,cs),
(85,710,l),
(85,0,l)
);
},
{
closed = 1;
nodes = (
(180,640,l),
(506,640,ls),
(616,640,o),
(671,602,o),
(671,532,cs),
(671,518,ls),
(671,450,o),
(622,399,o),
(520,399,cs),
(151,399,l),
(151,334,l),
(526,334,ls),
(634,334,o),
(685,280,o),
(685,206,cs),
(685,191,ls),
(685,116,o),
(632,70,o),
(524,70,cs),
(180,70,l)
);
}
);
width = 832;
},
{
anchors = (
{
name = bottom;
pos = (419,0);
},
{
name = center;
pos = (419,355);
},
{
name = top;
pos = (419,710);
}
);
layerId = "E5B4AC11-8521-476B-8B52-54F023F880B1";
shapes = (
{
closed = 1;
nodes = (
(486,0,ls),
(677,0,o),
(786,69,o),
(786,207,cs),
(786,295,o),
(737,352,o),
(603,379,c),
(608,348,l),
(725,374,o),
(771,440,o),
(771,521,cs),
(771,650,o),
(664,710,o),
(477,710,cs),
(58,710,l),
(58,0,l)
);
},
{
closed = 1;
nodes = (
(258,565,l),
(478,565,ls),
(545,565,o),
(578,544,o),
(578,501,cs),
(578,492,ls),
(578,449,o),
(545,427,o),
(478,427,cs),
(213,427,l),
(213,290,l),
(486,290,ls),
(555,290,o),
(589,268,o),
(589,226,cs),
(589,217,ls),
(589,170,o),
(555,148,o),
(486,148,cs),
(258,148,l)
);
}
);
width = 819;
}
);
note = B;
unicode = 66;
},
{
glyphname = C;
kernLeft = O;
kernRight = C;
lastChange = "2023-10-17 00:48:53 +0000";
layers = (
{
anchors = (
{
name = bottom;
pos = (362,0);
},
{
name = top;
pos = (357,710);
}
);
background = {
anchors = (
{
name = bottom;
pos = (368,0);
},
{
name = top;
pos = (386,720);
}
);
shapes = (
{
closed = 1;
nodes = (
(561,-12,o),
(660,92,o),
(683,217,c),
(605,217,l),
(579,124,o),
(509,60,o),
(389,60,cs),
(221,60,o),
(124,185,o),
(124,360,cs),
(124,534,o),
(221,660,o),
(388,660,cs),
(504,660,o),
(577,600,o),
(604,496,c),
(682,496,l),
(661,626,o),
(561,732,o),
(387,732,cs),
(175,732,o),
(42,573,o),
(42,359,cs),
(42,146,o),
(174,-12,o),
(388,-12,cs)
);
}
);
};
layerId = "E39CE873-C6CB-4040-8FBA-1D86B139B3E5";
shapes = (
{
closed = 1;
nodes = (
(524,-12,o),
(621,88,o),
(641,231,c),
(561,234,l),
(540,118,o),
(467,57,o),
(363,57,cs),
(224,57,o),
(135,172,o),
(135,335,cs),
(135,375,ls),
(135,538,o),
(224,653,o),
(363,653,cs),
(464,653,o),
(538,596,o),
(560,469,c),
(641,472,l),
(622,620,o),
(523,722,o),
(361,722,cs),
(167,722,o),
(45,569,o),
(45,354,cs),
(45,140,o),
(166,-12,o),
(362,-12,cs)
);
}
);
width = 680;
},
{
anchors = (
{
name = bottom;
pos = (364,0);
},
{
name = top;
pos = (349,710);
}
);
background = {
shapes = (
{
closed = 1;
nodes = (
(520,-12,o),
(632,90,o),
(658,264,c),
(477,264,l),
(460,177,o),
(411,138,o),
(353,138,cs),
(263,138,o),
(207,215,o),
(207,355,cs),
(207,494,o),
(263,573,o),
(352,573,cs),
(413,573,o),
(456,534,o),
(476,444,c),
(657,444,l),
(633,616,o),
(524,722,o),
(352,722,cs),
(152,722,o),
(26,579,o),
(26,355,cs),
(26,130,o),
(152,-12,o),
(352,-12,cs)
);
}
);
};
layerId = "7F29FB76-5474-4FBC-BDD6-396388860F4A";
shapes = (
{
closed = 1;
nodes = (
(523,-12,o),
(635,90,o),
(658,261,c),
(480,264,l),
(470,173,o),
(421,128,o),
(353,128,cs),
(264,128,o),
(210,208,o),
(210,334,cs),
(210,376,ls),
(210,502,o),
(264,582,o),
(353,582,cs),
(423,582,o),
(466,538,o),
(479,444,c),
(657,447,l),
(636,616,o),
(527,722,o),
(355,722,cs),
(155,722,o),
(29,579,o),
(29,355,cs),
(29,130,o),
(155,-12,o),
(355,-12,cs)
);
}
);
width = 679;
},
{
anchors = (
{
name = bottom;
pos = (216,0);
},
{
name = top;
pos = (208,710);
}
);
layerId = "C91C925B-D0D7-4075-AF07-39B2B48BEC27";
shapes = (
{
closed = 1;
nodes = (
(299,-12,o),
(368,48,o),
(371,256,c),
(308,259,l),
(301,110,o),
(273,49,o),
(213,49,cs),
(149,49,o),
(106,120,o),
(106,306,cs),
(106,404,ls),
(106,590,o),
(148,661,o),
(212,661,cs),
(273,661,o),
(301,600,o),
(308,450,c),
(371,453,l),
(368,652,o),
(306,722,o),
(212,722,cs),
(108,722,o),
(35,639,o),
(35,355,cs),
(35,70,o),
(108,-12,o),
(212,-12,cs)
);
}
);
width = 403;
},
{
anchors = (
{
name = bottom;
pos = (253,0);
},
{
name = top;
pos = (241,710);
}
);
background = {
shapes = (
{
closed = 1;
nodes = (
(366,-12,o),
(454,55,o),
(462,279,c),
(314,283,l),
(308,150,o),
(298,113,o),
(249,113,cs),
(205,113,o),
(188,152,o),
(188,248,cs),
(188,462,ls),
(188,562,o),
(207,597,o),
(249,597,cs),
(297,597,o),
(308,560,o),
(314,426,c),
(461,430,l),
(456,654,o),
(366,722,o),
(249,722,cs),
(109,722,o),
(22,635,o),
(22,355,cs),
(22,78,o),
(109,-12,o),
(249,-12,cs)
);
}
);
};
layerId = "B6DC6C93-7E5A-4350-AC8D-F1BB3AE9B4CB";
shapes = (
{
closed = 1;
nodes = (
(364,-12,o),
(451,55,o),
(456,279,c),
(309,283,l),
(306,150,o),
(290,113,o),
(250,113,cs),
(209,113,o),
(186,145,o),
(186,318,cs),
(186,392,ls),
(186,565,o),
(209,597,o),
(250,597,cs),
(289,597,o),
(306,560,o),
(309,426,c),
(456,430,l),
(454,654,o),
(364,722,o),
(247,722,cs),
(107,722,o),
(24,635,o),
(24,355,cs),
(24,78,o),
(107,-12,o),
(247,-12,cs)
);
}
);
width = 477;
},
{
anchors = (
{
name = bottom;
pos = (450,0);
},
{
name = top;
pos = (440,710);
}
);
background = {
anchors = (
{
name = bottom;
pos = (368,0);
},
{
name = top;
pos = (386,720);
}
);
shapes = (
{
ref = O;
}
);
};
layerId = "AD0154C7-7101-4C76-975C-BE8A541C5FBC";
shapes = (
{
closed = 1;
nodes = (
(594,-12,o),
(743,37,o),
(807,206,c),
(732,233,l),
(676,94,o),
(563,63,o),
(449,63,cs),
(264,63,o),
(143,177,o),
(143,345,cs),
(143,365,ls),
(143,533,o),
(257,647,o),
(436,647,cs),
(569,647,o),
(672,601,o),
(730,477,c),
(805,504,l),
(740,664,o),
(597,722,o),
(443,722,cs),
(206,722,o),
(47,569,o),
(47,354,cs),
(47,140,o),
(206,-12,o),
(447,-12,cs)
);
}
);
width = 846;
},
{
anchors = (
{
name = bottom;
pos = (476,0);
},
{
name = top;
pos = (463,710);
}
);
background = {
shapes = (
{
pos = (1,0);
ref = O;
}
);
};
layerId = "E5B4AC11-8521-476B-8B52-54F023F880B1";
shapes = (
{
closed = 1;
nodes = (
(694,-13,o),
(843,95,o),
(882,233,c),
(703,276,l),
(661,172,o),
(572,141,o),
(474,141,cs),
(341,141,o),
(233,208,o),
(233,345,cs),
(233,365,ls),
(233,502,o),
(341,569,o),
(474,569,cs),
(572,569,o),
(661,538,o),
(703,434,c),
(882,477,l),
(843,615,o),
(694,721,o),
(471,721,cs),
(214,721,o),
(31,579,o),
(31,355,cs),
(31,131,o),
(214,-13,o),
(471,-13,cs)
);
}
);
width = 902;
}
);
note = C;
unicode = 67;
},
{
glyphname = D;
kernLeft = H;
kernRight = D;
lastChange = "2023-10-17 00:48:53 +0000";
layers = (
{
anchors = (
{
name = bottom;
pos = (338,0);
},
{
name = center;
pos = (338,355);
},
{
name = top;
pos = (283,710);
}
);
background = {
anchors = (
{
name = bottom;
pos = (345,0);
},
{
name = center;
pos = (110,360);
},
{
name = top;
pos = (287,720);
}
);
shapes = (
{
closed = 1;
nodes = (
(318,0,ls),
(542,0,o),
(663,159,o),
(663,360,cs),
(663,561,o),
(542,720,o),
(318,720,cs),
(68,720,l),
(68,0,l)
);
},
{
closed = 1;
nodes = (
(150,682,l),
(113,648,l),
(318,648,ls),
(486,648,o),
(581,522,o),
(581,360,cs),
(581,198,o),
(486,72,o),
(318,72,cs),
(117,72,l),
(150,37,l)
);
}
);
};
layerId = "E39CE873-C6CB-4040-8FBA-1D86B139B3E5";
shapes = (
{
closed = 1;
nodes = (
(302,0,ls),
(530,0,o),
(640,153,o),
(640,355,cs),
(640,557,o),
(530,710,o),
(302,710,cs),
(78,710,l),
(78,0,l)
);
},
{
closed = 1;
nodes = (
(164,640,l),
(309,640,ls),
(474,640,o),
(554,527,o),
(554,374,cs),
(554,336,ls),
(554,183,o),
(474,70,o),
(309,70,cs),
(164,70,l)
);
}
);
width = 684;
},
{
anchors = (
{
name = bottom;
pos = (339,0);
},
{
name = center;
pos = (339,355);
},
{
name = top;
pos = (279,710);
}
);
layerId = "7F29FB76-5474-4FBC-BDD6-396388860F4A";
shapes = (
{
closed = 1;
nodes = (
(299,0,ls),
(545,0,o),
(657,153,o),
(657,355,cs),
(657,557,o),
(545,710,o),
(299,710,cs),
(51,710,l),
(51,0,l)
);
},
{
closed = 1;
nodes = (
(231,578,l),
(306,578,ls),
(425,578,o),
(478,493,o),
(478,376,cs),
(478,334,ls),
(478,217,o),
(425,132,o),
(306,132,cs),
(231,132,l)
);
}
);
width = 685;
},
{
anchors = (
{
name = bottom;
pos = (210,0);
},
{
name = center;
pos = (210,355);
},
{
name = top;
pos = (175,710);
}
);
layerId = "C91C925B-D0D7-4075-AF07-39B2B48BEC27";
shapes = (
{
closed = 1;
nodes = (
(175,0,ls),
(292,0,o),
(378,79,o),
(378,355,cs),
(378,629,o),
(292,710,o),
(175,710,cs),
(52,710,l),
(52,0,l)
);
},
{
closed = 1;
nodes = (
(122,650,l),
(176,650,ls),
(247,650,o),
(308,581,o),
(308,397,cs),
(308,313,ls),
(308,129,o),
(247,60,o),
(176,60,cs),
(122,60,l)
);
}
);
width = 413;
},
{
anchors = (
{
name = bottom;
pos = (243,0);
},
{
name = center;
pos = (243,355);
},
{
name = top;
pos = (210,710);
}
);
layerId = "B6DC6C93-7E5A-4350-AC8D-F1BB3AE9B4CB";
shapes = (
{
closed = 1;
nodes = (
(241,0,ls),
(379,0,o),
(463,99,o),
(463,355,cs),
(463,611,o),
(379,710,o),
(241,710,cs),
(37,710,l),
(37,0,l)
);
},
{
closed = 1;
nodes = (
(195,578,l),
(220,578,ls),
(276,578,o),
(301,554,o),
(301,453,cs),
(301,257,ls),
(301,156,o),
(276,132,o),
(220,132,cs),
(195,132,l)
);
}
);
width = 487;
},
{
anchors = (
{
name = bottom;
pos = (434,0);
},
{
name = center;
pos = (434,355);
},
{
name = top;
pos = (361,710);
}
);
background = {
anchors = (
{
name = bottom;
pos = (911,0);
},
{
name = center;
pos = (676,360);
},
{
name = top;
pos = (853,720);
}
);
shapes = (
{
closed = 1;
nodes = (
(884,0,ls),
(1108,0,o),
(1229,159,o),
(1229,360,cs),
(1229,561,o),
(1108,720,o),
(884,720,cs),
(634,720,l),
(634,0,l)
);
},
{
closed = 1;
nodes = (
(716,682,l),
(679,648,l),
(884,648,ls),
(1052,648,o),
(1147,522,o),
(1147,360,cs),
(1147,198,o),
(1052,72,o),
(884,72,cs),
(683,72,l),
(716,37,l)
);
}
);
};
layerId = "AD0154C7-7101-4C76-975C-BE8A541C5FBC";
shapes = (
{
closed = 1;
nodes = (
(424,0,ls),
(680,0,o),
(824,146,o),
(824,354,cs),
(824,562,o),
(681,710,o),
(424,710,cs),
(85,710,l),
(85,0,l)
);
},
{
closed = 1;
nodes = (
(180,640,l),
(416,640,ls),
(628,640,o),
(729,531,o),
(729,366,cs),
(729,344,ls),
(729,179,o),
(628,70,o),
(416,70,cs),
(180,70,l)
);
}
);
width = 872;
},
{
anchors = (
{
name = bottom;
pos = (443,0);
},
{
name = center;
pos = (443,355);
},
{
name = top;
pos = (388,710);
}
);
layerId = "E5B4AC11-8521-476B-8B52-54F023F880B1";
shapes = (
{
closed = 1;
nodes = (
(441,0,ls),
(722,0,o),
(859,150,o),
(859,354,cs),
(859,560,o),
(722,710,o),
(441,710,cs),
(58,710,l),
(58,0,l)
);
},
{
closed = 1;
nodes = (
(258,562,l),
(427,562,ls),
(583,562,o),
(657,490,o),
(657,368,cs),
(657,342,ls),
(657,222,o),
(583,148,o),
(427,148,cs),
(258,148,l)
);
}
);
width = 891;
}
);
note = D;
unicode = 68;
},
{
glyphname = Dcroat;
kernLeft = H;
kernRight = D;
lastChange = "2023-10-17 00:48:53 +0000";
layers = (
{
layerId = "E39CE873-C6CB-4040-8FBA-1D86B139B3E5";
shapes = (
{
closed = 1;
nodes = (
(318,322,l),
(318,388,l),
(34,388,l),
(34,322,l)
);
},
{
pos = (22,0);
ref = D;
}
);
width = 706;
},
{
layerId = "7F29FB76-5474-4FBC-BDD6-396388860F4A";
shapes = (
{
closed = 1;
nodes = (
(377,293,l),
(377,418,l),
(25,418,l),
(25,293,l)
);
},
{
pos = (41,0);
ref = D;
}
);
width = 726;
},
{
layerId = "C91C925B-D0D7-4075-AF07-39B2B48BEC27";
shapes = (
{
closed = 1;
nodes = (
(221,327,l),
(221,383,l),
(14,383,l),
(14,327,l)
);
},
{
pos = (20,0);
ref = D;
}
);
width = 433;
},
{
layerId = "B6DC6C93-7E5A-4350-AC8D-F1BB3AE9B4CB";
shapes = (
{
closed = 1;
nodes = (
(279,295,l),
(279,414,l),
(19,414,l),
(19,295,l)
);
},
{
pos = (30,0);
ref = D;
}
);
width = 517;
},
{
layerId = "AD0154C7-7101-4C76-975C-BE8A541C5FBC";
shapes = (
{
closed = 1;
nodes = (
(446,322,l),
(446,388,l),
(33,388,l),
(33,322,l)
);
},
{
pos = (44,0);
ref = D;
}
);
width = 916;
},
{
layerId = "E5B4AC11-8521-476B-8B52-54F023F880B1";
shapes = (
{
closed = 1;
nodes = (
(477,284,l),
(477,427,l),
(29,427,l),
(29,284,l)
);
},
{
pos = (55,0);
ref = D;
}
);
width = 946;
}
);
unicode = 272;
},
{
glyphname = E;
kernLeft = H;
kernRight = E;
lastChange = "2023-10-17 00:48:53 +0000";
layers = (
{
anchors = (
{
name = bottom;
pos = (289,0);
},
{
name = ogonek;
pos = (510,0);
},
{
name = top;
pos = (305,710);
},
{
name = topleft;
pos = (20,710);
}
);
background = {
anchors = (
{
name = bottom;
pos = (300,0);
},
{
name = ogonek;
pos = (536,0);
},
{
name = top;
pos = (321,720);
},
{
name = topleft;
pos = (88,720);
}
);
shapes = (
{
closed = 1;
nodes = (
(536,0,l),
(536,72,l),
(133,72,l),
(170,42,l),
(170,682,l),
(133,648,l),
(533,648,l),
(533,720,l),
(88,720,l),
(88,0,l)
);
},
{
closed = 1;
nodes = (
(505,326,l),
(505,398,l),
(154,398,l),
(154,326,l)
);
}
);
};
layerId = "E39CE873-C6CB-4040-8FBA-1D86B139B3E5";
shapes = (
{
closed = 1;
nodes = (
(526,0,l),
(526,70,l),
(132,70,l),
(164,44,l),
(164,670,l),
(132,640,l),
(522,640,l),
(522,710,l),
(78,710,l),
(78,0,l)
);
},
{
closed = 1;
nodes = (
(471,329,l),
(471,399,l),
(146,399,l),
(146,329,l)
);
}
);
width = 567;
},
{
anchors = (
{
name = bottom;
pos = (296,0);
},
{
name = ogonek;
pos = (525,0);
},
{
name = top;
pos = (302,710);
},
{
name = topleft;
pos = (15,710);
}
);
layerId = "7F29FB76-5474-4FBC-BDD6-396388860F4A";
shapes = (
{
closed = 1;
nodes = (
(549,0,l),
(549,136,l),
(201,136,l),
(231,112,l),
(231,602,l),
(201,574,l),
(541,574,l),
(541,710,l),
(51,710,l),
(51,0,l)
);
},
{
closed = 1;
nodes = (
(487,294,l),
(487,428,l),
(186,428,l),
(186,294,l)
);
}
);
width = 578;
},
{
anchors = (
{
name = bottom;
pos = (187,0);
},
{
name = ogonek;
pos = (332,0);
},
{
name = top;
pos = (187,710);
},
{
name = topleft;
pos = (28,710);
}
);
layerId = "C91C925B-D0D7-4075-AF07-39B2B48BEC27";
shapes = (
{
closed = 1;
nodes = (
(339,0,l),
(339,60,l),
(104,60,l),
(122,30,l),
(122,680,l),
(104,650,l),
(335,650,l),
(335,710,l),
(52,710,l),
(52,0,l)
);
},
{
closed = 1;
nodes = (
(313,335,l),
(313,394,l),
(105,394,l),
(105,335,l)
);
}
);
width = 367;
},
{
anchors = (
{
name = bottom;
pos = (217,0);
},
{
name = ogonek;
pos = (389,0);
},
{
name = top;
pos = (217,710);
},
{
name = topleft;
pos = (21,710);
}
);
layerId = "B6DC6C93-7E5A-4350-AC8D-F1BB3AE9B4CB";
shapes = (
{
closed = 1;
nodes = (
(402,0,l),
(402,132,l),
(171,132,l),
(195,104,l),
(195,607,l),
(171,578,l),
(398,578,l),
(398,710,l),
(37,710,l),
(37,0,l)
);
},
{
closed = 1;
nodes = (
(375,300,l),
(375,423,l),
(145,423,l),
(145,300,l)
);
}
);
width = 426;
},
{
anchors = (
{
name = bottom;
pos = (395,0);
},
{
name = ogonek;
pos = (685,0);
},
{
name = top;
pos = (395,710);
},
{
name = topleft;
pos = (47,710);
}
);
background = {
anchors = (
{
name = bottom;
pos = (306,0);
},
{
name = ogonek;
pos = (542,0);
},
{
name = top;
pos = (327,720);
},
{
name = topleft;
pos = (94,720);
}
);
shapes = (
{
closed = 1;
nodes = (
(542,0,l),
(542,72,l),
(139,72,l),
(176,42,l),
(176,682,l),
(139,648,l),
(539,648,l),
(539,720,l),
(94,720,l),
(94,0,l)
);
},
{
closed = 1;
nodes = (
(511,326,l),
(511,398,l),
(160,398,l),
(160,326,l)
);
}
);
};
layerId = "AD0154C7-7101-4C76-975C-BE8A541C5FBC";
shapes = (
{
closed = 1;
nodes = (
(710,0,l),
(710,75,l),
(155,75,l),
(180,41,l),
(180,669,l),
(155,635,l),
(700,635,l),
(700,710,l),
(85,710,l),
(85,0,l)
);
},
{
closed = 1;
nodes = (
(665,327,l),
(665,402,l),
(155,402,l),
(155,327,l)
);
}
);
width = 758;
},
{
anchors = (
{
name = bottom;
pos = (392,0);
},
{
name = ogonek;
pos = (684,0);
},
{
name = top;
pos = (392,710);
},
{
name = topleft;
pos = (30,710);
}
);
layerId = "E5B4AC11-8521-476B-8B52-54F023F880B1";
shapes = (
{
closed = 1;
nodes = (
(725,0,l),
(725,148,l),
(206,148,l),
(258,95,l),
(258,615,l),
(206,562,l),
(718,562,l),
(718,710,l),
(58,710,l),
(58,0,l)
);
},
{
closed = 1;
nodes = (
(673,288,l),
(673,430,l),
(149,430,l),
(149,288,l)
);
}
);
width = 763;
}
);
note = E;
unicode = 69;
},
{
glyphname = F;
kernLeft = H;
lastChange = "2023-10-17 00:48:53 +0000";
layers = (
{
anchors = (
{
name = bottom;
pos = (262,0);
},
{
name = top;
pos = (262,710);
}
);
background = {
anchors = (
{
name = bottom;
pos = (261,0);
},
{
name = top;
pos = (261,720);
}
);
shapes = (
{
closed = 1;
nodes = (
(150,0,l),
(150,682,l),
(113,648,l),
(493,648,l),
(493,720,l),
(68,720,l),
(68,0,l)
);
},
{
closed = 1;
nodes = (
(471,304,l),
(471,376,l),
(134,376,l),
(134,304,l)
);
}
);
};
layerId = "E39CE873-C6CB-4040-8FBA-1D86B139B3E5";
shapes = (
{
closed = 1;
nodes = (
(164,0,l),
(164,670,l),
(132,638,l),
(475,638,l),
(475,710,l),
(78,710,l),
(78,0,l)
);
},
{
closed = 1;
nodes = (
(455,302,l),
(455,374,l),
(146,374,l),
(146,302,l)
);
}
);
width = 506;
},
{
anchors = (
{
name = bottom;
pos = (268,0);
},
{
name = top;
pos = (268,710);
}
);
layerId = "7F29FB76-5474-4FBC-BDD6-396388860F4A";
shapes = (
{
closed = 1;
nodes = (
(231,0,l),
(231,602,l),
(201,571,l),
(509,571,l),
(509,710,l),
(51,710,l),
(51,0,l)
);
},
{
closed = 1;
nodes = (
(488,263,l),
(488,401,l),
(186,401,l),
(186,263,l)
);
}
);
width = 530;
},
{
anchors = (
{
name = bottom;
pos = (177,0);
},
{
name = top;
pos = (177,710);
}
);
layerId = "C91C925B-D0D7-4075-AF07-39B2B48BEC27";
shapes = (
{
closed = 1;
nodes = (
(122,0,l),
(122,680,l),
(104,650,l),
(333,650,l),
(333,710,l),
(52,710,l),
(52,0,l)
);
},
{
closed = 1;
nodes = (
(319,324,l),
(319,382,l),
(105,382,l),
(105,324,l)
);
}
);
width = 354;
},
{
anchors = (
{
name = bottom;
pos = (204,0);
},
{
name = top;
pos = (204,710);
}
);
layerId = "B6DC6C93-7E5A-4350-AC8D-F1BB3AE9B4CB";
shapes = (
{
closed = 1;
nodes = (
(195,0,l),
(195,607,l),
(171,578,l),
(394,578,l),
(394,710,l),
(37,710,l),
(37,0,l)
);
},
{
closed = 1;
nodes = (
(383,281,l),
(383,405,l),
(145,405,l),
(145,281,l)
);
}
);
width = 410;
},
{
anchors = (
{
name = bottom;
pos = (368,0);
},
{
name = top;
pos = (368,710);
}
);
background = {
anchors = (
{
name = bottom;
pos = (267,0);
},
{
name = top;
pos = (267,720);
}
);
shapes = (
{
closed = 1;
nodes = (
(156,0,l),
(156,682,l),
(119,648,l),
(499,648,l),
(499,720,l),
(74,720,l),
(74,0,l)
);
},
{
closed = 1;
nodes = (
(477,304,l),
(477,376,l),
(140,376,l),
(140,304,l)
);
}
);
};
layerId = "AD0154C7-7101-4C76-975C-BE8A541C5FBC";
shapes = (
{
closed = 1;
nodes = (
(180,0,l),
(180,669,l),
(155,635,l),
(681,635,l),
(681,710,l),
(85,710,l),
(85,0,l)
);
},
{
closed = 1;
nodes = (
(649,300,l),
(649,375,l),
(155,375,l),
(155,300,l)
);
}
);
width = 712;
},
{
anchors = (
{
name = bottom;
pos = (361,0);
},
{
name = top;
pos = (361,710);
}
);
layerId = "E5B4AC11-8521-476B-8B52-54F023F880B1";
shapes = (
{
closed = 1;
nodes = (
(258,0,l),
(258,615,l),
(206,562,l),
(688,562,l),
(688,710,l),
(58,710,l),
(58,0,l)
);
},
{
closed = 1;
nodes = (
(666,266,l),
(666,408,l),
(149,408,l),
(149,266,l)
);
}
);
width = 715;
}
);
note = F;
unicode = 70;
},
{
glyphname = G;
kernLeft = O;
kernRight = G;
lastChange = "2023-10-17 00:48:53 +0000";
layers = (
{
anchors = (
{
name = bottom;
pos = (370,0);
},
{
name = top;
pos = (362,710);
}
);
background = {
shapes = (
{
closed = 1;
nodes = (
(557,-12,o),
(643,142,o),
(643,318,cs),
(643,357,l),
(355,357,l),
(355,286,l),
(600,286,l),
(561,315,l),
(567,195,o),
(513,64,o),
(356,64,cs),
(199,64,o),
(122,190,o),
(122,352,cs),
(122,524,o),
(206,647,o),
(356,647,cs),
(461,647,o),
(524,586,o),
(545,488,c),
(629,488,l),
(608,624,o),
(508,722,o),
(354,722,cs),
(157,722,o),
(36,566,o),
(36,351,cs),
(36,145,o),
(150,-12,o),
(355,-12,cs)
);
}
);
};
layerId = "E39CE873-C6CB-4040-8FBA-1D86B139B3E5";
shapes = (
{
closed = 1;
nodes = (
(479,-12,o),
(560,57,o),
(583,146,c),
(564,146,l),
(574,0,l),
(646,0,l),
(646,353,l),
(364,353,l),
(364,284,l),
(566,284,l),
(566,263,ls),
(566,137,o),
(491,57,o),
(363,57,cs),
(224,57,o),
(135,172,o),
(135,335,cs),
(135,375,ls),
(135,538,o),
(224,653,o),
(363,653,cs),
(464,653,o),
(538,596,o),
(560,465,c),
(641,468,l),
(622,620,o),
(523,722,o),
(361,722,cs),
(167,722,o),
(45,569,o),
(45,354,cs),
(45,140,o),
(164,-12,o),
(355,-12,cs)
);
}
);
width = 709;
},
{
anchors = (
{
name = bottom;
pos = (355,0);
},
{
name = top;
pos = (358,710);
}
);
background = {
anchors = (
{
name = bottom;
pos = (356,0);
},
{
name = top;
pos = (356,691);
}
);
shapes = (
{
closed = 1;
nodes = (
(575,-12,o),
(680,142,o),
(680,336,cs),
(680,393,l),
(346,393,l),
(346,260,l),
(529,260,l),
(505,290,l),
(502,210,o),
(462,142,o),
(372,142,cs),
(261,142,o),
(207,232,o),
(207,354,cs),
(207,478,o),
(263,569,o),
(364,569,cs),
(432,569,o),
(472,528,o),
(487,473,c),
(667,473,l),
(646,617,o),
(530,722,o),
(359,722,cs),
(149,722,o),
(26,565,o),
(26,353,cs),
(26,144,o),
(148,-12,o),
(362,-12,cs)
);
}
);
};
layerId = "7F29FB76-5474-4FBC-BDD6-396388860F4A";
shapes = (
{
closed = 1;
nodes = (
(438,-12,o),
(538,56,o),
(556,182,c),
(490,182,l),
(521,0,l),
(661,0,l),
(661,386,l),
(350,386,l),
(350,253,l),
(486,253,l),
(486,248,ls),
(486,171,o),
(425,130,o),
(360,130,cs),
(263,130,o),
(211,212,o),
(211,334,cs),
(211,376,ls),
(211,502,o),
(267,582,o),
(357,582,cs),
(427,582,o),
(464,538,o),
(477,461,c),
(654,464,l),
(633,616,o),
(530,722,o),
(356,722,cs),
(157,722,o),
(30,579,o),
(30,355,cs),
(30,109,o),
(154,-12,o),
(327,-12,cs)
);
}
);
width = 703;
},
{
anchors = (
{
name = bottom;
pos = (216,0);
},
{
name = top;
pos = (213,710);
}
);
layerId = "C91C925B-D0D7-4075-AF07-39B2B48BEC27";
shapes = (
{
closed = 1;
nodes = (
(253,-12,o),
(307,12,o),
(331,123,c),
(315,128,l),
(327,0,l),
(377,0,l),
(377,359,l),
(201,359,l),
(201,299,l),
(312,299,l),
(312,248,ls),
(312,105,o),
(270,49,o),
(211,49,cs),
(150,49,o),
(107,120,o),
(107,306,cs),
(107,404,ls),
(107,590,o),
(149,661,o),
(213,661,cs),
(274,661,o),
(302,600,o),
(309,459,c),
(372,462,l),
(369,647,o),
(310,722,o),
(213,722,cs),
(109,722,o),
(36,639,o),
(36,355,cs),
(36,75,o),
(103,-12,o),
(199,-12,cs)
);
}
);
width = 421;
},
{
anchors = (
{
name = bottom;
pos = (260,0);
},
{
name = top;
pos = (248,710);
}
);
layerId = "B6DC6C93-7E5A-4350-AC8D-F1BB3AE9B4CB";
shapes = (
{
closed = 1;
nodes = (
(272,-12,o),
(318,11,o),
(356,124,c),
(323,132,l),
(340,0,l),
(456,0,l),
(456,393,l),
(240,393,l),
(240,267,l),
(312,267,l),
(312,220,ls),
(312,146,o),
(292,113,o),
(253,113,cs),
(210,113,o),
(187,145,o),
(187,318,cs),
(187,392,ls),
(187,565,o),
(210,597,o),
(251,597,cs),
(290,597,o),
(307,560,o),
(310,446,c),
(457,450,l),
(455,654,o),
(365,722,o),
(248,722,cs),
(108,722,o),
(25,635,o),
(25,355,cs),
(25,78,o),
(96,-12,o),
(206,-12,cs)
);
}
);
width = 489;
},
{
anchors = (
{
name = bottom;
pos = (461,0);
},
{
name = top;
pos = (447,710);
}
);
background = {
shapes = (
{
closed = 1;
nodes = (
(593,-12,o),
(679,142,o),
(679,318,cs),
(679,357,l),
(391,357,l),
(391,286,l),
(636,286,l),
(597,315,l),
(603,195,o),
(549,64,o),
(392,64,cs),
(235,64,o),
(158,190,o),
(158,352,cs),
(158,524,o),
(242,647,o),
(392,647,cs),
(497,647,o),
(560,586,o),
(581,488,c),
(665,488,l),
(644,624,o),
(544,722,o),
(390,722,cs),
(193,722,o),
(72,566,o),
(72,351,cs),
(72,145,o),
(186,-12,o),
(391,-12,cs)
);
}
);
};
layerId = "AD0154C7-7101-4C76-975C-BE8A541C5FBC";
shapes = (
{
closed = 1;
nodes = (
(569,-12,o),
(698,21,o),
(760,147,c),
(721,146,l),
(731,0,l),
(809,0,l),
(809,356,l),
(424,356,l),
(424,281,l),
(723,281,l),
(723,264,ls),
(723,104,o),
(586,63,o),
(458,63,cs),
(265,63,o),
(144,177,o),
(144,345,cs),
(144,365,ls),
(144,533,o),
(258,647,o),
(437,647,cs),
(572,647,o),
(676,601,o),
(730,477,c),
(806,504,l),
(741,664,o),
(598,722,o),
(444,722,cs),
(207,722,o),
(48,569,o),
(48,354,cs),
(48,140,o),
(201,-12,o),
(451,-12,cs)
);
}
);
width = 877;
},
{
anchors = (
{
name = bottom;
pos = (479,0);
},
{
name = top;
pos = (478,710);
}
);
background = {
anchors = (
{
name = bottom;
pos = (381,0);
},
{
name = top;
pos = (381,691);
}
);
shapes = (
{
closed = 1;
nodes = (
(600,-12,o),
(705,142,o),
(705,336,cs),
(705,393,l),
(371,393,l),
(371,260,l),
(554,260,l),
(530,290,l),
(527,210,o),
(487,142,o),
(397,142,cs),
(286,142,o),
(232,232,o),
(232,354,cs),
(232,478,o),
(288,569,o),
(389,569,cs),
(457,569,o),
(497,528,o),
(512,473,c),
(692,473,l),
(671,617,o),
(555,722,o),
(384,722,cs),
(174,722,o),
(51,565,o),
(51,353,cs),
(51,144,o),
(173,-12,o),
(387,-12,cs)
);
}
);
};
layerId = "E5B4AC11-8521-476B-8B52-54F023F880B1";
shapes = (
{
closed = 1;
nodes = (
(611,-13,o),
(758,47,o),
(801,182,c),
(712,182,l),
(733,0,l),
(892,0,l),
(892,404,l),
(452,404,l),
(452,266,l),
(708,266,l),
(708,259,ls),
(708,181,o),
(619,137,o),
(495,137,cs),
(342,137,o),
(233,208,o),
(233,345,cs),
(233,365,ls),
(233,502,o),
(341,569,o),
(477,569,cs),
(575,569,o),
(658,548,o),
(699,450,c),
(878,493,l),
(840,625,o),
(700,721,o),
(474,721,cs),
(215,721,o),
(31,579,o),
(31,355,cs),
(31,131,o),
(208,-13,o),
(458,-13,cs)
);
}
);
width = 939;
}
);
note = G;
unicode = 71;
},
{
glyphname = H;
kernLeft = H;
kernRight = H;
lastChange = "2023-10-17 00:48:53 +0000";
layers = (
{
anchors = (
{
name = bottom;
pos = (342,0);
},
{
name = center;
pos = (342,355);
},
{
name = top;
pos = (342,710);
},
{
name = topleft;
pos = (20,710);
}
);
background = {
anchors = (
{
name = bottom;
pos = (354,0);
},
{
name = center;
pos = (354,513);
},
{
name = top;
pos = (354,720);
},
{
name = topleft;
pos = (3,720);
}
);
shapes = (
{
closed = 1;
nodes = (
(71,720,l),
(71,0,l),
(153,0,l),
(153,720,l)
);
},
{
closed = 1;
nodes = (
(554,720,l),
(554,0,l),
(636,0,l),
(636,720,l)
);
},
{
closed = 1;
nodes = (
(142,401,l),
(142,329,l),
(563,329,l),
(563,401,l)
);
}
);
};
layerId = "E39CE873-C6CB-4040-8FBA-1D86B139B3E5";
shapes = (
{
closed = 1;
nodes = (
(606,0,l),
(606,710,l),
(520,710,l),
(520,0,l)
);
},
{
closed = 1;
nodes = (
(164,0,l),
(164,710,l),
(78,710,l),
(78,0,l)
);
},
{
closed = 1;
nodes = (
(539,323,l),
(539,393,l),
(143,393,l),
(143,323,l)
);
}
);
width = 684;
},
{
anchors = (
{
name = bottom;
pos = (348,0);
},
{
name = center;
pos = (348,355);
},
{
name = top;
pos = (348,710);
},
{
name = topleft;
pos = (15,710);
}
);
layerId = "7F29FB76-5474-4FBC-BDD6-396388860F4A";
shapes = (
{
closed = 1;
nodes = (
(645,0,l),
(645,710,l),
(465,710,l),
(465,0,l)
);
},
{
closed = 1;
nodes = (
(231,0,l),
(231,710,l),
(51,710,l),
(51,0,l)
);
},
{
closed = 1;
nodes = (
(560,285,l),
(560,428,l),
(135,428,l),
(135,285,l)
);
}
);
width = 696;
},
{
anchors = (
{
name = bottom;
pos = (205,0);
},
{
name = center;
pos = (205,355);
},
{
name = top;
pos = (205,710);
},
{
name = topleft;
pos = (4,710);
}
);
layerId = "C91C925B-D0D7-4075-AF07-39B2B48BEC27";
shapes = (
{
closed = 1;
nodes = (
(366,0,l),
(366,710,l),
(296,710,l),
(296,0,l)
);
},
{
closed = 1;
nodes = (
(122,0,l),
(122,710,l),
(52,710,l),
(52,0,l)
);
},
{
closed = 1;
nodes = (
(315,329,l),
(314,389,l),
(104,389,l),
(105,329,l)
);
}
);
width = 418;
},
{
anchors = (
{
name = bottom;
pos = (250,0);
},
{
name = center;
pos = (250,355);
},
{
name = top;
pos = (250,710);
},
{
name = topleft;
pos = (21,710);
}
);
layerId = "B6DC6C93-7E5A-4350-AC8D-F1BB3AE9B4CB";
shapes = (
{
closed = 1;
nodes = (
(462,0,l),
(462,710,l),
(304,710,l),
(304,0,l)
);
},
{
closed = 1;
nodes = (
(195,0,l),
(195,710,l),
(37,710,l),
(37,0,l)
);
},
{
closed = 1;
nodes = (
(365,290,l),
(365,423,l),
(134,423,l),
(134,290,l)
);
}
);
width = 499;
},
{
anchors = (
{
name = bottom;
pos = (433,0);
},
{
name = center;
pos = (433,355);
},
{
name = top;
pos = (433,710);
},
{
name = topleft;
pos = (33,710);
}
);
background = {
anchors = (
{
name = bottom;
pos = (381,0);
},
{
name = center;
pos = (381,513);
},
{
name = top;
pos = (381,720);
},
{
name = topleft;
pos = (30,720);
}
);
shapes = (
{
closed = 1;
nodes = (
(98,720,l),
(98,0,l),
(180,0,l),
(180,720,l)
);
},
{
closed = 1;
nodes = (
(581,720,l),
(581,0,l),
(663,0,l),
(663,720,l)
);
},
{
closed = 1;
nodes = (
(169,401,l),
(169,329,l),
(590,329,l),
(590,401,l)
);
}
);
};
layerId = "AD0154C7-7101-4C76-975C-BE8A541C5FBC";
shapes = (
{
closed = 1;
nodes = (
(780,0,l),
(780,710,l),
(685,710,l),
(685,0,l)
);
},
{
closed = 1;
nodes = (
(180,0,l),
(180,710,l),
(85,710,l),
(85,0,l)
);
},
{
closed = 1;
nodes = (
(710,322,l),
(710,397,l),
(155,397,l),
(155,322,l)
);
}
);
width = 865;
},
{
anchors = (
{
name = bottom;
pos = (437,0);
},
{
name = center;
pos = (437,355);
},
{
name = top;
pos = (437,710);
},
{
name = topleft;
pos = (24,710);
}
);
layerId = "E5B4AC11-8521-476B-8B52-54F023F880B1";
shapes = (
{
closed = 1;
nodes = (
(816,0,l),
(816,710,l),
(616,710,l),
(616,0,l)
);
},
{
closed = 1;
nodes = (
(258,0,l),
(258,710,l),
(58,710,l),
(58,0,l)
);
},
{
closed = 1;
nodes = (
(725,281,l),
(725,429,l),
(149,429,l),
(149,281,l)
);
}
);
width = 874;
}
);
note = H;
unicode = 72;
},
{
glyphname = Hbar;
kernLeft = H;
kernRight = H;
lastChange = "2023-10-17 00:48:53 +0000";
layers = (
{
layerId = "E39CE873-C6CB-4040-8FBA-1D86B139B3E5";
shapes = (
{
closed = 1;
nodes = (
(618,0,l),
(618,710,l),
(532,710,l),
(532,0,l)
);
},
{
closed = 1;
nodes = (
(176,0,l),
(176,710,l),
(90,710,l),
(90,0,l)
);
},
{
closed = 1;
nodes = (
(551,291,l),
(551,361,l),
(155,361,l),
(155,291,l)
);
},
{
closed = 1;
nodes = (
(676,484,l),
(676,550,l),
(32,550,l),
(32,484,l)
);
}
);
width = 708;
},
{
layerId = "7F29FB76-5474-4FBC-BDD6-396388860F4A";
shapes = (
{
closed = 1;
nodes = (
(662,0,l),
(662,710,l),
(482,710,l),
(482,0,l)
);
},
{
closed = 1;
nodes = (
(248,0,l),
(248,710,l),
(68,710,l),
(68,0,l)
);
},
{
closed = 1;
nodes = (
(577,233,l),
(577,376,l),
(152,376,l),
(152,233,l)
);
},
{
closed = 1;
nodes = (
(708,465,l),
(708,582,l),
(22,582,l),
(22,465,l)
);
}
);
width = 730;
},
{
layerId = "C91C925B-D0D7-4075-AF07-39B2B48BEC27";
shapes = (
{
closed = 1;
nodes = (
(389,0,l),
(389,710,l),
(319,710,l),
(319,0,l)
);
},
{
closed = 1;
nodes = (
(138,0,l),
(138,710,l),
(68,710,l),
(68,0,l)
);
},
{
closed = 1;
nodes = (
(337,298,l),
(337,360,l),
(120,360,l),
(120,298,l)
);
},
{
closed = 1;
nodes = (
(449,492,l),
(449,548,l),
(8,548,l),
(8,492,l)
);
}
);
width = 457;
},
{
layerId = "B6DC6C93-7E5A-4350-AC8D-F1BB3AE9B4CB";
shapes = (
{
closed = 1;
nodes = (
(487,0,l),
(487,710,l),
(329,710,l),
(329,0,l)
);
},
{
closed = 1;
nodes = (
(220,0,l),
(220,710,l),
(62,710,l),
(62,0,l)
);
},
{
closed = 1;
nodes = (
(390,234,l),
(390,367,l),
(159,367,l),
(159,234,l)
);
},
{
closed = 1;
nodes = (
(533,468,l),
(533,577,l),
(16,577,l),
(16,468,l)
);
}
);
width = 549;
},
{
layerId = "AD0154C7-7101-4C76-975C-BE8A541C5FBC";
shapes = (
{
closed = 1;
nodes = (
(791,0,l),
(791,710,l),
(696,710,l),
(696,0,l)
);
},
{
closed = 1;
nodes = (
(191,0,l),
(191,710,l),
(96,710,l),
(96,0,l)
);
},
{
closed = 1;
nodes = (
(721,289,l),
(721,364,l),
(166,364,l),
(166,289,l)
);
},
{
closed = 1;
nodes = (
(849,486,l),
(849,552,l),
(38,552,l),
(38,486,l)
);
}
);
width = 887;
},
{
layerId = "E5B4AC11-8521-476B-8B52-54F023F880B1";
shapes = (
{
closed = 1;
nodes = (
(845,0,l),
(845,710,l),
(645,710,l),
(645,0,l)
);
},
{
closed = 1;
nodes = (
(287,0,l),
(287,710,l),
(87,710,l),
(87,0,l)
);
},
{
closed = 1;
nodes = (
(754,231,l),
(754,379,l),
(178,379,l),
(178,231,l)
);
},
{
closed = 1;
nodes = (
(909,463,l),
(909,587,l),
(23,587,l),
(23,463,l)
);
}
);
width = 932;
}
);
unicode = 294;
},
{
glyphname = I;
kernLeft = H;
kernRight = H;
lastChange = "2023-10-17 00:48:53 +0000";
layers = (
{
anchors = (
{
name = bottom;
pos = (121,0);
},
{
name = ogonek;
pos = (164,0);
},
{
name = top;
pos = (121,710);
},
{
name = topleft;
pos = (20,710);
}
);
background = {
anchors = (
{
name = bottom;
pos = (109,0);
},
{
name = ogonek;
pos = (150,0);
},
{
name = top;
pos = (109,720);
},
{
name = topleft;
pos = (0,720);
}
);
shapes = (
{
closed = 1;
nodes = (
(68,720,l),
(68,0,l),
(150,0,l),
(150,720,l)
);
}
);
};
layerId = "E39CE873-C6CB-4040-8FBA-1D86B139B3E5";
shapes = (
{
closed = 1;
nodes = (
(164,0,l),
(164,710,l),
(78,710,l),
(78,0,l)
);
}
);
width = 242;
},
{
anchors = (
{
name = bottom;
pos = (141,0);
},
{
name = ogonek;
pos = (205,0);
},
{
name = top;
pos = (141,710);
},
{
name = topleft;
pos = (15,710);
}
);
layerId = "7F29FB76-5474-4FBC-BDD6-396388860F4A";
shapes = (
{
closed = 1;
nodes = (
(231,0,l),
(231,710,l),
(51,710,l),
(51,0,l)
);
}
);
width = 282;
},
{
anchors = (
{
name = bottom;
pos = (88,0);
},
{
name = ogonek;
pos = (122,0);
},
{
name = top;
pos = (88,710);
},
{
name = topleft;
pos = (28,710);
}
);
layerId = "C91C925B-D0D7-4075-AF07-39B2B48BEC27";
shapes = (
{
closed = 1;
nodes = (
(122,0,l),
(122,710,l),
(52,710,l),
(52,0,l)
);
}
);
width = 174;
},
{
anchors = (
{
name = bottom;
pos = (116,0);
},
{
name = ogonek;
pos = (171,0);
},
{
name = top;
pos = (116,710);
},
{
name = topleft;
pos = (21,710);
}
);
layerId = "B6DC6C93-7E5A-4350-AC8D-F1BB3AE9B4CB";
shapes = (
{
closed = 1;
nodes = (
(195,0,l),
(195,710,l),
(37,710,l),
(37,0,l)
);
}
);
width = 232;
},
{
anchors = (
{
name = bottom;
pos = (133,0);
},
{
name = ogonek;
pos = (180,0);
},
{
name = top;
pos = (133,710);
},
{
name = topleft;
pos = (47,710);
}
);
background = {
anchors = (
{
name = bottom;
pos = (115,0);
},
{
name = ogonek;
pos = (156,0);
},
{
name = top;
pos = (115,720);
},
{
name = topleft;
pos = (6,720);
}
);
shapes = (
{
closed = 1;
nodes = (
(74,720,l),
(74,0,l),
(156,0,l),
(156,720,l)
);
}
);
};
layerId = "AD0154C7-7101-4C76-975C-BE8A541C5FBC";
shapes = (
{
closed = 1;
nodes = (
(180,0,l),
(180,710,l),
(85,710,l),
(85,0,l)
);
}
);
width = 265;
},
{
anchors = (
{
name = bottom;
pos = (158,0);
},
{
name = ogonek;
pos = (235,0);
},
{
name = top;
pos = (158,710);
},
{
name = topleft;
pos = (30,710);
}
);
layerId = "E5B4AC11-8521-476B-8B52-54F023F880B1";
shapes = (
{
closed = 1;
nodes = (
(258,0,l),
(258,710,l),
(58,710,l),
(58,0,l)
);
}
);
width = 316;
}
);
note = I;
unicode = 73;
},
{
glyphname = IJ;
kernLeft = H;
kernRight = J;
lastChange = "2023-10-17 00:48:53 +0000";
layers = (
{
layerId = "E39CE873-C6CB-4040-8FBA-1D86B139B3E5";
shapes = (
{
closed = 1;
nodes = (
(366,-12,o),
(439,46,o),
(439,183,cs),
(439,710,l),
(353,710,l),
(353,170,ls),
(353,68,o),
(287,56,o),
(236,56,cs),
(207,56,o),
(173,62,o),
(129,72,c),
(129,4,l),
(177,-7,o),
(209,-12,o),
(244,-12,cs)
);
},
{
closed = 1;
nodes = (
(164,221,l),
(164,710,l),
(78,710,l),
(78,221,l)
);
}
);
width = 514;
},
{
layerId = "7F29FB76-5474-4FBC-BDD6-396388860F4A";
shapes = (
{
closed = 1;
nodes = (
(456,-12,o),
(553,65,o),
(553,223,cs),
(553,710,l),
(373,710,l),
(373,233,ls),
(373,161,o),
(341,134,o),
(247,134,cs),
(213,134,o),
(164,138,o),
(126,143,c),
(126,9,l),
(203,-8,o),
(252,-12,o),
(298,-12,cs)
);
},
{
closed = 1;
nodes = (
(231,246,l),
(231,710,l),
(51,710,l),
(51,246,l)
);
}
);
width = 600;
},
{
layerId = "C91C925B-D0D7-4075-AF07-39B2B48BEC27";
shapes = (
{
closed = 1;
nodes = (
(273,-12,o),
(326,25,o),
(326,130,cs),
(326,710,l),
(256,710,l),
(256,113,ls),
(256,61,o),
(219,47,o),
(181,47,cs),
(145,47,o),
(114,53,o),
(92,58,c),
(92,0,l),
(126,-8,o),
(154,-12,o),
(184,-12,cs)
);
},
{
closed = 1;
nodes = (
(122,207,l),
(122,710,l),
(52,710,l),
(52,207,l)
);
}
);
width = 373;
},
{
layerId = "B6DC6C93-7E5A-4350-AC8D-F1BB3AE9B4CB";
shapes = (
{
closed = 1;
nodes = (
(338,-12,o),
(442,37,o),
(442,185,cs),
(442,710,l),
(284,710,l),
(284,185,ls),
(284,131,o),
(249,118,o),
(188,118,cs),
(156,118,o),
(137,120,o),
(101,125,c),
(101,0,l),
(160,-9,o),
(193,-12,o),
(227,-12,cs)
);
},
{
closed = 1;
nodes = (
(195,216,l),
(195,710,l),
(37,710,l),
(37,216,l)
);
}
);
width = 477;
},
{
layerId = "AD0154C7-7101-4C76-975C-BE8A541C5FBC";
shapes = (
{
closed = 1;
nodes = (
(430,-12,o),
(540,50,o),
(540,213,cs),
(540,710,l),
(445,710,l),
(445,206,ls),
(445,105,o),
(381,70,o),
(286,70,cs),
(227,70,o),
(194,76,o),
(135,88,c),
(135,6,l),
(188,-6,o),
(227,-12,o),
(284,-12,cs)
);
},
{
closed = 1;
nodes = (
(180,236,l),
(180,710,l),
(85,710,l),
(85,236,l)
);
}
);
width = 620;
},
{
layerId = "E5B4AC11-8521-476B-8B52-54F023F880B1";
shapes = (
{
closed = 1;
nodes = (
(515,-12,o),
(647,61,o),
(647,260,cs),
(647,710,l),
(449,710,l),
(449,251,ls),
(449,154,o),
(378,144,o),
(300,144,cs),
(262,144,o),
(222,148,o),
(157,156,c),
(157,2,l),
(228,-8,o),
(267,-12,o),
(323,-12,cs)
);
},
{
closed = 1;
nodes = (
(258,277,l),
(258,710,l),
(58,710,l),
(58,277,l)
);
}
);
width = 699;
}
);
metricLeft = H;
metricRight = J;
unicode = 306;
},
{
glyphname = J;
kernLeft = J;
kernRight = J;
lastChange = "2023-10-17 00:48:53 +0000";
layers = (
{
anchors = (
{
name = bottom;
pos = (130,0);
},
{
name = top;
pos = (261,710);
}
);
background = {
anchors = (
{
name = bottom;
pos = (125,0);
},
{
name = top;
pos = (256,710);
}
);
shapes = (
{
closed = 1;
nodes = (
(228,-12,o),
(306,66,o),
(306,211,cs),
(306,710,l),
(220,710,l),
(220,212,ls),
(220,100,o),
(172,60,o),
(94,60,cs),
(22,60,o),
(-15,101,o),
(-28,179,c),
(-110,177,l),
(-96,55,o),
(-33,-12,o),
(93,-12,cs)
);
}
);
};
layerId = "E39CE873-C6CB-4040-8FBA-1D86B139B3E5";
shapes = (
{
closed = 1;
nodes = (
(241,-12,o),
(311,51,o),
(311,185,cs),
(311,710,l),
(225,710,l),
(225,174,ls),
(225,79,o),
(172,56,o),
(117,56,cs),
(88,56,o),
(56,63,o),
(21,72,c),
(21,4,l),
(60,-7,o),
(90,-12,o),
(125,-12,cs)
);
}
);
width = 386;
},
{
anchors = (
{
name = bottom;
pos = (136,0);
},
{
name = top;
pos = (272,710);
}
);
background = {
shapes = (
{
closed = 1;
nodes = (
(266,-12,o),
(364,76,o),
(364,243,cs),
(364,710,l),
(184,710,l),
(184,236,ls),
(184,177,o),
(172,134,o),
(107,134,cs),
(58,134,o),
(30,161,o),
(26,222,c),
(-148,219,l),
(-143,72,o),
(-49,-12,o),
(106,-12,cs)
);
}
);
};
layerId = "7F29FB76-5474-4FBC-BDD6-396388860F4A";
shapes = (
{
closed = 1;
nodes = (
(281,-12,o),
(368,65,o),
(368,213,cs),
(368,710,l),
(188,710,l),
(188,219,ls),
(188,161,o),
(171,134,o),
(99,134,cs),
(75,134,o),
(40,138,o),
(14,143,c),
(14,9,l),
(67,-8,o),
(105,-12,o),
(142,-12,cs)
);
}
);
width = 415;
},
{
anchors = (
{
name = bottom;
pos = (87,0);
},
{
name = top;
pos = (177,710);
}
);
layerId = "C91C925B-D0D7-4075-AF07-39B2B48BEC27";
shapes = (
{
closed = 1;
nodes = (
(168,-12,o),
(214,24,o),
(214,122,cs),
(214,710,l),
(144,710,l),
(144,115,ls),
(144,63,o),
(123,47,o),
(81,47,cs),
(52,47,o),
(33,53,o),
(15,58,c),
(15,0,l),
(44,-8,o),
(66,-12,o),
(91,-12,cs)
);
}
);
width = 261;
},
{
anchors = (
{
name = bottom;
pos = (111,0);
},
{
name = top;
pos = (220,710);
}
);
layerId = "B6DC6C93-7E5A-4350-AC8D-F1BB3AE9B4CB";
shapes = (
{
closed = 1;
nodes = (
(206,-12,o),
(304,37,o),
(304,192,cs),
(304,710,l),
(146,710,l),
(146,190,ls),
(146,136,o),
(113,118,o),
(75,118,cs),
(51,118,o),
(37,120,o),
(10,125,c),
(10,0,l),
(51,-9,o),
(80,-12,o),
(109,-12,cs)
);
}
);
width = 339;
},
{
anchors = (
{
name = bottom;
pos = (160,0);
},
{
name = top;
pos = (374,710);
}
);
background = {
shapes = (
{
closed = 1;
nodes = (
(303,-12,o),
(421,71,o),
(421,257,cs),
(421,710,l),
(326,710,l),
(326,248,ls),
(326,109,o),
(244,63,o),
(127,63,cs),
(18,63,o),
(-50,111,o),
(-89,233,c),
(-171,206,l),
(-130,57,o),
(-32,-12,o),
(131,-12,cs)
);
}
);
};
layerId = "AD0154C7-7101-4C76-975C-BE8A541C5FBC";
shapes = (
{
closed = 1;
nodes = (
(319,-12,o),
(429,50,o),
(429,213,cs),
(429,710,l),
(334,710,l),
(334,206,ls),
(334,105,o),
(270,70,o),
(175,70,cs),
(116,70,o),
(83,76,o),
(24,88,c),
(24,6,l),
(77,-6,o),
(116,-12,o),
(173,-12,cs)
);
}
);
width = 509;
},
{
anchors = (
{
name = bottom;
pos = (129,0);
},
{
name = top;
pos = (373,710);
}
);
background = {
shapes = (
{
closed = 1;
nodes = (
(325,-12,o),
(468,74,o),
(468,284,cs),
(468,710,l),
(273,710,l),
(273,293,ls),
(273,199,o),
(233,140,o),
(130,140,cs),
(47,140,o),
(-4,170,o),
(-36,271,c),
(-206,218,l),
(-163,44,o),
(-35,-12,o),
(126,-12,cs)
);
}
);
};
layerId = "E5B4AC11-8521-476B-8B52-54F023F880B1";
shapes = (
{
closed = 1;
nodes = (
(366,-12,o),
(475,61,o),
(475,260,cs),
(475,710,l),
(277,710,l),
(277,244,ls),
(277,157,o),
(211,144,o),
(137,144,cs),
(103,144,o),
(68,148,o),
(17,156,c),
(17,2,l),
(78,-8,o),
(116,-12,o),
(171,-12,cs)
);
}
);
width = 527;
}
);
note = J;
unicode = 74;
},
{
glyphname = K;
kernLeft = H;
kernRight = K;
lastChange = "2023-10-17 00:48:53 +0000";
layers = (
{
anchors = (
{
name = bottom;
pos = (328,0);
},
{
name = top;
pos = (320,710);
}
);
background = {
anchors = (
{
name = bottom;
pos = (327,0);
},
{
name = top;
pos = (327,720);
}
);
shapes = (
{
closed = 1;
nodes = (
(288,369,l),
(319,397,l),
(633,720,l),
(537,720,l),
(122,297,l),
(123,200,l)
);
},
{
closed = 1;
nodes = (
(150,0,l),
(150,720,l),
(68,720,l),
(68,0,l)
);
},
{
closed = 1;
nodes = (
(643,0,l),
(316,424,l),
(242,385,l),
(540,0,l)
);
}
);
};
guides = (
{
angle = 357.2265;
pos = (411,502);
}
);
layerId = "E39CE873-C6CB-4040-8FBA-1D86B139B3E5";
shapes = (
{
closed = 1;
nodes = (
(285,362,l),
(315,389,l),
(605,710,l),
(506,710,l),
(130,292,l),
(127,187,l)
);
},
{
closed = 1;
nodes = (
(164,0,l),
(164,710,l),
(78,710,l),
(78,0,l)
);
},
{
closed = 1;
nodes = (
(614,0,l),
(317,420,l),
(247,377,l),
(510,0,l)
);
}
);
width = 613;
},
{
anchors = (
{
name = bottom;
pos = (348,0);
},
{
name = top;
pos = (340,710);
}
);
guides = (
{
angle = 341.8159;
pos = (430,431);
}
);
layerId = "7F29FB76-5474-4FBC-BDD6-396388860F4A";
shapes = (
{
closed = 1;
nodes = (
(353,342,l),
(374,342,l),
(670,710,l),
(465,710,l),
(123,281,l),
(123,56,l)
);
},
{
closed = 1;
nodes = (
(231,0,l),
(231,710,l),
(51,710,l),
(51,0,l)
);
},
{
closed = 1;
nodes = (
(674,0,l),
(393,463,l),
(273,324,l),
(461,0,l)
);
}
);
width = 663;
},
{
anchors = (
{
name = bottom;
pos = (205,0);
},
{
name = top;
pos = (195,710);
}
);
layerId = "C91C925B-D0D7-4075-AF07-39B2B48BEC27";
shapes = (
{
closed = 1;
nodes = (
(194,356,l),
(207,356,l),
(358,710,l),
(290,710,l),
(79,221,l),
(110,160,l)
);
},
{
closed = 1;
nodes = (
(122,0,l),
(122,710,l),
(52,710,l),
(52,0,l)
);
},
{
closed = 1;
nodes = (
(371,0,l),
(223,438,l),
(167,406,l),
(297,0,l)
);
}
);
width = 376;
},
{
anchors = (
{
name = bottom;
pos = (253,0);
},
{
name = top;
pos = (246,710);
}
);
layerId = "B6DC6C93-7E5A-4350-AC8D-F1BB3AE9B4CB";
shapes = (
{
closed = 1;
nodes = (
(254,359,l),
(299,341,l),
(458,710,l),
(306,710,l),
(136,207,l),
(189,168,l)
);
},
{
closed = 1;
nodes = (
(193,0,l),
(193,710,l),
(37,710,l),
(37,0,l)
);
},
{
closed = 1;
nodes = (
(462,0,l),
(335,476,l),
(208,400,l),
(302,0,l)
);
}
);
width = 462;
},
{
anchors = (
{
name = bottom;
pos = (408,0);
},
{
name = top;
pos = (406,710);
}
);
background = {
anchors = (
{
name = bottom;
pos = (336,0);
},
{
name = top;
pos = (336,720);
}
);
shapes = (
{
closed = 1;
nodes = (
(297,369,l),
(328,397,l),
(642,720,l),
(546,720,l),
(131,297,l),
(132,200,l)
);
},
{
closed = 1;
nodes = (
(159,0,l),
(159,720,l),
(77,720,l),
(77,0,l)
);
},
{
closed = 1;
nodes = (
(652,0,l),
(325,424,l),
(251,385,l),
(549,0,l)
);
}
);
};
guides = (
{
angle = 356.5532;
pos = (417,502);
}
);
layerId = "AD0154C7-7101-4C76-975C-BE8A541C5FBC";
shapes = (
{
closed = 1;
nodes = (
(370,371,l),
(394,389,l),
(772,710,l),
(653,710,l),
(160,292,l),
(159,191,l)
);
},
{
closed = 1;
nodes = (
(180,0,l),
(180,710,l),
(85,710,l),
(85,0,l)
);
},
{
closed = 1;
nodes = (
(775,0,l),
(399,423,l),
(323,377,l),
(655,0,l)
);
}
);
width = 775;
},
{
anchors = (
{
name = bottom;
pos = (422,0);
},
{
name = top;
pos = (422,710);
}
);
layerId = "E5B4AC11-8521-476B-8B52-54F023F880B1";
shapes = (
{
closed = 1;
nodes = (
(440,356,l),
(474,373,l),
(826,710,l),
(582,710,l),
(142,287,l),
(142,72,l)
);
},
{
closed = 1;
nodes = (
(258,0,l),
(258,710,l),
(58,710,l),
(58,0,l)
);
},
{
closed = 1;
nodes = (
(829,0,l),
(490,461,l),
(344,343,l),
(589,0,l)
);
}
);
width = 816;
}
);
note = K;
unicode = 75;
},
{
glyphname = L;
kernLeft = H;
kernRight = L;
lastChange = "2023-10-17 00:48:53 +0000";
layers = (
{
anchors = (
{
name = bottom;
pos = (265,0);
},
{
name = center;
pos = (265,355);
},
{
name = top;
pos = (120,710);
},
{
name = topright;
pos = (489,710);
}
);
background = {
anchors = (
{
name = bottom;
pos = (280,0);
},
{
name = center;
pos = (110,360);
},
{
name = top;
pos = (111,720);
},
{
name = topright;
pos = (536,720);
}
);
shapes = (
{
closed = 1;
nodes = (
(509,0,l),
(509,72,l),
(129,72,l),
(150,51,l),
(150,720,l),
(68,720,l),
(68,0,l)
);
}
);
};
layerId = "E39CE873-C6CB-4040-8FBA-1D86B139B3E5";
shapes = (
{
closed = 1;
nodes = (
(489,0,l),
(489,70,l),
(144,70,l),
(164,52,l),
(164,710,l),
(78,710,l),
(78,0,l)
);
}
);
width = 509;
},
{
anchors = (
{
name = bottom;
pos = (273,0);
},
{
name = center;
pos = (273,355);
},
{
name = top;
pos = (170,710);
},
{
name = topright;
pos = (521,710);
}
);
layerId = "7F29FB76-5474-4FBC-BDD6-396388860F4A";
shapes = (
{
closed = 1;
nodes = (
(521,0,l),
(521,136,l),
(202,136,l),
(231,112,l),
(231,710,l),
(51,710,l),
(51,0,l)
);
}
);
width = 534;
},
{
anchors = (
{
name = bottom;
pos = (167,0);
},
{
name = center;
pos = (162,353);
},
{
name = top;
pos = (88,710);
},
{
name = topright;
pos = (321,710);
}
);
layerId = "C91C925B-D0D7-4075-AF07-39B2B48BEC27";
shapes = (
{
closed = 1;
nodes = (
(331,0,l),
(331,60,l),
(106,60,l),
(122,31,l),
(122,710,l),
(52,710,l),
(52,0,l)
);
}
);
width = 346;
},
{
anchors = (
{
name = bottom;
pos = (196,0);
},
{
name = center;
pos = (324,395);
},
{
name = top;
pos = (129,710);
},
{
name = topright;
pos = (381,710);
}
);
layerId = "B6DC6C93-7E5A-4350-AC8D-F1BB3AE9B4CB";
shapes = (
{
closed = 1;
nodes = (
(391,0,l),
(391,132,l),
(172,132,l),
(195,104,l),
(195,710,l),
(37,710,l),
(37,0,l)
);
}
);
width = 401;
},
{
anchors = (
{
name = bottom;
pos = (360,0);
},
{
name = center;
pos = (360,355);
},
{
name = top;
pos = (133,710);
},
{
name = topright;
pos = (673,710);
}
);
background = {
anchors = (
{
name = bottom;
pos = (286,0);
},
{
name = center;
pos = (116,360);
},
{
name = top;
pos = (117,720);
},
{
name = topright;
pos = (542,720);
}
);
shapes = (
{
closed = 1;
nodes = (
(515,0,l),
(515,72,l),
(135,72,l),
(156,51,l),
(156,720,l),
(74,720,l),
(74,0,l)
);
}
);
};
layerId = "AD0154C7-7101-4C76-975C-BE8A541C5FBC";
shapes = (
{
closed = 1;
nodes = (
(671,0,l),
(671,75,l),
(155,75,l),
(180,41,l),
(180,710,l),
(85,710,l),
(85,0,l)
);
}
);
width = 693;
},
{
anchors = (
{
name = bottom;
pos = (355,0);
},
{
name = center;
pos = (355,355);
},
{
name = top;
pos = (161,710);
},
{
name = topright;
pos = (678,710);
}
);
layerId = "E5B4AC11-8521-476B-8B52-54F023F880B1";
shapes = (
{
closed = 1;
nodes = (
(684,0,l),
(684,148,l),
(206,148,l),
(258,95,l),
(258,710,l),
(58,710,l),
(58,0,l)
);
}
);
width = 700;
}
);
note = L;
unicode = 76;
},
{
glyphname = Lcaron;
kernLeft = H;
kernRight = L;
lastChange = "2023-10-17 00:48:53 +0000";
layers = (
{
layerId = "E39CE873-C6CB-4040-8FBA-1D86B139B3E5";
shapes = (
{
closed = 1;
nodes = (
(281,498,l),
(308,710,l),
(240,710,l),
(230,498,l)
);
},
{
ref = L;
}
);
width = 510;
},
{
layerId = "7F29FB76-5474-4FBC-BDD6-396388860F4A";
shapes = (
{
closed = 1;
nodes = (
(378,467,l),
(416,710,l),
(295,710,l),
(285,467,l)
);
},
{
ref = L;
}
);
width = 534;
},
{
layerId = "C91C925B-D0D7-4075-AF07-39B2B48BEC27";
shapes = (
{
closed = 1;
nodes = (
(211,518,l),
(235,710,l),
(175,710,l),
(165,518,l)
);
},
{
ref = L;
}
);
width = 346;
},
{
layerId = "B6DC6C93-7E5A-4350-AC8D-F1BB3AE9B4CB";
shapes = (
{
closed = 1;
nodes = (
(324,487,l),
(353,710,l),
(249,710,l),
(239,487,l)
);
},
{
ref = L;
}
);
width = 402;
},
{
layerId = "AD0154C7-7101-4C76-975C-BE8A541C5FBC";
shapes = (
{
closed = 1;
nodes = (
(311,478,l),
(338,710,l),
(260,710,l),
(248,478,l)
);
},
{
ref = L;
}
);
width = 693;
},
{
layerId = "E5B4AC11-8521-476B-8B52-54F023F880B1";
shapes = (
{
closed = 1;
nodes = (
(424,455,l),
(461,710,l),
(328,710,l),
(318,455,l)
);
},
{
ref = L;
}
);
width = 700;
}
);
unicode = 317;
},
{
glyphname = Lslash;
kernRight = L;
lastChange = "2023-10-17 00:48:53 +0000";
layers = (
{
layerId = "E39CE873-C6CB-4040-8FBA-1D86B139B3E5";
shapes = (
{
closed = 1;
nodes = (
(349,398,l),
(349,472,l),
(31,315,l),
(31,241,l)
);
},
{
pos = (45,0);
ref = L;
}
);
width = 555;
},
{
layerId = "7F29FB76-5474-4FBC-BDD6-396388860F4A";
shapes = (
{
closed = 1;
nodes = (
(412,387,l),
(412,531,l),
(26,311,l),
(26,167,l)
);
},
{
pos = (54,0);
ref = L;
}
);
width = 588;
},
{
layerId = "C91C925B-D0D7-4075-AF07-39B2B48BEC27";
shapes = (
{
closed = 1;
nodes = (
(236,391,l),
(236,457,l),
(15,321,l),
(15,255,l)
);
},
{
pos = (23,0);
ref = L;
}
);
width = 369;
},
{
layerId = "B6DC6C93-7E5A-4350-AC8D-F1BB3AE9B4CB";
shapes = (
{
closed = 1;
nodes = (
(334,381,l),
(334,514,l),
(16,354,l),
(16,221,l)
);
},
{
pos = (39,0);
ref = L;
}
);
width = 440;
},
{
layerId = "AD0154C7-7101-4C76-975C-BE8A541C5FBC";
shapes = (
{
closed = 1;
nodes = (
(459,427,l),
(459,501,l),
(30,278,l),
(30,204,l)
);
},
{
pos = (68,0);
ref = L;
}
);
width = 762;
},
{
layerId = "E5B4AC11-8521-476B-8B52-54F023F880B1";
shapes = (
{
closed = 1;
nodes = (
(505,382,l),
(505,538,l),
(30,331,l),
(30,175,l)
);
},
{
pos = (74,0);
ref = L;
}
);
width = 774;
}
);
unicode = 321;
},
{
glyphname = M;
kernLeft = H;
kernRight = H;
lastChange = "2023-10-17 00:48:53 +0000";
layers = (
{
anchors = (
{
name = bottom;
pos = (404,0);
},
{
name = top;
pos = (404,710);
}
);
background = {
anchors = (
{
name = bottom;
pos = (416,0);
},
{
name = top;
pos = (416,720);
}
);
shapes = (
{
closed = 1;
nodes = (
(147,0,l),
(147,626,l),
(149,626,l),
(377,0,l),
(453,0,l),
(681,626,l),
(683,626,l),
(683,0,l),
(765,0,l),
(765,720,l),
(640,720,l),
(419,113,l),
(417,113,l),
(196,720,l),
(66,720,l),
(66,0,l)
);
}
);
};
layerId = "E39CE873-C6CB-4040-8FBA-1D86B139B3E5";
shapes = (
{
closed = 1;
nodes = (
(160,0,l),
(160,612,l),
(162,612,l),
(365,0,l),
(440,0,l),
(643,612,l),
(645,612,l),
(645,0,l),
(729,0,l),
(729,710,l),
(603,710,l),
(406,116,l),
(405,116,l),
(208,710,l),
(78,710,l),
(78,0,l)
);
}
);
width = 807;
},
{
anchors = (
{
name = bottom;
pos = (435,0);
},
{
name = top;
pos = (435,710);
}
);
layerId = "7F29FB76-5474-4FBC-BDD6-396388860F4A";
shapes = (
{
closed = 1;
nodes = (
(219,0,l),
(219,466,l),
(221,466,l),
(368,0,l),
(489,0,l),
(636,466,l),
(638,466,l),
(638,0,l),
(818,0,l),
(818,710,l),
(575,710,l),
(435,256,l),
(434,256,l),
(294,710,l),
(51,710,l),
(51,0,l)
);
}
);
width = 869;
},
{
anchors = (
{
name = bottom;
pos = (275,0);
},
{
name = top;
pos = (275,710);
}
);
layerId = "C91C925B-D0D7-4075-AF07-39B2B48BEC27";
shapes = (
{
closed = 1;
nodes = (
(116,0,l),
(116,648,l),
(119,648,l),
(232,0,l),
(316,0,l),
(428,648,l),
(431,648,l),
(431,0,l),
(498,0,l),
(498,710,l),
(381,710,l),
(277,92,l),
(275,92,l),
(171,710,l),
(52,710,l),
(52,0,l)
);
}
);
width = 550;
},
{
anchors = (
{
name = bottom;
pos = (326,0);
},
{
name = top;
pos = (326,710);
}
);
layerId = "B6DC6C93-7E5A-4350-AC8D-F1BB3AE9B4CB";
shapes = (
{
closed = 1;
nodes = (
(172,0,l),
(172,564,l),
(176,564,l),
(249,0,l),
(394,0,l),
(467,565,l),
(471,564,l),
(471,0,l),
(610,0,l),
(610,710,l),
(382,710,l),
(329,190,l),
(326,190,l),
(273,710,l),
(39,710,l),
(36,0,l)
);
}
);
width = 647;
},
{
anchors = (
{
name = bottom;
pos = (562,0);
},
{
name = top;
pos = (562,710);
}
);
background = {
anchors = (
{
name = bottom;
pos = (730,0);
},
{
name = top;
pos = (730,720);
}
);
shapes = (
{
closed = 1;
nodes = (
(461,0,l),
(461,626,l),
(463,626,l),
(691,0,l),
(767,0,l),
(995,626,l),
(997,626,l),
(997,0,l),
(1079,0,l),
(1079,720,l),
(954,720,l),
(733,113,l),
(731,113,l),
(510,720,l),
(380,720,l),
(380,0,l)
);
}
);
};
layerId = "AD0154C7-7101-4C76-975C-BE8A541C5FBC";
shapes = (
{
closed = 1;
nodes = (
(175,0,l),
(175,608,l),
(177,608,l),
(517,0,l),
(600,0,l),
(940,608,l),
(943,608,l),
(943,0,l),
(1038,0,l),
(1038,710,l),
(902,710,l),
(560,99,l),
(563,99,l),
(221,710,l),
(85,710,l),
(85,0,l)
);
}
);
width = 1123;
},
{
anchors = (
{
name = bottom;
pos = (600,0);
},
{
name = top;
pos = (600,710);
}
);
layerId = "E5B4AC11-8521-476B-8B52-54F023F880B1";
shapes = (
{
closed = 1;
nodes = (
(244,0,l),
(244,526,l),
(245,526,l),
(501,0,l),
(684,0,l),
(940,526,l),
(941,526,l),
(941,0,l),
(1141,0,l),
(1141,710,l),
(837,710,l),
(599,217,l),
(598,217,l),
(360,710,l),
(58,710,l),
(58,0,l)
);
}
);
width = 1199;
}
);
note = M;
unicode = 77;
},
{
glyphname = N;
kernLeft = H;
kernRight = H;
lastChange = "2023-10-17 00:48:53 +0000";
layers = (
{
anchors = (
{
name = bottom;
pos = (334,0);
},
{
name = top;
pos = (334,710);
}
);
background = {
anchors = (
{
name = bottom;
pos = (344,0);
},
{
name = top;
pos = (344,720);
}
);
shapes = (
{
closed = 1;
nodes = (
(542,151,l),
(541,151,l),
(178,720,l),
(68,720,l),
(68,0,l),
(142,0,l),
(142,632,l),
(143,632,l),
(547,0,l),
(616,0,l),
(616,720,l),
(542,720,l)
);
}
);
};
layerId = "E39CE873-C6CB-4040-8FBA-1D86B139B3E5";
shapes = (
{
closed = 1;
nodes = (
(154,0,l),
(154,617,l),
(155,617,l),
(518,0,l),
(590,0,l),
(590,710,l),
(514,710,l),
(514,154,l),
(513,154,l),
(186,710,l),
(78,710,l),
(78,0,l)
);
}
);
width = 668;
},
{
anchors = (
{
name = bottom;
pos = (346,0);
},
{
name = top;
pos = (346,710);
}
);
layerId = "7F29FB76-5474-4FBC-BDD6-396388860F4A";
shapes = (
{
closed = 1;
nodes = (
(216,0,l),
(216,441,l),
(217,441,l),
(495,0,l),
(641,0,l),
(641,710,l),
(476,710,l),
(476,327,l),
(475,327,l),
(232,710,l),
(51,710,l),
(51,0,l)
);
}
);
width = 692;
},
{
anchors = (
{
name = bottom;
pos = (203,0);
},
{
name = top;
pos = (203,710);
}
);
layerId = "C91C925B-D0D7-4075-AF07-39B2B48BEC27";
shapes = (
{
closed = 1;
nodes = (
(116,0,l),
(116,554,l),
(117,554,l),
(293,0,l),
(354,0,l),
(354,710,l),
(290,710,l),
(290,212,l),
(289,212,l),
(132,710,l),
(52,710,l),
(52,0,l)
);
}
);
width = 406;
},
{
anchors = (
{
name = bottom;
pos = (239,0);
},
{
name = top;
pos = (239,710);
}
);
layerId = "B6DC6C93-7E5A-4350-AC8D-F1BB3AE9B4CB";
shapes = (
{
closed = 1;
nodes = (
(169,0,l),
(169,383,l),
(170,383,l),
(303,0,l),
(440,0,l),
(440,710,l),
(308,710,l),
(308,344,l),
(307,344,l),
(183,710,l),
(37,710,l),
(37,0,l)
);
}
);
width = 477;
},
{
anchors = (
{
name = bottom;
pos = (420,0);
},
{
name = top;
pos = (420,710);
}
);
background = {
anchors = (
{
name = bottom;
pos = (350,0);
},
{
name = top;
pos = (350,720);
}
);
shapes = (
{
pos = (-14,0);
ref = H;
}
);
};
layerId = "AD0154C7-7101-4C76-975C-BE8A541C5FBC";
shapes = (
{
closed = 1;
nodes = (
(175,0,l),
(175,593,l),
(176,593,l),
(682,0,l),
(754,0,l),
(754,710,l),
(664,710,l),
(664,159,l),
(663,159,l),
(193,710,l),
(85,710,l),
(85,0,l)
);
}
);
width = 839;
},
{
anchors = (
{
name = bottom;
pos = (424,0);
},
{
name = top;
pos = (424,710);
}
);
background = {
shapes = (
{
pos = (-10,0);
ref = H;
}
);
};
layerId = "E5B4AC11-8521-476B-8B52-54F023F880B1";
shapes = (
{
closed = 1;
nodes = (
(244,0,l),
(244,458,l),
(245,458,l),
(637,0,l),
(790,0,l),
(790,710,l),
(604,710,l),
(604,312,l),
(603,312,l),
(263,710,l),
(58,710,l),
(58,0,l)
);
}
);
width = 848;
}
);
note = N;
unicode = 78;
},
{
glyphname = Eng;
kernLeft = H;
kernRight = H;
lastChange = "2023-10-17 00:48:53 +0000";
layers = (
{
layerId = "E39CE873-C6CB-4040-8FBA-1D86B139B3E5";
shapes = (
{
closed = 1;
nodes = (
(518,-173,o),
(590,-105,o),
(590,29,cs),
(590,710,l),
(514,710,l),
(514,154,l),
(513,154,l),
(186,710,l),
(78,710,l),
(78,0,l),
(154,0,l),
(154,617,l),
(155,617,l),
(518,0,l),
(504,40,l),
(504,10,ls),
(504,-75,o),
(456,-105,o),
(378,-105,cs),
(357,-105,o),
(340,-103,o),
(323,-101,c),
(323,-168,l),
(339,-171,o),
(360,-173,o),
(391,-173,cs)
);
}
);
width = 668;
},
{
layerId = "7F29FB76-5474-4FBC-BDD6-396388860F4A";
shapes = (
{
closed = 1;
nodes = (
(554,-173,o),
(641,-96,o),
(641,52,cs),
(641,710,l),
(476,710,l),
(476,327,l),
(475,327,l),
(232,710,l),
(51,710,l),
(51,0,l),
(216,0,l),
(216,441,l),
(217,441,l),
(495,0,l),
(461,90,l),
(461,42,ls),
(461,2,o),
(445,-27,o),
(387,-27,cs),
(368,-27,o),
(354,-25,o),
(334,-22,c),
(334,-164,l),
(366,-170,o),
(397,-173,o),
(425,-173,cs)
);
}
);
width = 692;
},
{
layerId = "C91C925B-D0D7-4075-AF07-39B2B48BEC27";
shapes = (
{
closed = 1;
nodes = (
(306,-170,o),
(360,-138,o),
(360,-22,cs),
(360,710,l),
(293,710,l),
(293,222,l),
(292,222,l),
(135,710,l),
(52,710,l),
(52,0,l),
(119,0,l),
(119,544,l),
(120,544,l),
(296,0,l),
(292,65,l),
(292,-32,ls),
(292,-93,o),
(261,-109,o),
(208,-109,cs),
(201,-109,o),
(187,-108,o),
(175,-107,c),
(175,-166,l),
(188,-168,o),
(205,-170,o),
(224,-170,cs)
);
}
);
width = 412;
},
{
layerId = "B6DC6C93-7E5A-4350-AC8D-F1BB3AE9B4CB";
shapes = (
{
closed = 1;
nodes = (
(372,-173,o),
(440,-120,o),
(440,2,cs),
(440,710,l),
(308,710,l),
(308,344,l),
(307,344,l),
(183,710,l),
(37,710,l),
(37,0,l),
(169,0,l),
(169,383,l),
(170,383,l),
(303,0,l),
(290,110,l),
(290,10,ls),
(290,-27,o),
(263,-41,o),
(232,-41,cs),
(220,-41,o),
(206,-40,o),
(189,-38,c),
(189,-165,l),
(217,-170,o),
(234,-173,o),
(266,-173,cs)
);
}
);
width = 477;
},
{
layerId = "AD0154C7-7101-4C76-975C-BE8A541C5FBC";
shapes = (
{
closed = 1;
nodes = (
(660,-177,o),
(754,-112,o),
(754,52,cs),
(754,710,l),
(664,710,l),
(664,159,l),
(663,159,l),
(193,710,l),
(85,710,l),
(85,0,l),
(175,0,l),
(175,593,l),
(176,593,l),
(677,5,l),
(659,85,l),
(659,30,ls),
(659,-60,o),
(604,-95,o),
(522,-95,cs),
(469,-95,o),
(440,-89,o),
(395,-80,c),
(395,-162,l),
(433,-171,o),
(471,-177,o),
(522,-177,cs)
);
}
);
width = 839;
},
{
layerId = "E5B4AC11-8521-476B-8B52-54F023F880B1";
shapes = (
{
closed = 1;
nodes = (
(693,-177,o),
(790,-93,o),
(790,116,cs),
(790,710,l),
(604,710,l),
(604,312,l),
(603,312,l),
(263,710,l),
(58,710,l),
(58,0,l),
(244,0,l),
(244,458,l),
(245,458,l),
(637,0,l),
(592,102,l),
(592,45,ls),
(592,-3,o),
(545,-21,o),
(481,-21,cs),
(459,-21,o),
(432,-19,o),
(396,-14,c),
(396,-164,l),
(441,-173,o),
(489,-177,o),
(528,-177,cs)
);
}
);
width = 848;
}
);
unicode = 330;
},
{
glyphname = O;
kernLeft = O;
kernRight = O;
lastChange = "2023-10-17 00:48:53 +0000";
layers = (
{
anchors = (
{
name = bottom;
pos = (362,0);
},
{
name = center;
pos = (362,355);
},
{
name = ogonek;
pos = (645,10);
},
{
name = top;
pos = (362,710);
},
{
name = topleft;
pos = (28,710);
},
{
name = topright;
pos = (696,710);
}
);
background = {
anchors = (
{
name = bottom;
pos = (386,0);
},
{
name = center;
pos = (386,360);
},
{
name = ogonek;
pos = (698,10);
},
{
name = top;
pos = (386,720);
},
{
name = topleft;
pos = (16,720);
},
{
name = topright;
pos = (756,720);
}
);
shapes = (
{
closed = 1;
nodes = (
(602,-12,o),
(730,146,o),
(730,359,cs),
(730,573,o),
(602,732,o),
(386,732,cs),
(170,732,o),
(42,573,o),
(42,359,cs),
(42,146,o),
(170,-12,o),
(386,-12,cs)
);
},
{
closed = 1;
nodes = (
(223,60,o),
(124,184,o),
(124,360,cs),
(124,534,o),
(222,660,o),
(386,660,cs),
(546,660,o),
(648,534,o),
(648,360,cs),
(648,185,o),
(546,60,o),
(384,60,cs)
);
}
);
};
layerId = "E39CE873-C6CB-4040-8FBA-1D86B139B3E5";
shapes = (
{
closed = 1;
nodes = (
(561,-12,o),
(680,145,o),
(680,354,cs),
(680,564,o),
(561,722,o),
(362,722,cs),
(162,722,o),
(44,563,o),
(44,354,cs),
(44,145,o),
(163,-12,o),
(362,-12,cs)
);
},
{
closed = 1;
nodes = (
(221,57,o),
(131,172,o),
(131,335,cs),
(131,375,ls),
(131,538,o),
(221,653,o),
(362,653,cs),
(503,653,o),
(593,538,o),
(593,375,cs),
(593,335,ls),
(593,172,o),
(503,57,o),
(362,57,cs)
);
}
);
width = 724;
},
{
anchors = (
{
name = bottom;
pos = (364,0);
},
{
name = center;
pos = (364,355);
},
{
name = ogonek;
pos = (653,10);
},
{
name = top;
pos = (364,710);
},
{
name = topleft;
pos = (23,710);
},
{
name = topright;
pos = (705,710);
}
);
layerId = "7F29FB76-5474-4FBC-BDD6-396388860F4A";
shapes = (
{
closed = 1;
nodes = (
(579,-12,o),
(700,153,o),
(700,354,cs),
(700,557,o),
(579,722,o),
(364,722,cs),
(150,722,o),
(28,556,o),
(28,354,cs),
(28,153,o),
(150,-12,o),
(364,-12,cs)
);
},
{
closed = 1;
nodes = (
(267,128,o),
(210,208,o),
(210,334,cs),
(210,376,ls),
(210,502,o),
(267,582,o),
(364,582,cs),
(461,582,o),
(518,502,o),
(518,376,cs),
(518,334,ls),
(518,208,o),
(461,128,o),
(364,128,cs)
);
}
);
width = 728;
},
{
anchors = (
{
name = bottom;
pos = (216,0);
},
{
name = center;
pos = (216,355);
},
{
name = ogonek;
pos = (387,10);
},
{
name = top;
pos = (216,710);
},
{
name = topleft;
pos = (22,710);
},
{
name = topright;
pos = (410,710);
}
);
layerId = "C91C925B-D0D7-4075-AF07-39B2B48BEC27";
shapes = (
{
closed = 1;
nodes = (
(328,-12,o),
(395,72,o),
(395,355,cs),
(395,637,o),
(328,722,o),
(215,722,cs),
(102,722,o),
(36,637,o),
(36,355,cs),
(36,72,o),
(102,-12,o),
(215,-12,cs)
);
},
{
closed = 1;
nodes = (
(147,49,o),
(107,123,o),
(107,309,cs),
(107,401,ls),
(107,587,o),
(147,661,o),
(215,661,cs),
(283,661,o),
(324,589,o),
(324,401,cs),
(324,309,ls),
(324,121,o),
(283,49,o),
(215,49,cs)
);
}
);
width = 431;
},
{
anchors = (
{
name = bottom;
pos = (252,0);
},
{
name = center;
pos = (252,355);
},
{
name = ogonek;
pos = (455,10);
},
{
name = top;
pos = (252,710);
},
{
name = topleft;
pos = (18,710);
},
{
name = topright;
pos = (486,710);
}
);
background = {
shapes = (
{
closed = 1;
nodes = (
(400,-12,o),
(486,83,o),
(486,355,cs),
(486,630,o),
(400,722,o),
(254,722,cs),
(108,722,o),
(22,630,o),
(22,355,cs),
(22,83,o),
(108,-12,o),
(254,-12,cs)
);
},
{
closed = 1;
nodes = (
(211,113,o),
(188,145,o),
(188,231,cs),
(188,479,ls),
(188,565,o),
(211,597,o),
(254,597,cs),
(297,597,o),
(320,565,o),
(320,479,cs),
(320,231,ls),
(320,145,o),
(297,113,o),
(254,113,cs)
);
}
);
};
layerId = "B6DC6C93-7E5A-4350-AC8D-F1BB3AE9B4CB";
shapes = (
{
closed = 1;
nodes = (
(398,-12,o),
(480,83,o),
(480,355,cs),
(480,630,o),
(398,722,o),
(252,722,cs),
(106,722,o),
(24,630,o),
(24,355,cs),
(24,83,o),
(106,-12,o),
(252,-12,cs)
);
},
{
closed = 1;
nodes = (
(209,113,o),
(186,145,o),
(186,318,cs),
(186,392,ls),
(186,565,o),
(209,597,o),
(252,597,cs),
(295,597,o),
(318,565,o),
(318,392,cs),
(318,318,ls),
(318,145,o),
(295,113,o),
(252,113,cs)
);
}
);
width = 504;
},
{
anchors = (
{
name = bottom;
pos = (449,0);
},
{
name = center;
pos = (449,355);
},
{
name = ogonek;
pos = (799,10);
},
{
name = top;
pos = (449,710);
},
{
name = topleft;
pos = (32,710);
},
{
name = topright;
pos = (866,710);
}
);
background = {
anchors = (
{
name = bottom;
pos = (375,0);
},
{
name = center;
pos = (375,360);
},
{
name = ogonek;
pos = (687,10);
},
{
name = top;
pos = (375,720);
},
{
name = topleft;
pos = (5,720);
},
{
name = topright;
pos = (745,720);
}
);
shapes = (
{
pos = (-11,0);
ref = H;
}
);
};
layerId = "AD0154C7-7101-4C76-975C-BE8A541C5FBC";
shapes = (
{
closed = 1;
nodes = (
(695,-12,o),
(850,139,o),
(850,354,cs),
(850,569,o),
(696,722,o),
(449,722,cs),
(202,722,o),
(48,569,o),
(48,354,cs),
(48,139,o),
(203,-12,o),
(449,-12,cs)
);
},
{
closed = 1;
nodes = (
(256,63,o),
(144,176,o),
(144,347,cs),
(144,363,ls),
(144,534,o),
(256,647,o),
(449,647,cs),
(642,647,o),
(754,534,o),
(754,363,cs),
(754,347,ls),
(754,176,o),
(642,63,o),
(449,63,cs)
);
}
);
width = 898;
},
{
anchors = (
{
name = bottom;
pos = (456,0);
},
{
name = center;
pos = (456,355);
},
{
name = ogonek;
pos = (816,10);
},
{
name = top;
pos = (456,710);
},
{
name = topleft;
pos = (26,710);
},
{
name = topright;
pos = (886,710);
}
);
layerId = "E5B4AC11-8521-476B-8B52-54F023F880B1";
shapes = (
{
closed = 1;
nodes = (
(727,-12,o),
(880,143,o),
(880,354,cs),
(880,567,o),
(727,722,o),
(456,722,cs),
(185,722,o),
(32,566,o),
(32,354,cs),
(32,143,o),
(186,-12,o),
(456,-12,cs)
);
},
{
closed = 1;
nodes = (
(320,140,o),
(234,215,o),
(234,342,cs),
(234,368,ls),
(234,495,o),
(320,570,o),
(456,570,cs),
(592,570,o),
(678,495,o),
(678,368,cs),
(678,342,ls),
(678,215,o),
(592,140,o),
(456,140,cs)
);
}
);
width = 912;
}
);
note = O;
unicode = 79;
},
{
glyphname = Oslash;
kernLeft = O;
kernRight = O;
lastChange = "2023-10-17 00:48:53 +0000";
layers = (
{
anchors = (
{
name = bottom;
pos = (362,0);
},
{
name = top;
pos = (362,710);
}
);
layerId = "E39CE873-C6CB-4040-8FBA-1D86B139B3E5";
shapes = (
{
closed = 1;
nodes = (
(561,-12,o),
(680,145,o),
(680,354,cs),
(680,564,o),
(561,722,o),
(362,722,cs),
(162,722,o),
(44,563,o),
(44,354,cs),
(44,145,o),
(163,-12,o),
(362,-12,cs)
);
},
{
closed = 1;
nodes = (
(221,57,o),
(131,172,o),
(131,335,cs),
(131,375,ls),
(131,538,o),
(221,653,o),
(362,653,cs),
(503,653,o),
(593,538,o),
(593,375,cs),
(593,335,ls),
(593,172,o),
(503,57,o),
(362,57,cs)
);
},
{
closed = 1;
nodes = (
(660,683,l),
(605,722,l),
(64,27,l),
(119,-12,l)
);
}
);
width = 724;
},
{
anchors = (
{
name = bottom;
pos = (364,0);
},
{
name = top;
pos = (364,710);
}
);
layerId = "7F29FB76-5474-4FBC-BDD6-396388860F4A";
shapes = (
{
closed = 1;
nodes = (
(579,-12,o),
(700,153,o),
(700,354,cs),
(700,557,o),
(579,722,o),
(364,722,cs),
(150,722,o),
(28,556,o),
(28,354,cs),
(28,153,o),
(150,-12,o),
(364,-12,cs)
);
},
{
closed = 1;
nodes = (
(267,128,o),
(210,208,o),
(210,334,cs),
(210,376,ls),
(210,502,o),
(267,582,o),
(364,582,cs),
(461,582,o),
(518,502,o),
(518,376,cs),
(518,334,ls),
(518,208,o),
(461,128,o),
(364,128,cs)
);
},
{
closed = 1;
nodes = (
(679,641,l),
(580,722,l),
(50,69,l),
(149,-12,l)
);
}
);
width = 728;
},
{
anchors = (
{
name = bottom;
pos = (217,0);
},
{
name = top;
pos = (217,710);
}
);
layerId = "C91C925B-D0D7-4075-AF07-39B2B48BEC27";
shapes = (
{
closed = 1;
nodes = (
(330,-12,o),
(398,71,o),
(398,355,cs),
(398,638,o),
(330,722,o),
(216,722,cs),
(103,722,o),
(36,638,o),
(36,355,cs),
(36,71,o),
(103,-12,o),
(216,-12,cs)
);
},
{
closed = 1;
nodes = (
(149,51,o),
(109,123,o),
(109,309,cs),
(109,401,ls),
(109,587,o),
(149,659,o),
(216,659,cs),
(284,659,o),
(325,588,o),
(325,401,cs),
(325,309,ls),
(325,122,o),
(284,51,o),
(216,51,cs)
);
},
{
closed = 1;
nodes = (
(388,700,l),
(333,722,l),
(46,10,l),
(100,-12,l)
);
}
);
width = 434;
},
{
anchors = (
{
name = bottom;
pos = (255,0);
},
{
name = top;
pos = (255,710);
}
);
layerId = "B6DC6C93-7E5A-4350-AC8D-F1BB3AE9B4CB";
shapes = (
{
closed = 1;
nodes = (
(401,-12,o),
(487,83,o),
(487,355,cs),
(487,630,o),
(401,722,o),
(255,722,cs),
(109,722,o),
(23,630,o),
(23,355,cs),
(23,83,o),
(109,-12,o),
(255,-12,cs)
);
},
{
closed = 1;
nodes = (
(207,113,o),
(182,145,o),
(182,278,cs),
(182,392,ls),
(182,565,o),
(207,597,o),
(255,597,cs),
(303,597,o),
(328,565,o),
(328,432,cs),
(328,318,ls),
(328,145,o),
(303,113,o),
(255,113,cs)
);
},
{
closed = 1;
nodes = (
(470,679,l),
(373,722,l),
(40,31,l),
(137,-12,l)
);
}
);
width = 510;
},
{
anchors = (
{
name = bottom;
pos = (449,0);
},
{
name = top;
pos = (449,710);
}
);
layerId = "AD0154C7-7101-4C76-975C-BE8A541C5FBC";
shapes = (
{
closed = 1;
nodes = (
(695,-12,o),
(850,139,o),
(850,354,cs),
(850,569,o),
(696,722,o),
(449,722,cs),
(202,722,o),
(48,569,o),
(48,354,cs),
(48,139,o),
(203,-12,o),
(449,-12,cs)
);
},
{
closed = 1;
nodes = (
(256,63,o),
(144,176,o),
(144,347,cs),
(144,363,ls),
(144,534,o),
(256,647,o),
(449,647,cs),
(642,647,o),
(754,534,o),
(754,363,cs),
(754,347,ls),
(754,176,o),
(642,63,o),
(449,63,cs)
);
},
{
closed = 1;
nodes = (
(827,667,l),
(769,722,l),
(71,43,l),
(129,-12,l)
);
}
);
width = 898;
},
{
anchors = (
{
name = bottom;
pos = (456,0);
},
{
name = top;
pos = (456,710);
}
);
layerId = "E5B4AC11-8521-476B-8B52-54F023F880B1";
shapes = (
{
closed = 1;
nodes = (
(727,-12,o),
(880,143,o),
(880,354,cs),
(880,567,o),
(727,722,o),
(456,722,cs),
(185,722,o),
(32,566,o),
(32,354,cs),
(32,143,o),
(186,-12,o),
(456,-12,cs)
);
},
{
closed = 1;
nodes = (
(320,140,o),
(234,215,o),
(234,342,cs),
(234,368,ls),
(234,495,o),
(320,570,o),
(456,570,cs),
(592,570,o),
(678,495,o),
(678,368,cs),
(678,342,ls),
(678,215,o),
(592,140,o),
(456,140,cs)
);
},
{
closed = 1;
nodes = (
(877,609,l),
(770,722,l),
(36,101,l),
(143,-12,l)
);
}
);
width = 912;
}
);
unicode = 216;
},
{
glyphname = OE;
kernRight = E;
lastChange = "2023-10-17 00:48:53 +0000";
layers = (
{
anchors = (
{
name = bottom;
pos = (499,0);
},
{
name = top;
pos = (499,710);
}
);
layerId = "E39CE873-C6CB-4040-8FBA-1D86B139B3E5";
shapes = (
{
closed = 1;
nodes = (
(958,0,l),
(958,70,l),
(564,70,l),
(596,44,l),
(596,670,l),
(564,640,l),
(954,640,l),
(954,710,l),
(382,710,ls),
(154,710,o),
(44,557,o),
(44,355,cs),
(44,153,o),
(154,0,o),
(382,0,cs)
);
},
{
closed = 1;
nodes = (
(210,70,o),
(130,183,o),
(130,336,cs),
(130,374,ls),
(130,527,o),
(210,640,o),
(375,640,cs),
(510,640,l),
(510,70,l),
(375,70,ls)
);
},
{
closed = 1;
nodes = (
(903,329,l),
(903,399,l),
(578,399,l),
(578,329,l)
);
}
);
width = 999;
},
{
anchors = (
{
name = bottom;
pos = (490,0);
},
{
name = top;
pos = (490,710);
}
);
layerId = "7F29FB76-5474-4FBC-BDD6-396388860F4A";
shapes = (
{
closed = 1;
nodes = (
(945,0,l),
(945,136,l),
(597,136,l),
(627,112,l),
(627,602,l),
(597,574,l),
(937,574,l),
(937,710,l),
(386,710,ls),
(140,710,o),
(28,557,o),
(28,355,cs),
(28,153,o),
(140,0,o),
(386,0,cs)
);
},
{
closed = 1;
nodes = (
(260,132,o),
(207,217,o),
(207,334,cs),
(207,376,ls),
(207,493,o),
(260,578,o),
(379,578,cs),
(447,578,l),
(447,132,l),
(379,132,ls)
);
},
{
closed = 1;
nodes = (
(883,294,l),
(883,428,l),
(582,428,l),
(582,294,l)
);
}
);
width = 974;
},
{
anchors = (
{
name = bottom;
pos = (301,0);
},
{
name = top;
pos = (301,710);
}
);
layerId = "C91C925B-D0D7-4075-AF07-39B2B48BEC27";
shapes = (
{
closed = 1;
nodes = (
(585,0,l),
(585,60,l),
(349,60,l),
(368,30,l),
(368,680,l),
(349,650,l),
(581,650,l),
(581,710,l),
(245,710,ls),
(121,710,o),
(35,629,o),
(35,355,cs),
(35,80,o),
(121,0,o),
(245,0,cs)
);
},
{
closed = 1;
nodes = (
(165,60,o),
(105,129,o),
(105,314,cs),
(105,396,ls),
(105,581,o),
(165,650,o),
(243,650,cs),
(298,650,l),
(298,60,l),
(243,60,ls)
);
},
{
closed = 1;
nodes = (
(559,335,l),
(559,394,l),
(350,394,l),
(350,335,l)
);
}
);
width = 613;
},
{
anchors = (
{
name = bottom;
pos = (345,0);
},
{
name = top;
pos = (345,710);
}
);
layerId = "B6DC6C93-7E5A-4350-AC8D-F1BB3AE9B4CB";
shapes = (
{
closed = 1;
nodes = (
(664,0,l),
(664,132,l),
(433,132,l),
(457,104,l),
(457,607,l),
(433,578,l),
(660,578,l),
(660,710,l),
(248,710,ls),
(110,710,o),
(24,611,o),
(24,355,cs),
(24,99,o),
(110,0,o),
(248,0,cs)
);
},
{
closed = 1;
nodes = (
(213,132,o),
(188,156,o),
(188,257,cs),
(188,453,ls),
(188,554,o),
(213,578,o),
(274,578,cs),
(299,578,l),
(299,132,l),
(274,132,ls)
);
},
{
closed = 1;
nodes = (
(637,300,l),
(637,423,l),
(407,423,l),
(407,300,l)
);
}
);
width = 688;
},
{
anchors = (
{
name = bottom;
pos = (667,0);
},
{
name = top;
pos = (667,710);
}
);
layerId = "AD0154C7-7101-4C76-975C-BE8A541C5FBC";
shapes = (
{
closed = 1;
nodes = (
(1287,0,l),
(1287,75,l),
(732,75,l),
(757,41,l),
(757,669,l),
(732,635,l),
(1277,635,l),
(1277,710,l),
(448,710,ls),
(191,710,o),
(48,562,o),
(48,354,cs),
(48,146,o),
(192,0,o),
(448,0,cs)
);
},
{
closed = 1;
nodes = (
(244,70,o),
(143,179,o),
(143,344,cs),
(143,366,ls),
(143,531,o),
(244,640,o),
(456,640,cs),
(662,640,l),
(662,70,l),
(456,70,ls)
);
},
{
closed = 1;
nodes = (
(1242,327,l),
(1242,402,l),
(732,402,l),
(732,327,l)
);
}
);
width = 1335;
},
{
anchors = (
{
name = bottom;
pos = (655,0);
},
{
name = top;
pos = (655,710);
}
);
layerId = "E5B4AC11-8521-476B-8B52-54F023F880B1";
shapes = (
{
closed = 1;
nodes = (
(1270,0,l),
(1270,148,l),
(751,148,l),
(803,95,l),
(803,615,l),
(751,562,l),
(1263,562,l),
(1263,710,l),
(450,710,ls),
(169,710,o),
(32,560,o),
(32,354,cs),
(32,150,o),
(169,0,o),
(450,0,cs)
);
},
{
closed = 1;
nodes = (
(308,148,o),
(234,222,o),
(234,342,cs),
(234,368,ls),
(234,490,o),
(308,562,o),
(464,562,cs),
(603,562,l),
(603,148,l),
(464,148,ls)
);
},
{
closed = 1;
nodes = (
(1218,288,l),
(1218,430,l),
(694,430,l),
(694,288,l)
);
}
);
width = 1308;
}
);
unicode = 338;
},
{
glyphname = P;
kernLeft = H;
lastChange = "2023-10-17 00:48:53 +0000";
layers = (
{
anchors = (
{
name = bottom;
pos = (307,0);
},
{
name = top;
pos = (307,710);
}
);
background = {
anchors = (
{
name = bottom;
pos = (305,0);
},
{
name = top;
pos = (305,720);
}
);
shapes = (
{
closed = 1;
nodes = (
(170,0,l),
(170,682,l),
(133,648,l),
(320,648,ls),
(440,648,o),
(488,592,o),
(488,500,cs),
(488,413,o),
(440,352,o),
(320,352,cs),
(154,352,l),
(154,280,l),
(326,280,ls),
(488,280,o),
(570,372,o),
(570,503,cs),
(570,629,o),
(495,720,o),
(324,720,cs),
(88,720,l),
(88,0,l)
);
}
);
};
layerId = "E39CE873-C6CB-4040-8FBA-1D86B139B3E5";
shapes = (
{
closed = 1;
nodes = (
(164,0,l),
(164,670,l),
(132,640,l),
(344,640,ls),
(447,640,o),
(492,586,o),
(492,503,cs),
(492,492,ls),
(492,414,o),
(449,355,o),
(344,355,cs),
(148,355,l),
(148,285,l),
(350,285,ls),
(499,285,o),
(577,373,o),
(577,501,cs),
(577,623,o),
(505,710,o),
(349,710,cs),
(78,710,l),
(78,0,l)
);
}
);
width = 604;
},
{
anchors = (
{
name = bottom;
pos = (318,0);
},
{
name = top;
pos = (318,710);
}
);
layerId = "7F29FB76-5474-4FBC-BDD6-396388860F4A";
shapes = (
{
closed = 1;
nodes = (
(231,0,l),
(231,600,l),
(197,578,l),
(334,578,ls),
(408,578,o),
(436,537,o),
(436,482,cs),
(436,471,ls),
(436,414,o),
(411,373,o),
(334,373,cs),
(199,373,l),
(199,242,l),
(360,242,ls),
(512,242,o),
(615,318,o),
(615,478,cs),
(615,635,o),
(512,710,o),
(360,710,cs),
(51,710,l),
(51,0,l)
);
}
);
width = 630;
},
{
anchors = (
{
name = bottom;
pos = (188,0);
},
{
name = top;
pos = (188,710);
}
);
layerId = "C91C925B-D0D7-4075-AF07-39B2B48BEC27";
shapes = (
{
closed = 1;
nodes = (
(122,0,l),
(122,690,l),
(87,650,l),
(198,650,ls),
(263,650,o),
(298,608,o),
(298,532,cs),
(298,476,ls),
(298,399,o),
(263,360,o),
(198,360,cs),
(113,360,l),
(113,300,l),
(198,300,ls),
(328,300,o),
(369,389,o),
(369,506,cs),
(369,622,o),
(329,710,o),
(198,710,cs),
(52,710,l),
(52,0,l)
);
}
);
width = 389;
},
{
anchors = (
{
name = bottom;
pos = (230,0);
},
{
name = top;
pos = (230,710);
}
);
layerId = "B6DC6C93-7E5A-4350-AC8D-F1BB3AE9B4CB";
shapes = (
{
closed = 1;
nodes = (
(195,0,l),
(195,619,l),
(156,586,l),
(239,586,ls),
(280,586,o),
(300,560,o),
(300,507,cs),
(300,458,ls),
(300,404,o),
(281,378,o),
(239,378,cs),
(178,378,l),
(178,255,l),
(252,255,ls),
(379,255,o),
(457,338,o),
(457,483,cs),
(457,627,o),
(379,710,o),
(252,710,cs),
(37,710,l),
(37,0,l)
);
}
);
width = 467;
},
{
anchors = (
{
name = bottom;
pos = (405,0);
},
{
name = top;
pos = (405,710);
}
);
background = {
anchors = (
{
name = bottom;
pos = (311,0);
},
{
name = top;
pos = (311,720);
}
);
shapes = (
{
closed = 1;
nodes = (
(176,0,l),
(176,682,l),
(139,648,l),
(326,648,ls),
(446,648,o),
(494,592,o),
(494,500,cs),
(494,413,o),
(446,352,o),
(326,352,cs),
(160,352,l),
(160,280,l),
(332,280,ls),
(494,280,o),
(576,372,o),
(576,503,cs),
(576,629,o),
(501,720,o),
(330,720,cs),
(94,720,l),
(94,0,l)
);
}
);
};
layerId = "AD0154C7-7101-4C76-975C-BE8A541C5FBC";
shapes = (
{
closed = 1;
nodes = (
(180,0,l),
(180,681,l),
(106,635,l),
(507,635,ls),
(617,635,o),
(673,578,o),
(673,490,cs),
(673,472,ls),
(673,391,o),
(617,334,o),
(507,334,cs),
(146,334,l),
(146,259,l),
(503,259,ls),
(678,259,o),
(767,348,o),
(767,484,cs),
(767,621,o),
(678,710,o),
(503,710,cs),
(85,710,l),
(85,0,l)
);
}
);
width = 799;
},
{
anchors = (
{
name = bottom;
pos = (402,0);
},
{
name = top;
pos = (402,710);
}
);
layerId = "E5B4AC11-8521-476B-8B52-54F023F880B1";
shapes = (
{
closed = 1;
nodes = (
(258,0,l),
(258,613,l),
(175,562,l),
(466,562,ls),
(545,562,o),
(579,532,o),
(579,468,cs),
(579,456,ls),
(579,398,o),
(545,368,o),
(466,368,cs),
(177,368,l),
(177,225,l),
(476,225,ls),
(667,225,o),
(776,308,o),
(776,465,cs),
(776,627,o),
(667,710,o),
(476,710,cs),
(58,710,l),
(58,0,l)
);
}
);
width = 794;
}
);
note = P;
unicode = 80;
},
{
glyphname = Thorn;
kernLeft = H;
lastChange = "2023-10-17 00:48:53 +0000";
layers = (
{
anchors = (
{
name = bottom;
pos = (307,0);
},
{
name = top;
pos = (307,710);
}
);
layerId = "E39CE873-C6CB-4040-8FBA-1D86B139B3E5";
shapes = (
{
closed = 1;
nodes = (
(350,149,ls),
(499,149,o),
(577,237,o),
(577,365,cs),
(577,487,o),
(505,574,o),
(349,574,cs),
(122,574,l),
(122,504,l),
(344,504,ls),
(447,504,o),
(492,450,o),
(492,367,cs),
(492,356,ls),
(492,278,o),
(449,219,o),
(344,219,cs),
(122,219,l),
(122,149,l)
);
},
{
closed = 1;
nodes = (
(164,0,l),
(164,710,l),
(78,710,l),
(78,0,l)
);
}
);
width = 614;
},
{
anchors = (
{
name = bottom;
pos = (318,0);
},
{
name = top;
pos = (318,710);
}
);
layerId = "7F29FB76-5474-4FBC-BDD6-396388860F4A";
shapes = (
{
closed = 1;
nodes = (
(360,126,ls),
(512,126,o),
(615,202,o),
(615,362,cs),
(615,519,o),
(512,594,o),
(360,594,cs),
(181,594,l),
(181,462,l),
(334,462,ls),
(408,462,o),
(436,421,o),
(436,366,cs),
(436,355,ls),
(436,298,o),
(411,257,o),
(334,257,cs),
(181,257,l),
(181,126,l)
);
},
{
closed = 1;
nodes = (
(231,0,l),
(231,710,l),
(51,710,l),
(51,0,l)
);
}
);
width = 639;
},
{
anchors = (
{
name = bottom;
pos = (189,0);
},
{
name = top;
pos = (189,710);
}
);
layerId = "C91C925B-D0D7-4075-AF07-39B2B48BEC27";
shapes = (
{
closed = 1;
nodes = (
(200,158,ls),
(315,159,o),
(369,229,o),
(369,365,cs),
(369,501,o),
(315,571,o),
(200,570,cs),
(85,569,l),
(85,508,l),
(199,509,ls),
(279,510,o),
(298,445,o),
(298,391,cs),
(298,336,ls),
(298,251,o),
(256,220,o),
(199,219,cs),
(85,217,l),
(85,157,l)
);
},
{
closed = 1;
nodes = (
(122,0,l),
(122,710,l),
(52,710,l),
(52,0,l)
);
}
);
width = 397;
},
{
anchors = (
{
name = bottom;
pos = (230,0);
},
{
name = top;
pos = (230,710);
}
);
layerId = "B6DC6C93-7E5A-4350-AC8D-F1BB3AE9B4CB";
shapes = (
{
closed = 1;
nodes = (
(252,135,ls),
(379,135,o),
(457,218,o),
(457,363,cs),
(457,507,o),
(379,590,o),
(252,590,cs),
(156,590,l),
(156,466,l),
(239,466,ls),
(280,466,o),
(300,440,o),
(300,387,cs),
(300,338,ls),
(300,284,o),
(281,258,o),
(239,258,cs),
(156,258,l),
(156,135,l)
);
},
{
closed = 1;
nodes = (
(195,0,l),
(195,710,l),
(37,710,l),
(37,0,l)
);
}
);
width = 475;
},
{
anchors = (
{
name = bottom;
pos = (402,0);
},
{
name = top;
pos = (402,710);
}
);
layerId = "AD0154C7-7101-4C76-975C-BE8A541C5FBC";
shapes = (
{
closed = 1;
nodes = (
(503,142,ls),
(678,142,o),
(767,231,o),
(767,367,cs),
(767,504,o),
(678,593,o),
(503,593,cs),
(146,593,l),
(146,518,l),
(507,518,ls),
(617,518,o),
(673,461,o),
(673,373,cs),
(673,355,ls),
(673,274,o),
(617,217,o),
(507,217,cs),
(146,217,l),
(146,142,l)
);
},
{
closed = 1;
nodes = (
(180,0,l),
(180,710,l),
(85,710,l),
(85,0,l)
);
}
);
width = 803;
},
{
anchors = (
{
name = bottom;
pos = (414,0);
},
{
name = top;
pos = (414,710);
}
);
layerId = "E5B4AC11-8521-476B-8B52-54F023F880B1";
shapes = (
{
closed = 1;
nodes = (
(476,125,ls),
(667,125,o),
(776,208,o),
(776,365,cs),
(776,527,o),
(667,610,o),
(476,610,cs),
(177,610,l),
(177,462,l),
(466,462,ls),
(545,462,o),
(579,432,o),
(579,368,cs),
(579,356,ls),
(579,298,o),
(545,268,o),
(466,268,cs),
(177,268,l),
(177,125,l)
);
},
{
closed = 1;
nodes = (
(258,0,l),
(258,710,l),
(58,710,l),
(58,0,l)
);
}
);
width = 797;
}
);
unicode = 222;
},
{
glyphname = Q;
kernLeft = O;
kernRight = O;
lastChange = "2023-10-17 00:48:53 +0000";
layers = (
{
anchors = (
{
name = bottom;
pos = (362,0);
},
{
name = top;
pos = (362,710);
}
);
background = {
shapes = (
{
closed = 1;
nodes = (
(556,-12,o),
(675,140,o),
(675,345,cs),
(675,550,o),
(556,703,o),
(357,703,cs),
(158,703,o),
(40,549,o),
(40,345,cs),
(40,140,o),
(159,-12,o),
(357,-12,cs)
);
},
{
closed = 1;
nodes = (
(214,61,o),
(126,180,o),
(126,346,cs),
(126,510,o),
(213,630,o),
(357,630,cs),
(498,630,o),
(588,510,o),
(588,346,cs),
(588,180,o),
(498,61,o),
(356,61,cs)
);
},
{
closed = 1;
nodes = (
(574,-160,l),
(574,-88,l),
(448,-88,ls),
(416,-88,o),
(399,-75,o),
(399,-35,cs),
(399,43,l),
(314,43,l),
(314,-40,ls),
(314,-124,o),
(354,-160,o),
(439,-160,cs)
);
}
);
};
layerId = "E39CE873-C6CB-4040-8FBA-1D86B139B3E5";
shapes = (
{
closed = 1;
nodes = (
(561,-12,o),
(680,145,o),
(680,354,cs),
(680,564,o),
(561,722,o),
(362,722,cs),
(162,722,o),
(44,563,o),
(44,354,cs),
(44,145,o),
(163,-12,o),
(362,-12,cs)
);
},
{
closed = 1;
nodes = (
(221,57,o),
(131,172,o),
(131,335,cs),
(131,375,ls),
(131,538,o),
(221,653,o),
(362,653,cs),
(503,653,o),
(593,538,o),
(593,375,cs),
(593,335,ls),
(593,172,o),
(503,57,o),
(362,57,cs)
);
},
{
closed = 1;
nodes = (
(628,-76,l),
(509,69,l),
(450,31,l),
(560,-127,l)
);
}
);
width = 724;
},
{
anchors = (
{
name = bottom;
pos = (364,0);
},
{
name = top;
pos = (364,710);
}
);
background = {
shapes = (
{
closed = 1;
nodes = (
(576,-12,o),
(698,140,o),
(698,345,cs),
(698,550,o),
(576,703,o),
(361,703,cs),
(148,703,o),
(26,550,o),
(26,345,cs),
(26,140,o),
(148,-12,o),
(361,-12,cs)
);
},
{
closed = 1;
nodes = (
(264,134,o),
(207,224,o),
(207,346,cs),
(207,467,o),
(264,557,o),
(361,557,cs),
(458,557,o),
(516,467,o),
(516,346,cs),
(516,223,o),
(458,134,o),
(362,134,cs)
);
},
{
closed = 1;
nodes = (
(613,-173,l),
(613,-43,l),
(475,-43,ls),
(454,-43,o),
(444,-32,o),
(444,-9,cs),
(444,99,l),
(275,99,l),
(275,-8,ls),
(275,-122,o),
(330,-173,o),
(444,-173,cs)
);
}
);
};
layerId = "7F29FB76-5474-4FBC-BDD6-396388860F4A";
shapes = (
{
closed = 1;
nodes = (
(579,-12,o),
(700,153,o),
(700,354,cs),
(700,557,o),
(579,722,o),
(364,722,cs),
(150,722,o),
(28,556,o),
(28,354,cs),
(28,153,o),
(150,-12,o),
(364,-12,cs)
);
},
{
closed = 1;
nodes = (
(267,128,o),
(210,208,o),
(210,334,cs),
(210,376,ls),
(210,502,o),
(267,582,o),
(364,582,cs),
(461,582,o),
(518,502,o),
(518,376,cs),
(518,334,ls),
(518,208,o),
(461,128,o),
(364,128,cs)
);
},
{
closed = 1;
nodes = (
(660,-43,l),
(534,107,l),
(406,28,l),
(519,-146,l)
);
}
);
width = 728;
},
{
anchors = (
{
name = bottom;
pos = (216,0);
},
{
name = top;
pos = (216,710);
}
);
layerId = "C91C925B-D0D7-4075-AF07-39B2B48BEC27";
shapes = (
{
closed = 1;
nodes = (
(328,-12,o),
(395,72,o),
(395,355,cs),
(395,637,o),
(328,722,o),
(215,722,cs),
(102,722,o),
(36,637,o),
(36,355,cs),
(36,72,o),
(102,-12,o),
(215,-12,cs)
);
},
{
closed = 1;
nodes = (
(147,49,o),
(107,123,o),
(107,309,cs),
(107,401,ls),
(107,587,o),
(147,661,o),
(215,661,cs),
(283,661,o),
(324,589,o),
(324,401,cs),
(324,309,ls),
(324,121,o),
(283,49,o),
(215,49,cs)
);
},
{
closed = 1;
nodes = (
(388,-72,l),
(294,57,l),
(243,26,l),
(329,-112,l)
);
}
);
width = 431;
},
{
anchors = (
{
name = bottom;
pos = (255,0);
},
{
name = top;
pos = (255,710);
}
);
layerId = "B6DC6C93-7E5A-4350-AC8D-F1BB3AE9B4CB";
shapes = (
{
closed = 1;
nodes = (
(401,-12,o),
(487,83,o),
(487,355,cs),
(487,630,o),
(401,722,o),
(255,722,cs),
(109,722,o),
(23,630,o),
(23,355,cs),
(23,83,o),
(109,-12,o),
(255,-12,cs)
);
},
{
closed = 1;
nodes = (
(212,113,o),
(189,145,o),
(189,318,cs),
(189,392,ls),
(189,565,o),
(212,597,o),
(255,597,cs),
(298,597,o),
(321,565,o),
(321,392,cs),
(321,318,ls),
(321,145,o),
(298,113,o),
(255,113,cs)
);
},
{
closed = 1;
nodes = (
(472,-44,l),
(359,104,l),
(251,47,l),
(352,-124,l)
);
}
);
width = 510;
},
{
anchors = (
{
name = bottom;
pos = (449,0);
},
{
name = top;
pos = (449,710);
}
);
background = {
shapes = (
{
closed = 1;
nodes = (
(-573,-12,o),
(-454,140,o),
(-454,345,cs),
(-454,550,o),
(-573,703,o),
(-772,703,cs),
(-971,703,o),
(-1089,549,o),
(-1089,345,cs),
(-1089,140,o),
(-970,-12,o),
(-772,-12,cs)
);
},
{
closed = 1;
nodes = (
(-915,61,o),
(-1003,180,o),
(-1003,346,cs),
(-1003,510,o),
(-916,630,o),
(-772,630,cs),
(-631,630,o),
(-541,510,o),
(-541,346,cs),
(-541,180,o),
(-631,61,o),
(-773,61,cs)
);
},
{
closed = 1;
nodes = (
(-555,-160,l),
(-555,-88,l),
(-681,-88,ls),
(-713,-88,o),
(-730,-75,o),
(-730,-35,cs),
(-730,43,l),
(-815,43,l),
(-815,-40,ls),
(-815,-124,o),
(-775,-160,o),
(-690,-160,cs)
);
}
);
};
layerId = "AD0154C7-7101-4C76-975C-BE8A541C5FBC";
shapes = (
{
closed = 1;
nodes = (
(695,-12,o),
(850,139,o),
(850,354,cs),
(850,569,o),
(696,722,o),
(449,722,cs),
(202,722,o),
(48,569,o),
(48,354,cs),
(48,139,o),
(203,-12,o),
(449,-12,cs)
);
},
{
closed = 1;
nodes = (
(256,63,o),
(144,176,o),
(144,347,cs),
(144,363,ls),
(144,534,o),
(256,647,o),
(449,647,cs),
(642,647,o),
(754,534,o),
(754,363,cs),
(754,347,ls),
(754,176,o),
(642,63,o),
(449,63,cs)
);
},
{
closed = 1;
nodes = (
(776,-82,l),
(650,66,l),
(582,22,l),
(701,-136,l)
);
}
);
width = 898;
},
{
anchors = (
{
name = bottom;
pos = (456,0);
},
{
name = top;
pos = (456,710);
}
);
background = {
shapes = (
{
closed = 1;
nodes = (
(-583,-12,o),
(-461,140,o),
(-461,345,cs),
(-461,550,o),
(-583,703,o),
(-798,703,cs),
(-1011,703,o),
(-1133,550,o),
(-1133,345,cs),
(-1133,140,o),
(-1011,-12,o),
(-798,-12,cs)
);
},
{
closed = 1;
nodes = (
(-895,134,o),
(-952,224,o),
(-952,346,cs),
(-952,467,o),
(-895,557,o),
(-798,557,cs),
(-701,557,o),
(-643,467,o),
(-643,346,cs),
(-643,223,o),
(-701,134,o),
(-797,134,cs)
);
},
{
closed = 1;
nodes = (
(-546,-173,l),
(-546,-43,l),
(-684,-43,ls),
(-705,-43,o),
(-715,-32,o),
(-715,-9,cs),
(-715,99,l),
(-884,99,l),
(-884,-8,ls),
(-884,-122,o),
(-829,-173,o),
(-715,-173,cs)
);
}
);
};
layerId = "E5B4AC11-8521-476B-8B52-54F023F880B1";
shapes = (
{
closed = 1;
nodes = (
(727,-12,o),
(880,143,o),
(880,354,cs),
(880,567,o),
(727,722,o),
(456,722,cs),
(185,722,o),
(32,566,o),
(32,354,cs),
(32,143,o),
(186,-12,o),
(456,-12,cs)
);
},
{
closed = 1;
nodes = (
(320,143,o),
(234,215,o),
(234,342,cs),
(234,368,ls),
(234,495,o),
(320,567,o),
(456,567,cs),
(592,567,o),
(678,495,o),
(678,368,cs),
(678,342,ls),
(678,215,o),
(592,143,o),
(456,143,cs)
);
},
{
closed = 1;
nodes = (
(833,-56,l),
(698,107,l),
(565,21,l),
(677,-147,l)
);
}
);
width = 912;
}
);
note = Q;
unicode = 81;
},
{
glyphname = R;
kernLeft = H;
kernRight = R;
lastChange = "2023-10-17 00:48:53 +0000";
layers = (
{
anchors = (
{
name = bottom;
pos = (320,0);
},
{
name = top;
pos = (320,710);
}
);
background = {
anchors = (
{
name = bottom;
pos = (307,0);
},
{
name = top;
pos = (274,720);
}
);
shapes = (
{
closed = 1;
nodes = (
(150,0,l),
(150,693,l),
(105,648,l),
(329,648,ls),
(449,648,o),
(485,591,o),
(485,514,cs),
(485,440,o),
(449,383,o),
(329,383,cs),
(134,383,l),
(134,315,l),
(333,315,l),
(503,0,l),
(596,0,l),
(400,357,l),
(392,318,l),
(510,336,o),
(567,419,o),
(567,520,cs),
(567,629,o),
(500,720,o),
(333,720,cs),
(68,720,l),
(68,0,l)
);
}
);
};
layerId = "E39CE873-C6CB-4040-8FBA-1D86B139B3E5";
shapes = (
{
closed = 1;
nodes = (
(164,0,l),
(164,681,l),
(125,640,l),
(343,640,ls),
(441,640,o),
(480,589,o),
(480,527,cs),
(480,500,ls),
(480,437,o),
(447,383,o),
(343,383,cs),
(150,383,l),
(150,315,l),
(306,315,l),
(504,0,l),
(601,0,l),
(395,330,l),
(395,316,l),
(514,336,o),
(566,416,o),
(566,515,cs),
(566,623,o),
(500,710,o),
(347,710,cs),
(78,710,l),
(78,0,l)
);
}
);
width = 620;
},
{
anchors = (
{
name = bottom;
pos = (329,0);
},
{
name = top;
pos = (329,710);
}
);
layerId = "7F29FB76-5474-4FBC-BDD6-396388860F4A";
shapes = (
{
closed = 1;
nodes = (
(231,0,l),
(231,613,l),
(190,578,l),
(329,578,ls),
(410,578,o),
(434,534,o),
(434,488,cs),
(434,477,ls),
(434,434,o),
(412,389,o),
(329,389,cs),
(217,389,l),
(217,255,l),
(306,255,l),
(433,0,l),
(630,0,l),
(464,324,l),
(460,274,l),
(557,299,o),
(614,375,o),
(614,485,cs),
(614,634,o),
(512,710,o),
(359,710,cs),
(51,710,l),
(51,0,l)
);
}
);
width = 644;
},
{
anchors = (
{
name = bottom;
pos = (196,0);
},
{
name = top;
pos = (196,710);
}
);
layerId = "C91C925B-D0D7-4075-AF07-39B2B48BEC27";
shapes = (
{
closed = 1;
nodes = (
(122,0,l),
(122,691,l),
(87,650,l),
(192,650,ls),
(265,650,o),
(295,608,o),
(295,543,cs),
(295,505,ls),
(295,431,o),
(267,389,o),
(192,389,cs),
(112,389,l),
(112,331,l),
(180,331,l),
(298,0,l),
(377,0,l),
(242,363,l),
(202,331,l),
(328,338,o),
(365,426,o),
(365,526,cs),
(365,622,o),
(333,710,o),
(192,710,cs),
(52,710,l),
(52,0,l)
);
}
);
width = 392;
},
{
anchors = (
{
name = bottom;
pos = (289,0);
},
{
name = top;
pos = (289,710);
}
);
layerId = "B6DC6C93-7E5A-4350-AC8D-F1BB3AE9B4CB";
shapes = (
{
closed = 1;
nodes = (
(195,0,l),
(195,622,l),
(154,586,l),
(246,586,ls),
(294,586,o),
(312,559,o),
(312,514,cs),
(312,483,ls),
(312,437,o),
(295,410,o),
(246,410,cs),
(181,410,l),
(181,286,l),
(227,286,l),
(309,0,l),
(481,0,l),
(368,349,l),
(358,303,l),
(434,334,o),
(470,410,o),
(470,503,cs),
(470,631,o),
(392,710,o),
(258,710,cs),
(37,710,l),
(37,0,l)
);
}
);
width = 490;
},
{
anchors = (
{
name = bottom;
pos = (417,0);
},
{
name = top;
pos = (417,710);
}
);
background = {
anchors = (
{
name = bottom;
pos = (269,0);
},
{
name = top;
pos = (236,720);
}
);
shapes = (
{
closed = 1;
nodes = (
(112,0,l),
(112,693,l),
(67,648,l),
(291,648,ls),
(411,648,o),
(447,591,o),
(447,514,cs),
(447,440,o),
(411,383,o),
(291,383,cs),
(96,383,l),
(96,315,l),
(295,315,l),
(465,0,l),
(558,0,l),
(362,357,l),
(354,318,l),
(472,336,o),
(529,419,o),
(529,520,cs),
(529,629,o),
(462,720,o),
(295,720,cs),
(30,720,l),
(30,0,l)
);
}
);
};
layerId = "AD0154C7-7101-4C76-975C-BE8A541C5FBC";
shapes = (
{
closed = 1;
nodes = (
(180,0,l),
(180,681,l),
(106,635,l),
(527,635,ls),
(633,635,o),
(673,578,o),
(673,496,cs),
(673,484,ls),
(673,409,o),
(636,350,o),
(527,350,cs),
(138,350,l),
(138,276,l),
(484,276,l),
(674,0,l),
(778,0,l),
(562,317,l),
(571,278,l),
(711,299,o),
(767,375,o),
(767,494,cs),
(767,621,o),
(698,710,o),
(524,710,cs),
(85,710,l),
(85,0,l)
);
}
);
width = 820;
},
{
anchors = (
{
name = bottom;
pos = (411,0);
},
{
name = top;
pos = (411,710);
}
);
layerId = "E5B4AC11-8521-476B-8B52-54F023F880B1";
shapes = (
{
closed = 1;
nodes = (
(258,0,l),
(258,613,l),
(175,562,l),
(478,562,ls),
(547,562,o),
(581,532,o),
(581,472,cs),
(581,462,ls),
(581,401,o),
(547,371,o),
(478,371,cs),
(209,371,l),
(209,228,l),
(422,228,l),
(560,0,l),
(788,0,l),
(601,296,l),
(554,236,l),
(701,260,o),
(781,339,o),
(781,474,cs),
(781,627,o),
(685,710,o),
(496,710,cs),
(58,710,l),
(58,0,l)
);
}
);
width = 813;
}
);
note = R;
unicode = 82;
},
{
glyphname = S;
kernLeft = S;
kernRight = S;
lastChange = "2023-10-17 00:48:53 +0000";
layers = (
{
anchors = (
{
name = bottom;
pos = (297,0);
},
{
name = top;
pos = (297,710);
}
);
background = {
anchors = (
{
name = bottom;
pos = (301,0);
},
{
name = top;
pos = (303,720);
}
);
shapes = (
{
closed = 1;
nodes = (
(256,414,ls),
(172,436,o),
(142,478,o),
(142,537,cs),
(142,618,o),
(199,667,o),
(303,667,cs),
(407,667,o),
(461,620,o),
(469,531,c),
(546,531,l),
(538,668,o),
(436,732,o),
(304,732,cs),
(170,732,o),
(60,664,o),
(60,531,cs),
(60,443,o),
(109,374,o),
(227,343,cs),
(361,308,ls),
(438,288,o),
(481,261,o),
(481,188,cs),
(481,92,o),
(405,53,o),
(307,53,cs),
(203,53,o),
(118,101,o),
(112,209,c),
(32,209,l),
(38,64,o),
(144,-12,o),
(305,-12,cs),
(453,-12,o),
(563,53,o),
(563,191,cs),
(563,297,o),
(497,350,o),
(387,379,cs)
);
}
);
};
layerId = "E39CE873-C6CB-4040-8FBA-1D86B139B3E5";
shapes = (
{
closed = 1;
nodes = (
(444,-13,o),
(552,53,o),
(552,189,cs),
(552,296,o),
(492,354,o),
(378,383,cs),
(247,416,ls),
(166,436,o),
(135,478,o),
(135,535,cs),
(135,609,o),
(191,657,o),
(294,657,cs),
(393,657,o),
(449,610,o),
(458,519,c),
(536,522,l),
(528,658,o),
(425,722,o),
(293,722,cs),
(158,722,o),
(53,655,o),
(53,528,cs),
(53,450,o),
(101,374,o),
(219,345,cs),
(352,312,ls),
(426,294,o),
(470,265,o),
(470,186,cs),
(470,92,o),
(396,52,o),
(299,53,cs),
(206,54,o),
(124,102,o),
(118,208,c),
(38,203,l),
(43,65,o),
(148,-11,o),
(297,-12,cs)
);
}
);
width = 591;
},
{
anchors = (
{
name = bottom;
pos = (314,0);
},
{
name = top;
pos = (314,710);
}
);
layerId = "7F29FB76-5474-4FBC-BDD6-396388860F4A";
shapes = (
{
closed = 1;
nodes = (
(496,-12,o),
(606,69,o),
(606,215,cs),
(606,327,o),
(545,388,o),
(411,419,cs),
(282,449,ls),
(241,459,o),
(215,482,o),
(215,522,cs),
(215,562,o),
(254,590,o),
(312,590,cs),
(378,590,o),
(421,558,o),
(429,488,c),
(596,493,l),
(583,633,o),
(487,722,o),
(314,722,cs),
(146,722,o),
(39,637,o),
(39,500,cs),
(39,404,o),
(102,328,o),
(229,299,cs),
(360,269,ls),
(411,257,o),
(431,235,o),
(431,200,cs),
(431,147,o),
(389,120,o),
(330,120,cs),
(247,120,o),
(193,167,o),
(187,238,c),
(19,233,l),
(24,93,o),
(128,-12,o),
(324,-12,cs)
);
}
);
width = 632;
},
{
anchors = (
{
name = bottom;
pos = (192,0);
},
{
name = top;
pos = (183,710);
}
);
layerId = "C91C925B-D0D7-4075-AF07-39B2B48BEC27";
shapes = (
{
closed = 1;
nodes = (
(277,-12,o),
(349,36,o),
(349,167,cs),
(349,259,o),
(310,316,o),
(248,369,cs),
(187,421,ls),
(131,469,o),
(106,502,o),
(106,563,cs),
(106,627,o),
(135,661,o),
(188,661,cs),
(251,661,o),
(278,619,o),
(275,519,c),
(339,523,l),
(342,663,o),
(289,722,o),
(189,722,cs),
(105,722,o),
(37,668,o),
(37,556,cs),
(37,469,o),
(82,413,o),
(145,360,cs),
(201,313,ls),
(253,269,o),
(280,235,o),
(280,162,cs),
(280,124,o),
(270,47,o),
(192,48,cs),
(112,49,o),
(91,125,o),
(96,222,c),
(31,217,l),
(18,67,o),
(82,-12,o),
(193,-12,cs)
);
}
);
width = 378;
},
{
anchors = (
{
name = bottom;
pos = (230,0);
},
{
name = top;
pos = (224,710);
}
);
layerId = "B6DC6C93-7E5A-4350-AC8D-F1BB3AE9B4CB";
shapes = (
{
closed = 1;
nodes = (
(356,-12,o),
(435,59,o),
(435,193,cs),
(435,291,o),
(385,346,o),
(317,390,cs),
(242,438,ls),
(200,465,o),
(177,492,o),
(177,535,cs),
(177,575,o),
(195,600,o),
(226,600,cs),
(264,600,o),
(283,566,o),
(283,485,c),
(427,490,l),
(430,655,o),
(355,722,o),
(226,722,cs),
(108,722,o),
(26,645,o),
(26,525,cs),
(26,423,o),
(80,364,o),
(150,320,cs),
(219,276,ls),
(261,249,o),
(283,225,o),
(283,182,cs),
(283,135,o),
(264,110,o),
(226,111,cs),
(182,112,o),
(158,147,o),
(160,236,c),
(16,231,l),
(11,71,o),
(81,-12,o),
(229,-12,cs)
);
}
);
width = 453;
},
{
anchors = (
{
name = bottom;
pos = (399,0);
},
{
name = top;
pos = (399,710);
}
);
background = {
anchors = (
{
name = bottom;
pos = (285,0);
},
{
name = top;
pos = (287,720);
}
);
shapes = (
{
closed = 1;
nodes = (
(240,414,ls),
(156,436,o),
(126,478,o),
(126,537,cs),
(126,618,o),
(183,667,o),
(287,667,cs),
(391,667,o),
(445,620,o),
(453,531,c),
(530,531,l),
(522,668,o),
(420,732,o),
(288,732,cs),
(154,732,o),
(44,664,o),
(44,531,cs),
(44,443,o),
(93,374,o),
(211,343,cs),
(345,308,ls),
(422,288,o),
(465,261,o),
(465,188,cs),
(465,92,o),
(389,53,o),
(291,53,cs),
(187,53,o),
(102,101,o),
(96,209,c),
(16,209,l),
(22,64,o),
(128,-12,o),
(289,-12,cs),
(437,-12,o),
(547,53,o),
(547,191,cs),
(547,297,o),
(481,350,o),
(371,379,cs)
);
}
);
};
layerId = "AD0154C7-7101-4C76-975C-BE8A541C5FBC";
shapes = (
{
closed = 1;
nodes = (
(620,-12,o),
(755,58,o),
(755,192,cs),
(755,303,o),
(693,355,o),
(524,385,cs),
(325,420,ls),
(186,444,o),
(154,482,o),
(154,537,cs),
(154,604,o),
(224,647,o),
(384,647,cs),
(530,647,o),
(618,629,o),
(660,524,c),
(735,560,l),
(677,692,o),
(565,722,o),
(390,722,cs),
(193,722,o),
(62,655,o),
(62,529,cs),
(62,444,o),
(120,372,o),
(295,341,cs),
(495,306,ls),
(614,285,o),
(663,261,o),
(663,188,cs),
(663,102,o),
(573,63,o),
(408,63,cs),
(239,63,o),
(148,121,o),
(105,214,c),
(31,171,l),
(84,52,o),
(206,-12,o),
(410,-12,cs)
);
}
);
width = 797;
},
{
anchors = (
{
name = bottom;
pos = (423,0);
},
{
name = top;
pos = (423,710);
}
);
layerId = "E5B4AC11-8521-476B-8B52-54F023F880B1";
shapes = (
{
closed = 1;
nodes = (
(650,-12,o),
(804,66,o),
(804,223,cs),
(804,335,o),
(727,404,o),
(554,425,cs),
(342,451,ls),
(267,460,o),
(237,479,o),
(237,513,cs),
(237,551,o),
(301,573,o),
(400,573,cs),
(517,573,o),
(587,553,o),
(627,479,c),
(798,532,l),
(730,679,o),
(579,722,o),
(416,722,cs),
(189,722,o),
(42,646,o),
(42,493,cs),
(42,377,o),
(129,313,o),
(308,291,cs),
(501,267,ls),
(584,257,o),
(607,235,o),
(607,205,cs),
(607,165,o),
(546,137,o),
(430,137,cs),
(288,137,o),
(233,166,o),
(194,239,c),
(15,186,l),
(79,38,o),
(231,-12,o),
(418,-12,cs)
);
}
);
width = 834;
}
);
note = S;
unicode = 83;
},
{
glyphname = Germandbls;
kernLeft = H;
lastChange = "2023-10-17 00:48:53 +0000";
layers = (
{
layerId = "E39CE873-C6CB-4040-8FBA-1D86B139B3E5";
shapes = (
{
closed = 1;
nodes = (
(475,-12,o),
(549,87,o),
(549,205,cs),
(549,323,o),
(464,397,o),
(373,419,c),
(377,388,l),
(537,703,l),
(537,710,l),
(78,710,l),
(78,0,l),
(164,0,l),
(164,670,l),
(134,640,l),
(454,640,l),
(438,666,l),
(290,374,l),
(290,367,l),
(405,349,o),
(468,304,o),
(468,209,cs),
(468,59,o),
(358,47,o),
(232,72,c),
(232,0,l),
(256,-6,o),
(290,-12,o),
(329,-12,cs)
);
}
);
width = 593;
},
{
layerId = "7F29FB76-5474-4FBC-BDD6-396388860F4A";
shapes = (
{
closed = 1;
nodes = (
(501,-10,o),
(597,86,o),
(597,220,cs),
(597,323,o),
(534,402,o),
(435,436,c),
(451,363,l),
(589,700,l),
(589,710,l),
(51,710,l),
(51,0,l),
(231,0,l),
(231,634,l),
(171,574,l),
(434,574,l),
(395,630,l),
(292,361,l),
(292,351,l),
(383,338,o),
(420,297,o),
(420,246,cs),
(420,154,o),
(349,138,o),
(278,141,c),
(278,-4,l),
(303,-8,o),
(333,-10,o),
(353,-10,cs)
);
}
);
width = 626;
},
{
background = {
shapes = (
{
closed = 1;
nodes = (
(354,-10,o),
(404,78,o),
(404,206,cs),
(404,338,o),
(339,406,o),
(267,422,c),
(280,393,l),
(391,702,l),
(391,710,l),
(60,710,l),
(60,0,l),
(135,0,l),
(135,647,l),
(298,647,l),
(201,372,l),
(201,367,l),
(292,355,o),
(330,310,o),
(330,204,cs),
(330,83,o),
(289,54,o),
(233,54,cs),
(219,54,o),
(201,57,o),
(183,61,c),
(183,0,l),
(204,-6,o),
(226,-10,o),
(245,-10,cs)
);
}
);
};
layerId = "C91C925B-D0D7-4075-AF07-39B2B48BEC27";
shapes = (
{
closed = 1;
nodes = (
(341,-10,o),
(394,78,o),
(394,206,cs),
(394,333,o),
(333,401,o),
(265,420,c),
(269,391,l),
(381,708,l),
(381,710,l),
(52,710,l),
(52,0,l),
(122,0,l),
(122,675,l),
(99,650,l),
(316,650,l),
(300,673,l),
(194,372,l),
(194,369,l),
(285,357,o),
(322,310,o),
(322,204,cs),
(322,70,o),
(267,42,o),
(171,60,c),
(171,0,l),
(192,-6,o),
(214,-10,o),
(233,-10,cs)
);
}
);
width = 419;
},
{
layerId = "B6DC6C93-7E5A-4350-AC8D-F1BB3AE9B4CB";
shapes = (
{
closed = 1;
nodes = (
(398,-9,o),
(489,67,o),
(489,221,cs),
(489,316,o),
(450,398,o),
(354,432,c),
(372,368,l),
(477,706,l),
(477,710,l),
(37,710,l),
(37,0,l),
(195,0,l),
(195,629,l),
(144,578,l),
(349,578,l),
(319,627,l),
(238,357,l),
(238,353,l),
(284,338,o),
(331,301,o),
(331,224,cs),
(331,137,o),
(281,118,o),
(236,123,c),
(236,-3,l),
(258,-8,o),
(278,-9,o),
(293,-9,cs)
);
}
);
width = 509;
},
{
layerId = "AD0154C7-7101-4C76-975C-BE8A541C5FBC";
shapes = (
{
closed = 1;
nodes = (
(639,-12,o),
(742,80,o),
(742,210,cs),
(742,322,o),
(665,408,o),
(456,429,c),
(469,391,l),
(731,701,l),
(731,710,l),
(85,710,l),
(85,0,l),
(180,0,l),
(180,670,l),
(121,635,l),
(627,635,l),
(598,662,l),
(353,376,l),
(353,367,l),
(573,354,o),
(648,307,o),
(648,206,cs),
(648,62,o),
(468,53,o),
(267,78,c),
(267,0,l),
(311,-6,o),
(373,-12,o),
(418,-12,cs)
);
}
);
width = 788;
},
{
layerId = "E5B4AC11-8521-476B-8B52-54F023F880B1";
shapes = (
{
closed = 1;
nodes = (
(674,-10,o),
(790,88,o),
(790,234,cs),
(790,330,o),
(725,427,o),
(572,456,c),
(572,377,l),
(773,698,l),
(773,710,l),
(58,710,l),
(58,0,l),
(258,0,l),
(258,635,l),
(197,562,l),
(549,562,l),
(528,627,l),
(366,363,l),
(366,351,l),
(528,340,o),
(589,299,o),
(589,240,cs),
(589,156,o),
(495,130,o),
(323,145,c),
(323,-4,l),
(357,-8,o),
(397,-10,o),
(432,-10,cs)
);
}
);
width = 822;
}
);
unicode = 7838;
},
{
glyphname = T;
kernLeft = T;
kernRight = T;
lastChange = "2023-10-17 00:48:53 +0000";
layers = (
{
anchors = (
{
name = bottom;
pos = (298,0);
},
{
name = center;
pos = (298,355);
},
{
name = top;
pos = (298,710);
}
);
background = {
anchors = (
{
name = bottom;
pos = (336,0);
},
{
name = center;
pos = (337,360);
},
{
name = top;
pos = (336,720);
}
);
shapes = (
{
closed = 1;
nodes = (
(377,0,l),
(377,700,l),
(295,700,l),
(295,0,l)
);
},
{
closed = 1;
nodes = (
(638,648,l),
(638,720,l),
(34,720,l),
(34,648,l)
);
}
);
};
layerId = "E39CE873-C6CB-4040-8FBA-1D86B139B3E5";
shapes = (
{
closed = 1;
nodes = (
(341,0,l),
(341,640,l),
(576,640,l),
(576,710,l),
(20,710,l),
(20,640,l),
(255,640,l),
(255,0,l)
);
}
);
width = 596;
},
{
anchors = (
{
name = bottom;
pos = (304,0);
},
{
name = center;
pos = (304,355);
},
{
name = top;
pos = (304,710);
}
);
layerId = "7F29FB76-5474-4FBC-BDD6-396388860F4A";
shapes = (
{
closed = 1;
nodes = (
(393,0,l),
(393,574,l),
(593,574,l),
(593,710,l),
(13,710,l),
(13,574,l),
(213,574,l),
(213,0,l)
);
}
);
width = 606;
},
{
anchors = (
{
name = bottom;
pos = (181,0);
},
{
name = center;
pos = (181,355);
},
{
name = top;
pos = (181,710);
}
);
layerId = "C91C925B-D0D7-4075-AF07-39B2B48BEC27";
shapes = (
{
closed = 1;
nodes = (
(215,0,l),
(215,650,l),
(345,650,l),
(345,710,l),
(15,710,l),
(15,650,l),
(145,650,l),
(145,0,l)
);
}
);
width = 360;
},
{
anchors = (
{
name = bottom;
pos = (212,0);
},
{
name = center;
pos = (212,355);
},
{
name = top;
pos = (212,710);
}
);
layerId = "B6DC6C93-7E5A-4350-AC8D-F1BB3AE9B4CB";
shapes = (
{
closed = 1;
nodes = (
(291,0,l),
(291,578,l),
(413,578,l),
(413,710,l),
(11,710,l),
(11,578,l),
(133,578,l),
(133,0,l)
);
}
);
width = 424;
},
{
anchors = (
{
name = bottom;
pos = (378,0);
},
{
name = center;
pos = (378,355);
},
{
name = top;
pos = (378,710);
}
);
background = {
anchors = (
{
name = bottom;
pos = (316,0);
},
{
name = center;
pos = (317,360);
},
{
name = top;
pos = (316,720);
}
);
shapes = (
{
closed = 1;
nodes = (
(357,0,l),
(357,700,l),
(275,700,l),
(275,0,l)
);
},
{
closed = 1;
nodes = (
(618,648,l),
(618,720,l),
(14,720,l),
(14,648,l)
);
}
);
};
layerId = "AD0154C7-7101-4C76-975C-BE8A541C5FBC";
shapes = (
{
closed = 1;
nodes = (
(425,0,l),
(425,635,l),
(733,635,l),
(733,710,l),
(22,710,l),
(22,635,l),
(330,635,l),
(330,0,l)
);
}
);
width = 755;
},
{
anchors = (
{
name = bottom;
pos = (398,0);
},
{
name = center;
pos = (398,355);
},
{
name = top;
pos = (398,710);
}
);
layerId = "E5B4AC11-8521-476B-8B52-54F023F880B1";
shapes = (
{
closed = 1;
nodes = (
(498,0,l),
(498,562,l),
(780,562,l),
(780,710,l),
(16,710,l),
(16,562,l),
(298,562,l),
(298,0,l)
);
}
);
width = 796;
}
);
note = T;
unicode = 84;
},
{
glyphname = Tbar;
kernLeft = T;
kernRight = T;
lastChange = "2023-10-17 00:48:53 +0000";
layers = (
{
layerId = "E39CE873-C6CB-4040-8FBA-1D86B139B3E5";
shapes = (
{
closed = 1;
nodes = (
(481,331,l),
(481,397,l),
(123,397,l),
(123,331,l)
);
},
{
pos = (4,0);
ref = T;
}
);
width = 604;
},
{
layerId = "7F29FB76-5474-4FBC-BDD6-396388860F4A";
shapes = (
{
closed = 1;
nodes = (
(530,294,l),
(530,417,l),
(84,417,l),
(84,294,l)
);
},
{
pos = (4,0);
ref = T;
}
);
width = 614;
},
{
layerId = "C91C925B-D0D7-4075-AF07-39B2B48BEC27";
shapes = (
{
closed = 1;
nodes = (
(302,338,l),
(302,394,l),
(66,394,l),
(66,338,l)
);
},
{
pos = (4,0);
ref = T;
}
);
width = 368;
},
{
layerId = "B6DC6C93-7E5A-4350-AC8D-F1BB3AE9B4CB";
shapes = (
{
closed = 1;
nodes = (
(372,296,l),
(372,415,l),
(58,415,l),
(58,296,l)
);
},
{
pos = (3,0);
ref = T;
}
);
width = 430;
},
{
layerId = "AD0154C7-7101-4C76-975C-BE8A541C5FBC";
shapes = (
{
closed = 1;
nodes = (
(598,331,l),
(598,397,l),
(165,397,l),
(165,331,l)
);
},
{
pos = (4,0);
ref = T;
}
);
width = 763;
},
{
layerId = "E5B4AC11-8521-476B-8B52-54F023F880B1";
shapes = (
{
closed = 1;
nodes = (
(675,290,l),
(675,420,l),
(127,420,l),
(127,290,l)
);
},
{
pos = (3,0);
ref = T;
}
);
width = 802;
}
);
unicode = 358;
},
{
glyphname = U;
kernLeft = U;
kernRight = U;
lastChange = "2023-10-17 00:48:53 +0000";
layers = (
{
anchors = (
{
name = bottom;
pos = (328,0);
},
{
name = ogonek;
pos = (492,0);
},
{
name = top;
pos = (328,710);
},
{
name = topright;
pos = (632,710);
}
);
background = {
anchors = (
{
name = bottom;
pos = (341,0);
},
{
name = ogonek;
pos = (473,10);
},
{
name = top;
pos = (341,720);
},
{
name = topright;
pos = (680,720);
}
);
shapes = (
{
closed = 1;
nodes = (
(615,720,l),
(533,720,l),
(533,273,ls),
(533,118,o),
(457,60,o),
(341,60,cs),
(226,60,o),
(149,118,o),
(149,273,cs),
(149,720,l),
(67,720,l),
(67,272,ls),
(67,75,o),
(166,-12,o),
(341,-12,cs),
(518,-12,o),
(615,75,o),
(615,270,cs)
);
}
);
};
layerId = "E39CE873-C6CB-4040-8FBA-1D86B139B3E5";
shapes = (
{
closed = 1;
nodes = (
(491,-12,o),
(583,70,o),
(583,257,cs),
(583,710,l),
(499,710,l),
(499,241,ls),
(499,113,o),
(431,57,o),
(328,57,cs),
(225,57,o),
(158,113,o),
(158,241,cs),
(158,710,l),
(72,710,l),
(72,259,ls),
(72,71,o),
(166,-12,o),
(328,-12,cs)
);
}
);
width = 655;
},
{
anchors = (
{
name = bottom;
pos = (331,0);
},
{
name = ogonek;
pos = (518,0);
},
{
name = top;
pos = (331,710);
},
{
name = topright;
pos = (651,710);
}
);
layerId = "7F29FB76-5474-4FBC-BDD6-396388860F4A";
shapes = (
{
closed = 1;
nodes = (
(510,-12,o),
(617,75,o),
(617,255,cs),
(617,710,l),
(439,710,l),
(439,277,ls),
(439,186,o),
(416,132,o),
(332,132,cs),
(246,132,o),
(225,186,o),
(225,277,cs),
(225,710,l),
(45,710,l),
(45,256,ls),
(45,75,o),
(153,-12,o),
(331,-12,cs)
);
}
);
width = 662;
},
{
anchors = (
{
name = bottom;
pos = (213,0);
},
{
name = ogonek;
pos = (317,0);
},
{
name = top;
pos = (213,710);
},
{
name = topright;
pos = (399,710);
}
);
layerId = "C91C925B-D0D7-4075-AF07-39B2B48BEC27";
shapes = (
{
closed = 1;
nodes = (
(322,-12,o),
(375,46,o),
(375,171,cs),
(375,710,l),
(309,710,l),
(309,159,ls),
(309,80,o),
(271,50,o),
(213,50,cs),
(155,50,o),
(120,81,o),
(120,159,cs),
(120,710,l),
(50,710,l),
(50,171,ls),
(50,46,o),
(101,-12,o),
(212,-12,cs)
);
}
);
width = 425;
},
{
anchors = (
{
name = bottom;
pos = (247,0);
},
{
name = ogonek;
pos = (395,0);
},
{
name = top;
pos = (247,710);
},
{
name = topright;
pos = (475,710);
}
);
layerId = "B6DC6C93-7E5A-4350-AC8D-F1BB3AE9B4CB";
shapes = (
{
closed = 1;
nodes = (
(380,-12,o),
(459,53,o),
(459,188,cs),
(459,710,l),
(306,710,l),
(306,201,ls),
(306,151,o),
(293,124,o),
(250,124,cs),
(206,124,o),
(193,151,o),
(193,201,cs),
(193,710,l),
(35,710,l),
(35,188,ls),
(35,53,o),
(113,-12,o),
(245,-12,cs)
);
}
);
width = 494;
},
{
anchors = (
{
name = bottom;
pos = (414,0);
},
{
name = ogonek;
pos = (635,0);
},
{
name = top;
pos = (414,710);
},
{
name = topright;
pos = (788,710);
}
);
background = {
anchors = (
{
name = bottom;
pos = (325,0);
},
{
name = ogonek;
pos = (584,10);
},
{
name = top;
pos = (325,710);
},
{
name = topright;
pos = (629,710);
}
);
shapes = (
{
ref = H;
}
);
};
layerId = "AD0154C7-7101-4C76-975C-BE8A541C5FBC";
shapes = (
{
closed = 1;
nodes = (
(635,-12,o),
(750,71,o),
(750,286,cs),
(750,710,l),
(655,710,l),
(655,272,ls),
(655,119,o),
(558,63,o),
(413,63,cs),
(268,63,o),
(172,119,o),
(172,272,cs),
(172,710,l),
(77,710,l),
(77,288,ls),
(77,72,o),
(195,-12,o),
(414,-12,cs)
);
}
);
width = 828;
},
{
anchors = (
{
name = bottom;
pos = (425,0);
},
{
name = ogonek;
pos = (663,0);
},
{
name = top;
pos = (425,710);
},
{
name = topright;
pos = (827,710);
}
);
background = {
shapes = (
{
pos = (-8,0);
ref = H;
}
);
};
layerId = "E5B4AC11-8521-476B-8B52-54F023F880B1";
shapes = (
{
closed = 1;
nodes = (
(659,-12,o),
(799,74,o),
(799,284,cs),
(799,710,l),
(604,710,l),
(604,293,ls),
(604,199,o),
(564,142,o),
(427,142,cs),
(287,142,o),
(251,199,o),
(251,293,cs),
(251,710,l),
(51,710,l),
(51,284,ls),
(51,74,o),
(192,-12,o),
(424,-12,cs)
);
}
);
width = 850;
}
);
note = U;
unicode = 85;
},
{
glyphname = Uogonek;
kernLeft = U;
kernRight = U;
lastChange = "2023-10-17 00:48:53 +0000";
layers = (
{
layerId = "E39CE873-C6CB-4040-8FBA-1D86B139B3E5";
shapes = (
{
closed = 1;
nodes = (
(522,-106,l),
(487,-109,o),
(446,-98,o),
(446,-51,cs),
(446,-14,o),
(467,10,o),
(502,42,cs),
(552,88,o),
(583,153,o),
(583,257,cs),
(583,710,l),
(499,710,l),
(499,241,ls),
(499,113,o),
(431,57,o),
(328,57,cs),
(225,57,o),
(158,113,o),
(158,241,cs),
(158,710,l),
(72,710,l),
(72,259,ls),
(72,71,o),
(166,-12,o),
(328,-12,cs),
(358,-12,o),
(385,-9,o),
(410,-4,c),
(393,-25,o),
(382,-51,o),
(382,-76,cs),
(382,-159,o),
(466,-170,o),
(522,-158,c)
);
}
);
width = 655;
},
{
layerId = "7F29FB76-5474-4FBC-BDD6-396388860F4A";
shapes = (
{
closed = 1;
nodes = (
(552,-74,l),
(526,-81,o),
(477,-82,o),
(477,-34,cs),
(477,-12,o),
(479,5,o),
(528,49,cs),
(577,93,o),
(617,159,o),
(617,255,cs),
(617,710,l),
(439,710,l),
(439,277,ls),
(439,186,o),
(416,132,o),
(332,132,cs),
(246,132,o),
(225,186,o),
(225,277,cs),
(225,710,l),
(45,710,l),
(45,256,ls),
(45,75,o),
(153,-12,o),
(331,-12,cs),
(358,-12,o),
(383,-10,o),
(406,-6,c),
(381,-30,o),
(363,-59,o),
(363,-88,cs),
(363,-182,o),
(484,-181,o),
(552,-161,c)
);
}
);
width = 662;
},
{
layerId = "C91C925B-D0D7-4075-AF07-39B2B48BEC27";
shapes = (
{
closed = 1;
nodes = (
(336,-111,l),
(308,-113,o),
(287,-103,o),
(287,-67,cs),
(287,-50,o),
(291,-8,o),
(323,26,cs),
(358,64,o),
(375,107,o),
(375,171,cs),
(375,710,l),
(309,710,l),
(309,159,ls),
(309,80,o),
(271,50,o),
(213,50,cs),
(155,50,o),
(120,81,o),
(120,159,cs),
(120,710,l),
(50,710,l),
(50,171,ls),
(50,46,o),
(101,-12,o),
(212,-12,cs),
(230,-12,o),
(246,-11,o),
(259,-8,c),
(245,-28,o),
(232,-57,o),
(232,-87,cs),
(232,-145,o),
(282,-164,o),
(336,-157,c)
);
}
);
width = 425;
},
{
layerId = "B6DC6C93-7E5A-4350-AC8D-F1BB3AE9B4CB";
shapes = (
{
closed = 1;
nodes = (
(414,-87,l),
(381,-89,o),
(352,-81,o),
(352,-41,cs),
(352,-20,o),
(360,1,o),
(390,28,cs),
(428,61,o),
(459,113,o),
(459,188,cs),
(459,710,l),
(306,710,l),
(306,201,ls),
(306,151,o),
(293,124,o),
(250,124,cs),
(206,124,o),
(193,151,o),
(193,201,cs),
(193,710,l),
(35,710,l),
(35,188,ls),
(35,53,o),
(113,-12,o),
(245,-12,cs),
(263,-12,o),
(280,-11,o),
(296,-8,c),
(278,-25,o),
(261,-52,o),
(261,-83,cs),
(261,-156,o),
(341,-176,o),
(414,-165,c)
);
}
);
width = 494;
},
{
layerId = "AD0154C7-7101-4C76-975C-BE8A541C5FBC";
shapes = (
{
closed = 1;
nodes = (
(664,-96,l),
(626,-103,o),
(570,-101,o),
(570,-54,cs),
(570,-19,o),
(592,10,o),
(649,54,cs),
(706,98,o),
(750,169,o),
(750,286,cs),
(750,710,l),
(655,710,l),
(655,272,ls),
(655,119,o),
(558,63,o),
(413,63,cs),
(268,63,o),
(172,119,o),
(172,272,cs),
(172,710,l),
(77,710,l),
(77,288,ls),
(77,72,o),
(195,-12,o),
(414,-12,cs),
(460,-12,o),
(499,-8,o),
(531,-1,c),
(516,-19,o),
(497,-44,o),
(497,-76,cs),
(497,-159,o),
(602,-170,o),
(664,-150,c)
);
}
);
width = 828;
},
{
background = {
shapes = (
{
closed = 1;
nodes = (
(654,-12,o),
(794,74,o),
(794,284,cs),
(794,710,l),
(599,710,l),
(599,293,ls),
(599,199,o),
(559,142,o),
(422,142,cs),
(282,142,o),
(246,199,o),
(246,293,cs),
(246,710,l),
(46,710,l),
(46,284,ls),
(46,74,o),
(187,-12,o),
(419,-12,cs)
);
},
{
closed = 1;
nodes = (
(696,-71,l),
(662,-78,o),
(605,-77,o),
(605,-31,cs),
(605,-17,o),
(610,3,o),
(675,44,c),
(523,5,l),
(523,-5,l),
(497,-18,o),
(465,-49,o),
(465,-86,cs),
(465,-181,o),
(612,-183,o),
(696,-159,c)
);
}
);
};
layerId = "E5B4AC11-8521-476B-8B52-54F023F880B1";
shapes = (
{
closed = 1;
nodes = (
(701,-71,l),
(667,-78,o),
(610,-77,o),
(610,-31,cs),
(610,-17,o),
(615,2,o),
(680,44,cs),
(753,91,o),
(799,169,o),
(799,284,cs),
(799,710,l),
(604,710,l),
(604,293,ls),
(604,199,o),
(564,142,o),
(427,142,cs),
(287,142,o),
(251,199,o),
(251,293,cs),
(251,710,l),
(51,710,l),
(51,284,ls),
(51,74,o),
(192,-12,o),
(424,-12,cs),
(461,-12,o),
(495,-10,o),
(527,-6,c),
(501,-19,o),
(470,-50,o),
(470,-86,cs),
(470,-181,o),
(617,-183,o),
(701,-159,c)
);
}
);
width = 850;
}
);
unicode = 370;
},
{
glyphname = V;
lastChange = "2023-10-17 00:48:53 +0000";
layers = (
{
anchors = (
{
name = bottom;
pos = (315,0);
},
{
name = top;
pos = (315,710);
}
);
background = {
anchors = (
{
name = bottom;
pos = (333,0);
},
{
name = top;
pos = (333,720);
}
);
shapes = (
{
closed = 1;
nodes = (
(281,0,l),
(384,0,l),
(655,718,l),
(569,718,l),
(336,88,l),
(330,88,l),
(96,720,l),
(10,720,l)
);
}
);
};
layerId = "E39CE873-C6CB-4040-8FBA-1D86B139B3E5";
shapes = (
{
closed = 1;
nodes = (
(364,0,l),
(616,710,l),
(526,710,l),
(314,91,l),
(317,91,l),
(104,710,l),
(14,710,l),
(265,0,l)
);
}
);
width = 629;
},
{
anchors = (
{
name = bottom;
pos = (345,0);
},
{
name = top;
pos = (345,710);
}
);
layerId = "7F29FB76-5474-4FBC-BDD6-396388860F4A";
shapes = (
{
closed = 1;
nodes = (
(446,0,l),
(689,710,l),
(504,710,l),
(345,208,l),
(348,208,l),
(189,710,l),
(1,710,l),
(244,0,l)
);
}
);
width = 690;
},
{
anchors = (
{
name = bottom;
pos = (192,0);
},
{
name = top;
pos = (192,710);
}
);
layerId = "C91C925B-D0D7-4075-AF07-39B2B48BEC27";
shapes = (
{
closed = 1;
nodes = (
(239,0,l),
(369,710,l),
(300,710,l),
(187,55,l),
(198,55,l),
(86,710,l),
(15,710,l),
(145,0,l)
);
}
);
width = 384;
},
{
anchors = (
{
name = bottom;
pos = (248,0);
},
{
name = top;
pos = (248,710);
}
);
layerId = "B6DC6C93-7E5A-4350-AC8D-F1BB3AE9B4CB";
shapes = (
{
closed = 1;
nodes = (
(351,0,l),
(490,710,l),
(342,710,l),
(245,106,l),
(262,106,l),
(165,710,l),
(5,710,l),
(144,0,l)
);
}
);
width = 495;
},
{
anchors = (
{
name = bottom;
pos = (409,0);
},
{
name = top;
pos = (409,710);
}
);
background = {
anchors = (
{
name = bottom;
pos = (343,0);
},
{
name = top;
pos = (343,720);
}
);
shapes = (
{
closed = 1;
nodes = (
(291,0,l),
(394,0,l),
(665,718,l),
(579,718,l),
(346,88,l),
(340,88,l),
(106,720,l),
(20,720,l)
);
}
);
};
layerId = "AD0154C7-7101-4C76-975C-BE8A541C5FBC";
shapes = (
{
closed = 1;
nodes = (
(457,0,l),
(808,710,l),
(710,710,l),
(397,69,l),
(424,69,l),
(111,710,l),
(10,710,l),
(361,0,l)
);
}
);
width = 818;
},
{
anchors = (
{
name = bottom;
pos = (453,0);
},
{
name = top;
pos = (453,710);
}
);
layerId = "E5B4AC11-8521-476B-8B52-54F023F880B1";
shapes = (
{
closed = 1;
nodes = (
(561,0,l),
(907,710,l),
(701,710,l),
(434,137,l),
(483,137,l),
(216,710,l),
(-2,710,l),
(344,0,l)
);
}
);
width = 905;
}
);
note = V;
unicode = 86;
},
{
glyphname = W;
kernLeft = W;
kernRight = W;
lastChange = "2023-10-17 00:48:53 +0000";
layers = (
{
anchors = (
{
name = bottom;
pos = (451,0);
},
{
name = top;
pos = (451,710);
}
);
background = {
anchors = (
{
name = bottom;
pos = (479,0);
},
{
name = top;
pos = (479,720);
}
);
shapes = (
{
closed = 1;
nodes = (
(298,0,l),
(478,590,l),
(480,590,l),
(659,0,l),
(757,0,l),
(946,720,l),
(863,720,l),
(709,107,l),
(707,107,l),
(520,720,l),
(440,720,l),
(253,107,l),
(251,107,l),
(97,720,l),
(11,720,l),
(200,0,l)
);
}
);
};
guides = (
{
pos = (419,107);
}
);
layerId = "E39CE873-C6CB-4040-8FBA-1D86B139B3E5";
shapes = (
{
closed = 1;
nodes = (
(291,0,l),
(451,588,l),
(450,588,l),
(610,0,l),
(710,0,l),
(882,710,l),
(795,710,l),
(658,109,l),
(659,109,l),
(493,710,l),
(410,710,l),
(244,109,l),
(245,109,l),
(108,710,l),
(19,710,l),
(191,0,l)
);
}
);
width = 901;
},
{
anchors = (
{
name = bottom;
pos = (473,0);
},
{
name = top;
pos = (473,710);
}
);
layerId = "7F29FB76-5474-4FBC-BDD6-396388860F4A";
shapes = (
{
closed = 1;
nodes = (
(367,0,l),
(474,488,l),
(472,488,l),
(579,0,l),
(787,0,l),
(930,710,l),
(753,710,l),
(673,214,l),
(677,214,l),
(565,710,l),
(380,710,l),
(268,214,l),
(272,214,l),
(192,710,l),
(16,710,l),
(159,0,l)
);
}
);
width = 946;
},
{
anchors = (
{
name = bottom;
pos = (310,0);
},
{
name = top;
pos = (310,710);
}
);
layerId = "C91C925B-D0D7-4075-AF07-39B2B48BEC27";
shapes = (
{
closed = 1;
nodes = (
(215,0,l),
(312,632,l),
(310,632,l),
(405,0,l),
(500,0,l),
(600,710,l),
(529,710,l),
(450,60,l),
(458,60,l),
(359,710,l),
(265,710,l),
(166,60,l),
(173,60,l),
(94,710,l),
(20,710,l),
(120,0,l)
);
}
);
width = 620;
},
{
anchors = (
{
name = bottom;
pos = (356,0);
},
{
name = top;
pos = (356,710);
}
);
layerId = "B6DC6C93-7E5A-4350-AC8D-F1BB3AE9B4CB";
shapes = (
{
closed = 1;
nodes = (
(291,0,l),
(373,599,l),
(339,599,l),
(420,0,l),
(607,0,l),
(702,710,l),
(559,710,l),
(513,157,l),
(527,157,l),
(452,710,l),
(267,710,l),
(192,157,l),
(206,157,l),
(160,710,l),
(9,710,l),
(104,0,l)
);
}
);
width = 711;
},
{
anchors = (
{
name = bottom;
pos = (625,0);
},
{
name = top;
pos = (625,710);
}
);
background = {
anchors = (
{
name = bottom;
pos = (440,0);
},
{
name = top;
pos = (440,720);
}
);
shapes = (
{
closed = 1;
nodes = (
(259,0,l),
(439,590,l),
(441,590,l),
(620,0,l),
(718,0,l),
(907,720,l),
(824,720,l),
(670,107,l),
(668,107,l),
(481,720,l),
(401,720,l),
(214,107,l),
(212,107,l),
(58,720,l),
(-28,720,l),
(161,0,l)
);
}
);
};
guides = (
{
angle = 180;
pos = (368,107);
}
);
layerId = "AD0154C7-7101-4C76-975C-BE8A541C5FBC";
shapes = (
{
closed = 1;
nodes = (
(388,0,l),
(635,642,l),
(615,642,l),
(862,0,l),
(974,0,l),
(1231,710,l),
(1135,710,l),
(905,61,l),
(930,61,l),
(680,710,l),
(575,710,l),
(325,61,l),
(350,61,l),
(120,710,l),
(19,710,l),
(276,0,l)
);
}
);
width = 1250;
},
{
anchors = (
{
name = bottom;
pos = (649,0);
},
{
name = top;
pos = (649,710);
}
);
guides = (
{
pos = (695,188);
}
);
layerId = "E5B4AC11-8521-476B-8B52-54F023F880B1";
shapes = (
{
closed = 1;
nodes = (
(483,0,l),
(669,545,l),
(626,545,l),
(811,0,l),
(1053,0,l),
(1296,710,l),
(1089,710,l),
(919,128,l),
(956,129,l),
(756,710,l),
(551,710,l),
(351,129,l),
(388,128,l),
(218,710,l),
(1,710,l),
(244,0,l)
);
}
);
width = 1297;
}
);
note = W;
unicode = 87;
},
{
glyphname = X;
lastChange = "2023-10-17 00:48:53 +0000";
layers = (
{
anchors = (
{
name = bottom;
pos = (299,0);
},
{
name = top;
pos = (299,710);
}
);
background = {
anchors = (
{
name = bottom;
pos = (313,0);
},
{
name = top;
pos = (313,720);
}
);
shapes = (
{
closed = 1;
nodes = (
(612,0,l),
(349,377,l),
(318,408,l),
(108,720,l),
(13,720,l),
(277,343,l),
(307,312,l),
(517,0,l)
);
},
{
closed = 1;
nodes = (
(107,0,l),
(318,312,l),
(348,343,l),
(613,720,l),
(518,720,l),
(307,408,l),
(276,377,l),
(12,0,l)
);
}
);
};
layerId = "E39CE873-C6CB-4040-8FBA-1D86B139B3E5";
shapes = (
{
closed = 1;
nodes = (
(107,0,l),
(296,296,l),
(484,0,l),
(586,0,l),
(350,357,l),
(584,710,l),
(487,710,l),
(301,415,l),
(114,710,l),
(12,710,l),
(246,357,l),
(10,0,l)
);
}
);
width = 596;
},
{
anchors = (
{
name = bottom;
pos = (329,0);
},
{
name = top;
pos = (329,710);
}
);
layerId = "7F29FB76-5474-4FBC-BDD6-396388860F4A";
shapes = (
{
closed = 1;
nodes = (
(203,0,l),
(328,220,l),
(453,0,l),
(660,0,l),
(434,356,l),
(659,710,l),
(454,710,l),
(330,490,l),
(206,710,l),
(-2,710,l),
(224,355,l),
(-2,0,l)
);
}
);
width = 658;
},
{
anchors = (
{
name = bottom;
pos = (189,0);
},
{
name = top;
pos = (189,710);
}
);
layerId = "C91C925B-D0D7-4075-AF07-39B2B48BEC27";
shapes = (
{
closed = 1;
nodes = (
(80,0,l),
(189,295,l),
(300,0,l),
(369,0,l),
(232,358,l),
(368,710,l),
(296,710,l),
(189,420,l),
(82,710,l),
(11,710,l),
(147,358,l),
(10,0,l)
);
}
);
width = 379;
},
{
anchors = (
{
name = bottom;
pos = (244,0);
},
{
name = top;
pos = (244,710);
}
);
layerId = "B6DC6C93-7E5A-4350-AC8D-F1BB3AE9B4CB";
shapes = (
{
closed = 1;
nodes = (
(162,0,l),
(241,222,l),
(319,0,l),
(488,0,l),
(337,360,l),
(487,710,l),
(323,710,l),
(247,498,l),
(170,710,l),
(0,710,l),
(150,360,l),
(-1,0,l)
);
}
);
width = 487;
},
{
anchors = (
{
name = bottom;
pos = (380,0);
},
{
name = top;
pos = (380,710);
}
);
background = {
anchors = (
{
name = bottom;
pos = (312,0);
},
{
name = top;
pos = (312,720);
}
);
shapes = (
{
pos = (-1,0);
ref = V;
}
);
};
layerId = "AD0154C7-7101-4C76-975C-BE8A541C5FBC";
shapes = (
{
closed = 1;
nodes = (
(118,0,l),
(378,297,l),
(638,0,l),
(753,0,l),
(439,356,l),
(751,710,l),
(639,710,l),
(382,413,l),
(125,710,l),
(10,710,l),
(321,356,l),
(6,0,l)
);
}
);
width = 760;
},
{
anchors = (
{
name = bottom;
pos = (452,0);
},
{
name = top;
pos = (452,710);
}
);
guides = (
{
angle = 180;
pos = (634,362);
}
);
layerId = "E5B4AC11-8521-476B-8B52-54F023F880B1";
shapes = (
{
closed = 1;
nodes = (
(229,0,l),
(448,246,l),
(666,0,l),
(913,0,l),
(580,363,l),
(897,710,l),
(658,710,l),
(454,478,l),
(249,710,l),
(1,710,l),
(320,363,l),
(-10,0,l)
);
}
);
width = 901;
}
);
note = X;
unicode = 88;
},
{
glyphname = Y;
kernLeft = Y;
kernRight = Y;
lastChange = "2023-10-17 00:48:53 +0000";
layers = (
{
anchors = (
{
name = bottom;
pos = (300,0);
},
{
name = top;
pos = (300,710);
},
{
name = topleft;
pos = (24,710);
}
);
background = {
anchors = (
{
name = bottom;
pos = (317,0);
},
{
name = top;
pos = (317,720);
},
{
name = topleft;
pos = (10,720);
}
);
shapes = (
{
closed = 1;
nodes = (
(358,0,l),
(358,292,l),
(622,720,l),
(532,720,l),
(318,362,l),
(104,720,l),
(12,720,l),
(276,292,l),
(276,0,l)
);
}
);
};
layerId = "E39CE873-C6CB-4040-8FBA-1D86B139B3E5";
shapes = (
{
closed = 1;
nodes = (
(343,0,l),
(343,299,l),
(585,710,l),
(491,710,l),
(287,344,l),
(315,344,l),
(111,710,l),
(14,710,l),
(256,299,l),
(256,0,l)
);
}
);
width = 599;
},
{
anchors = (
{
name = bottom;
pos = (328,0);
},
{
name = top;
pos = (328,710);
},
{
name = topleft;
pos = (19,710);
}
);
layerId = "7F29FB76-5474-4FBC-BDD6-396388860F4A";
shapes = (
{
closed = 1;
nodes = (
(418,0,l),
(418,284,l),
(654,710,l),
(456,710,l),
(305,379,l),
(355,379,l),
(204,710,l),
(1,710,l),
(237,284,l),
(237,0,l)
);
}
);
width = 655;
},
{
anchors = (
{
name = bottom;
pos = (186,0);
},
{
name = top;
pos = (186,710);
},
{
name = topleft;
pos = (3,710);
}
);
guides = (
{
angle = 180;
pos = (235,299);
}
);
layerId = "C91C925B-D0D7-4075-AF07-39B2B48BEC27";
shapes = (
{
closed = 1;
nodes = (
(221,0,l),
(221,251,l),
(370,710,l),
(298,710,l),
(180,321,l),
(196,321,l),
(79,710,l),
(2,710,l),
(151,251,l),
(151,0,l)
);
}
);
width = 372;
},
{
anchors = (
{
name = bottom;
pos = (232,0);
},
{
name = top;
pos = (232,710);
},
{
name = topleft;
pos = (3,710);
}
);
layerId = "B6DC6C93-7E5A-4350-AC8D-F1BB3AE9B4CB";
shapes = (
{
closed = 1;
nodes = (
(311,0,l),
(311,235,l),
(469,710,l),
(305,710,l),
(219,374,l),
(245,374,l),
(159,710,l),
(-5,710,l),
(153,235,l),
(153,0,l)
);
}
);
width = 464;
},
{
anchors = (
{
name = bottom;
pos = (422,0);
},
{
name = top;
pos = (422,710);
},
{
name = topleft;
pos = (26,710);
}
);
background = {
anchors = (
{
name = bottom;
pos = (343,0);
},
{
name = top;
pos = (343,720);
},
{
name = topleft;
pos = (36,720);
}
);
shapes = (
{
pos = (26,0);
ref = V;
}
);
};
layerId = "AD0154C7-7101-4C76-975C-BE8A541C5FBC";
shapes = (
{
closed = 1;
nodes = (
(469,0,l),
(469,306,l),
(827,710,l),
(721,710,l),
(399,342,l),
(449,342,l),
(127,710,l),
(16,710,l),
(374,306,l),
(374,0,l)
);
}
);
width = 843;
},
{
anchors = (
{
name = bottom;
pos = (477,0);
},
{
name = top;
pos = (477,710);
},
{
name = topleft;
pos = (33,710);
}
);
layerId = "E5B4AC11-8521-476B-8B52-54F023F880B1";
shapes = (
{
closed = 1;
nodes = (
(577,0,l),
(577,300,l),
(953,710,l),
(716,710,l),
(418,380,l),
(540,380,l),
(242,710,l),
(1,710,l),
(377,300,l),
(377,0,l)
);
}
);
width = 954;
}
);
note = Y;
unicode = 89;
},
{
glyphname = Z;
kernLeft = Z;
kernRight = Z;
lastChange = "2023-10-17 00:48:53 +0000";
layers = (
{
anchors = (
{
name = bottom;
pos = (283,0);
},
{
name = center;
pos = (283,355);
},
{
name = top;
pos = (283,710);
}
);
background = {
anchors = (
{
name = bottom;
pos = (315,0);
},
{
name = center;
pos = (315,360);
},
{
name = top;
pos = (315,720);
}
);
shapes = (
{
closed = 1;
nodes = (
(585,0,l),
(585,72,l),
(98,72,l),
(110,28,l),
(578,659,l),
(578,720,l),
(49,720,l),
(49,648,l),
(529,648,l),
(516,701,l),
(42,61,l),
(42,0,l)
);
}
);
};
layerId = "E39CE873-C6CB-4040-8FBA-1D86B139B3E5";
shapes = (
{
closed = 1;
nodes = (
(533,0,l),
(533,70,l),
(129,70,l),
(526,648,l),
(526,710,l),
(37,710,l),
(37,640,l),
(427,640,l),
(31,62,l),
(31,0,l)
);
}
);
width = 563;
},
{
anchors = (
{
name = bottom;
pos = (291,0);
},
{
name = center;
pos = (291,355);
},
{
name = top;
pos = (291,710);
}
);
layerId = "7F29FB76-5474-4FBC-BDD6-396388860F4A";
shapes = (
{
closed = 1;
nodes = (
(553,0,l),
(553,136,l),
(229,136,l),
(544,588,l),
(544,710,l),
(33,710,l),
(33,574,l),
(342,574,l),
(27,123,l),
(27,0,l)
);
}
);
width = 579;
},
{
anchors = (
{
name = bottom;
pos = (165,0);
},
{
name = center;
pos = (165,355);
},
{
name = top;
pos = (165,710);
}
);
guides = (
{
angle = 175.9144;
pos = (20,225);
}
);
layerId = "C91C925B-D0D7-4075-AF07-39B2B48BEC27";
shapes = (
{
closed = 1;
nodes = (
(311,0,l),
(311,60,l),
(94,60,l),
(309,660,l),
(309,710,l),
(26,710,l),
(26,650,l),
(235,650,l),
(20,50,l),
(20,0,l)
);
}
);
width = 332;
},
{
anchors = (
{
name = bottom;
pos = (205,0);
},
{
name = center;
pos = (205,355);
},
{
name = top;
pos = (205,710);
}
);
layerId = "B6DC6C93-7E5A-4350-AC8D-F1BB3AE9B4CB";
shapes = (
{
closed = 1;
nodes = (
(390,0,l),
(390,132,l),
(190,132,l),
(386,601,l),
(386,710,l),
(22,710,l),
(22,578,l),
(216,578,l),
(20,109,l),
(20,0,l)
);
}
);
width = 409;
},
{
anchors = (
{
name = bottom;
pos = (394,0);
},
{
name = center;
pos = (394,355);
},
{
name = top;
pos = (394,710);
}
);
background = {
anchors = (
{
name = bottom;
pos = (315,0);
},
{
name = center;
pos = (315,360);
},
{
name = top;
pos = (315,720);
}
);
shapes = (
{
closed = 1;
nodes = (
(585,0,l),
(585,72,l),
(98,72,l),
(110,28,l),
(578,659,l),
(578,720,l),
(49,720,l),
(49,648,l),
(529,648,l),
(516,701,l),
(42,61,l),
(42,0,l)
);
}
);
};
layerId = "AD0154C7-7101-4C76-975C-BE8A541C5FBC";
shapes = (
{
closed = 1;
nodes = (
(749,0,l),
(749,75,l),
(168,75,l),
(743,645,l),
(743,710,l),
(38,710,l),
(38,635,l),
(613,635,l),
(38,65,l),
(38,0,l)
);
}
);
width = 784;
},
{
anchors = (
{
name = bottom;
pos = (418,0);
},
{
name = center;
pos = (418,355);
},
{
name = top;
pos = (418,710);
}
);
layerId = "E5B4AC11-8521-476B-8B52-54F023F880B1";
shapes = (
{
closed = 1;
nodes = (
(800,0,l),
(800,148,l),
(311,148,l),
(791,582,l),
(791,710,l),
(36,710,l),
(36,562,l),
(516,562,l),
(36,128,l),
(36,0,l)
);
}
);
width = 831;
}
);
note = Z;
unicode = 90;
},
{
glyphname = a;
kernLeft = a;
kernRight = a;
lastChange = "2023-10-17 00:48:53 +0000";
layers = (
{
anchors = (
{
name = bottom;
pos = (245,0);
},
{
name = ogonek;
pos = (432,0);
},
{
name = top;
pos = (240,504);
}
);
background = {
anchors = (
{
name = bottom;
pos = (270,0);
},
{
name = ogonek;
pos = (469,0);
},
{
name = top;
pos = (261,513);
}
);
shapes = (
{
closed = 1;
nodes = (
(469,0,l),
(457,80,ls),
(455,93,o),
(455,109,o),
(455,121,cs),
(455,324,ls),
(455,457,o),
(386,525,o),
(265,525,cs),
(154,525,o),
(76,467,o),
(62,369,c),
(138,369,l),
(151,432,o),
(196,460,o),
(262,460,cs),
(331,460,o),
(378,429,o),
(378,338,cs),
(378,93,l),
(380,93,l),
(393,0,l)
);
},
{
closed = 1;
nodes = (
(315,-9,o),
(390,50,o),
(400,108,c),
(400,195,l),
(378,195,l),
(378,95,o),
(292,53,o),
(223,53,cs),
(154,53,o),
(122,90,o),
(122,137,cs),
(122,191,o),
(163,211,o),
(236,224,cs),
(400,254,l),
(400,339,l),
(378,339,l),
(378,322,o),
(374,313,o),
(352,309,cs),
(213,284,ls),
(108,265,o),
(44,220,o),
(44,134,cs),
(44,43,o),
(118,-9,o),
(211,-9,cs)
);
}
);
};
layerId = "E39CE873-C6CB-4040-8FBA-1D86B139B3E5";
shapes = (
{
closed = 1;
nodes = (
(439,0,l),
(432,74,o),
(431,101,o),
(431,134,cs),
(431,324,ls),
(431,449,o),
(360,516,o),
(246,516,cs),
(142,516,o),
(69,457,o),
(52,371,c),
(124,357,l),
(138,420,o),
(181,450,o),
(240,450,cs),
(299,450,o),
(348,421,o),
(348,336,cs),
(348,79,l),
(350,79,l),
(362,0,l)
);
},
{
closed = 1;
nodes = (
(297,-9,o),
(366,45,o),
(388,152,c),
(348,159,l),
(348,92,o),
(283,53,o),
(214,53,cs),
(156,53,o),
(122,76,o),
(122,135,cs),
(122,188,o),
(162,212,o),
(225,229,cs),
(367,267,l),
(367,326,l),
(202,285,ls),
(97,259,o),
(39,213,o),
(39,131,cs),
(39,38,o),
(106,-9,o),
(197,-9,cs)
);
}
);
width = 495;
},
{
anchors = (
{
name = bottom;
pos = (268,0);
},
{
name = ogonek;
pos = (466,0);
},
{
name = top;
pos = (259,514);
}
);
background = {
shapes = (
{
closed = 1;
nodes = (
(503,0,l),
(497,74,o),
(497,112,o),
(497,155,cs),
(497,313,ls),
(497,444,o),
(429,526,o),
(268,526,cs),
(132,526,o),
(57,454,o),
(43,364,c),
(200,338,l),
(210,381,o),
(229,401,o),
(264,401,cs),
(301,401,o),
(320,379,o),
(320,344,cs),
(320,109,l),
(329,109,l),
(340,0,l)
);
},
{
closed = 1;
nodes = (
(268,-10,o),
(333,30,o),
(360,84,c),
(360,163,l),
(320,128,o),
(291,107,o),
(253,107,cs),
(222,107,o),
(206,127,o),
(206,153,cs),
(206,188,o),
(234,203,o),
(269,215,cs),
(335,237,l),
(335,325,l),
(207,298,ls),
(92,274,o),
(26,237,o),
(26,137,cs),
(26,48,o),
(88,-10,o),
(192,-10,cs)
);
}
);
};
layerId = "7F29FB76-5474-4FBC-BDD6-396388860F4A";
shapes = (
{
closed = 1;
nodes = (
(500,0,l),
(494,74,o),
(494,112,o),
(494,155,cs),
(494,316,ls),
(494,447,o),
(423,526,o),
(259,526,cs),
(119,526,o),
(44,454,o),
(32,361,c),
(191,338,l),
(200,381,o),
(218,401,o),
(256,401,cs),
(296,401,o),
(316,379,o),
(316,344,cs),
(316,108,l),
(322,108,l),
(335,0,l)
);
},
{
closed = 1;
nodes = (
(265,-10,o),
(330,22,o),
(358,96,c),
(316,164,l),
(316,125,o),
(284,106,o),
(254,106,cs),
(221,106,o),
(202,123,o),
(202,151,cs),
(202,182,o),
(224,199,o),
(266,212,cs),
(331,232,l),
(331,329,l),
(216,303,ls),
(91,275,o),
(22,232,o),
(22,139,cs),
(22,48,o),
(86,-10,o),
(187,-10,cs)
);
}
);
width = 534;
},
{
anchors = (
{
name = bottom;
pos = (169,0);
},
{
name = ogonek;
pos = (313,0);
},
{
name = top;
pos = (168,503);
}
);
layerId = "C91C925B-D0D7-4075-AF07-39B2B48BEC27";
shapes = (
{
closed = 1;
nodes = (
(314,0,l),
(311,75,o),
(311,99,o),
(311,130,cs),
(311,372,ls),
(311,466,o),
(264,516,o),
(176,516,cs),
(93,516,o),
(44,473,o),
(31,371,c),
(93,358,l),
(103,438,o),
(131,456,o),
(174,456,cs),
(213,456,o),
(242,436,o),
(242,370,cs),
(242,70,l),
(244,70,l),
(252,0,l)
);
},
{
closed = 1;
nodes = (
(216,-7,o),
(258,40,o),
(259,128,c),
(242,136,l),
(242,87,o),
(211,49,o),
(160,49,cs),
(118,49,o),
(96,71,o),
(96,132,cs),
(96,196,o),
(125,221,o),
(172,239,cs),
(257,272,l),
(257,332,l),
(144,289,ls),
(67,260,o),
(28,208,o),
(28,128,cs),
(28,41,o),
(71,-7,o),
(145,-7,cs)
);
}
);
width = 357;
},
{
anchors = (
{
name = bottom;
pos = (213,0);
},
{
name = ogonek;
pos = (381,0);
},
{
name = top;
pos = (216,514);
}
);
layerId = "B6DC6C93-7E5A-4350-AC8D-F1BB3AE9B4CB";
shapes = (
{
closed = 1;
nodes = (
(407,0,l),
(403,65,o),
(403,94,o),
(403,129,cs),
(403,337,ls),
(403,465,o),
(342,526,o),
(217,526,cs),
(95,526,o),
(31,456,o),
(23,355,c),
(166,342,l),
(170,390,o),
(182,411,o),
(210,411,cs),
(234,411,o),
(247,399,o),
(247,366,cs),
(247,104,l),
(250,104,l),
(261,0,l)
);
},
{
closed = 1;
nodes = (
(208,-9,o),
(262,24,o),
(275,114,c),
(247,140,l),
(247,110,o),
(231,94,o),
(207,94,cs),
(183,94,o),
(167,107,o),
(167,147,cs),
(167,188,o),
(187,205,o),
(218,221,cs),
(258,241,l),
(258,331,l),
(162,297,ls),
(72,265,o),
(15,230,o),
(15,133,cs),
(15,44,o),
(63,-9,o),
(144,-9,cs)
);
}
);
width = 434;
},
{
anchors = (
{
name = bottom;
pos = (316,0);
},
{
name = ogonek;
pos = (583,0);
},
{
name = top;
pos = (316,504);
}
);
background = {
anchors = (
{
name = bottom;
pos = (257,0);
},
{
name = ogonek;
pos = (456,0);
},
{
name = top;
pos = (248,513);
}
);
shapes = (
{
closed = 1;
nodes = (
(456,0,l),
(444,80,ls),
(442,93,o),
(442,109,o),
(442,121,cs),
(442,324,ls),
(442,457,o),
(373,525,o),
(252,525,cs),
(141,525,o),
(63,467,o),
(49,369,c),
(125,369,l),
(138,432,o),
(183,460,o),
(249,460,cs),
(318,460,o),
(365,429,o),
(365,338,cs),
(365,93,l),
(367,93,l),
(380,0,l)
);
},
{
closed = 1;
nodes = (
(302,-9,o),
(377,50,o),
(387,108,c),
(387,195,l),
(365,195,l),
(365,95,o),
(279,53,o),
(210,53,cs),
(141,53,o),
(109,90,o),
(109,137,cs),
(109,191,o),
(150,211,o),
(223,224,cs),
(387,254,l),
(387,339,l),
(365,339,l),
(365,322,o),
(361,313,o),
(339,309,cs),
(200,284,ls),
(95,265,o),
(31,220,o),
(31,134,cs),
(31,43,o),
(105,-9,o),
(198,-9,cs)
);
}
);
};
layerId = "AD0154C7-7101-4C76-975C-BE8A541C5FBC";
shapes = (
{
closed = 1;
nodes = (
(586,0,l),
(582,74,o),
(582,94,o),
(582,134,cs),
(582,319,ls),
(582,452,o),
(486,516,o),
(325,516,cs),
(172,516,o),
(79,457,o),
(53,366,c),
(140,353,l),
(159,417,o),
(226,450,o),
(322,450,cs),
(427,450,o),
(491,415,o),
(491,331,cs),
(491,88,l),
(492,88,l),
(500,0,l)
);
},
{
closed = 1;
nodes = (
(426,-9,o),
(539,49,o),
(538,172,c),
(491,193,l),
(491,98,o),
(399,57,o),
(272,57,cs),
(179,57,o),
(133,88,o),
(133,141,cs),
(133,187,o),
(165,213,o),
(251,224,cs),
(549,262,l),
(549,324,l),
(240,290,ls),
(112,276,o),
(42,223,o),
(42,140,cs),
(42,42,o),
(137,-9,o),
(269,-9,cs)
);
}
);
width = 651;
},
{
anchors = (
{
name = bottom;
pos = (347,0);
},
{
name = ogonek;
pos = (622,0);
},
{
name = top;
pos = (347,514);
}
);
background = {
shapes = (
{
closed = 1;
nodes = (
(499,0,l),
(493,74,o),
(493,112,o),
(493,155,cs),
(493,313,ls),
(493,444,o),
(425,526,o),
(264,526,cs),
(128,526,o),
(53,454,o),
(39,364,c),
(196,338,l),
(206,381,o),
(225,401,o),
(260,401,cs),
(297,401,o),
(316,379,o),
(316,344,cs),
(316,109,l),
(325,109,l),
(336,0,l)
);
},
{
closed = 1;
nodes = (
(264,-10,o),
(329,30,o),
(356,84,c),
(356,163,l),
(316,128,o),
(287,107,o),
(249,107,cs),
(218,107,o),
(202,127,o),
(202,153,cs),
(202,188,o),
(230,203,o),
(265,215,cs),
(331,237,l),
(331,325,l),
(203,298,ls),
(88,274,o),
(22,237,o),
(22,137,cs),
(22,48,o),
(84,-10,o),
(188,-10,cs)
);
}
);
};
layerId = "E5B4AC11-8521-476B-8B52-54F023F880B1";
shapes = (
{
closed = 1;
nodes = (
(653,0,l),
(647,50,o),
(646,82,o),
(646,155,cs),
(646,326,ls),
(646,457,o),
(541,526,o),
(348,526,cs),
(147,526,o),
(59,446,o),
(36,354,c),
(231,340,l),
(244,383,o),
(279,401,o),
(345,401,cs),
(416,401,o),
(452,379,o),
(452,331,cs),
(452,108,l),
(457,108,l),
(468,0,l)
);
},
{
closed = 1;
nodes = (
(402,-10,o),
(510,32,o),
(518,161,c),
(452,183,l),
(452,125,o),
(377,106,o),
(306,106,cs),
(249,106,o),
(226,124,o),
(226,151,cs),
(226,180,o),
(248,192,o),
(286,197,cs),
(479,221,l),
(479,329,l),
(237,305,ls),
(87,290,o),
(29,229,o),
(29,147,cs),
(29,46,o),
(124,-10,o),
(264,-10,cs)
);
}
);
width = 693;
}
);
note = a;
unicode = 97;
},
{
glyphname = aogonek;
kernLeft = a;
kernRight = a;
lastChange = "2023-10-17 00:48:53 +0000";
layers = (
{
background = {
shapes = (
{
ref = a;
},
{
pos = (307,0);
ref = ogonekcomb;
}
);
};
layerId = "E39CE873-C6CB-4040-8FBA-1D86B139B3E5";
shapes = (
{
closed = 1;
nodes = (
(450,-106,l),
(418,-109,o),
(387,-101,o),
(387,-66,cs),
(387,-40,o),
(407,-19,o),
(429,0,c),
(439,0,l),
(432,74,o),
(431,101,o),
(431,134,cs),
(431,324,ls),
(431,449,o),
(360,516,o),
(246,516,cs),
(142,516,o),
(69,457,o),
(52,371,c),
(124,357,l),
(138,420,o),
(181,450,o),
(240,450,cs),
(299,450,o),
(348,421,o),
(348,336,cs),
(348,79,l),
(350,79,l),
(362,0,l),
(405,0,l),
(392,24,l),
(356,-1,o),
(319,-39,o),
(319,-84,cs),
(319,-156,o),
(398,-171,o),
(450,-158,c)
);
},
{
closed = 1;
nodes = (
(297,-9,o),
(366,45,o),
(388,152,c),
(348,159,l),
(348,92,o),
(283,53,o),
(214,53,cs),
(156,53,o),
(122,76,o),
(122,135,cs),
(122,188,o),
(162,212,o),
(225,229,cs),
(367,267,l),
(367,326,l),
(202,285,ls),
(97,259,o),
(39,213,o),
(39,131,cs),
(39,38,o),
(106,-9,o),
(197,-9,cs)
);
}
);
width = 495;
},
{
background = {
shapes = (
{
ref = a;
},
{
pos = (305,0);
ref = ogonekcomb;
}
);
};
layerId = "7F29FB76-5474-4FBC-BDD6-396388860F4A";
shapes = (
{
closed = 1;
nodes = (
(501,-74,l),
(475,-80,o),
(433,-82,o),
(433,-47,cs),
(433,-31,o),
(446,-14,o),
(462,0,c),
(500,0,l),
(494,74,o),
(494,112,o),
(494,155,cs),
(494,316,ls),
(494,447,o),
(423,526,o),
(259,526,cs),
(119,526,o),
(44,454,o),
(32,361,c),
(191,338,l),
(200,381,o),
(218,401,o),
(256,401,cs),
(296,401,o),
(316,379,o),
(316,344,cs),
(316,108,l),
(322,108,l),
(335,0,l),
(424,0,l),
(401,26,l),
(354,-2,o),
(312,-44,o),
(312,-88,cs),
(312,-182,o),
(433,-181,o),
(501,-161,c)
);
},
{
closed = 1;
nodes = (
(265,-10,o),
(330,22,o),
(358,96,c),
(316,164,l),
(316,125,o),
(284,106,o),
(254,106,cs),
(221,106,o),
(202,123,o),
(202,151,cs),
(202,182,o),
(224,199,o),
(266,212,cs),
(331,232,l),
(331,329,l),
(216,303,ls),
(91,275,o),
(22,232,o),
(22,139,cs),
(22,48,o),
(86,-10,o),
(187,-10,cs)
);
}
);
width = 534;
},
{
background = {
shapes = (
{
ref = a;
},
{
pos = (213,0);
ref = ogonekcomb;
}
);
};
layerId = "C91C925B-D0D7-4075-AF07-39B2B48BEC27";
shapes = (
{
closed = 1;
nodes = (
(323,-110,l),
(298,-113,o),
(275,-101,o),
(275,-70,cs),
(275,-45,o),
(283,-20,o),
(297,0,c),
(314,0,l),
(311,75,o),
(311,99,o),
(311,130,cs),
(311,372,ls),
(311,466,o),
(266,516,o),
(180,516,cs),
(95,516,o),
(44,465,o),
(31,371,c),
(93,358,l),
(103,430,o),
(132,456,o),
(176,456,cs),
(214,456,o),
(242,436,o),
(242,370,cs),
(242,70,l),
(244,70,l),
(252,0,l),
(286,0,l),
(257,16,l),
(251,8,o),
(218,-39,o),
(218,-86,cs),
(218,-146,o),
(272,-164,o),
(323,-157,c)
);
},
{
closed = 1;
nodes = (
(216,-7,o),
(258,40,o),
(259,128,c),
(242,136,l),
(242,87,o),
(211,49,o),
(160,49,cs),
(118,49,o),
(96,71,o),
(96,132,cs),
(96,196,o),
(125,221,o),
(172,239,cs),
(257,272,l),
(257,332,l),
(144,289,ls),
(67,260,o),
(28,208,o),
(28,128,cs),
(28,41,o),
(71,-7,o),
(145,-7,cs)
);
}
);
width = 357;
},
{
background = {
shapes = (
{
ref = a;
},
{
pos = (252,0);
ref = ogonekcomb;
}
);
};
layerId = "B6DC6C93-7E5A-4350-AC8D-F1BB3AE9B4CB";
shapes = (
{
closed = 1;
nodes = (
(405,-87,l),
(377,-89,o),
(343,-79,o),
(343,-46,cs),
(343,-26,o),
(350,-14,o),
(359,0,c),
(407,0,l),
(403,65,o),
(403,94,o),
(403,129,cs),
(403,337,ls),
(403,465,o),
(342,526,o),
(217,526,cs),
(95,526,o),
(31,456,o),
(23,355,c),
(166,342,l),
(170,390,o),
(182,411,o),
(210,411,cs),
(234,411,o),
(247,399,o),
(247,366,cs),
(247,104,l),
(250,104,l),
(261,0,l),
(335,0,l),
(306,24,l),
(279,-2,o),
(252,-36,o),
(252,-79,cs),
(252,-166,o),
(337,-176,o),
(405,-165,c)
);
},
{
closed = 1;
nodes = (
(208,-9,o),
(262,24,o),
(275,114,c),
(247,140,l),
(247,110,o),
(231,94,o),
(207,94,cs),
(183,94,o),
(167,107,o),
(167,147,cs),
(167,188,o),
(187,205,o),
(218,221,cs),
(258,241,l),
(258,331,l),
(162,297,ls),
(72,265,o),
(15,230,o),
(15,133,cs),
(15,44,o),
(63,-9,o),
(144,-9,cs)
);
}
);
width = 434;
},
{
background = {
shapes = (
{
ref = a;
},
{
pos = (444,0);
ref = ogonekcomb;
}
);
};
layerId = "AD0154C7-7101-4C76-975C-BE8A541C5FBC";
shapes = (
{
closed = 1;
nodes = (
(605,-96,l),
(573,-104,o),
(514,-99,o),
(513,-62,cs),
(512,-36,o),
(537,-18,o),
(567,0,c),
(586,0,l),
(582,74,o),
(582,94,o),
(582,134,cs),
(582,319,ls),
(582,452,o),
(486,516,o),
(325,516,cs),
(172,516,o),
(79,457,o),
(53,366,c),
(140,353,l),
(159,417,o),
(226,450,o),
(322,450,cs),
(427,450,o),
(491,415,o),
(491,331,cs),
(491,88,l),
(492,88,l),
(500,0,l),
(536,0,l),
(523,14,l),
(481,-6,o),
(438,-36,o),
(438,-80,cs),
(438,-153,o),
(539,-172,o),
(605,-150,c)
);
},
{
closed = 1;
nodes = (
(426,-9,o),
(539,49,o),
(538,172,c),
(491,193,l),
(491,98,o),
(399,57,o),
(272,57,cs),
(179,57,o),
(133,88,o),
(133,141,cs),
(133,187,o),
(165,213,o),
(251,224,cs),
(549,262,l),
(549,324,l),
(240,290,ls),
(112,276,o),
(42,223,o),
(42,140,cs),
(42,42,o),
(137,-9,o),
(269,-9,cs)
);
}
);
width = 651;
},
{
background = {
shapes = (
{
ref = a;
},
{
pos = (427,0);
ref = ogonekcomb;
}
);
};
layerId = "E5B4AC11-8521-476B-8B52-54F023F880B1";
shapes = (
{
closed = 1;
nodes = (
(660,-71,l),
(626,-78,o),
(586,-80,o),
(586,-42,cs),
(586,-25,o),
(594,-13,o),
(607,0,c),
(653,0,l),
(647,50,o),
(646,82,o),
(646,155,cs),
(646,326,ls),
(646,457,o),
(541,526,o),
(348,526,cs),
(147,526,o),
(59,446,o),
(36,354,c),
(231,340,l),
(244,383,o),
(279,401,o),
(345,401,cs),
(416,401,o),
(452,379,o),
(452,331,cs),
(452,108,l),
(457,108,l),
(468,0,l),
(552,0,l),
(556,15,l),
(493,-3,o),
(443,-43,o),
(443,-92,cs),
(443,-177,o),
(586,-183,o),
(660,-159,c)
);
},
{
closed = 1;
nodes = (
(402,-10,o),
(510,32,o),
(518,161,c),
(452,183,l),
(452,125,o),
(377,106,o),
(306,106,cs),
(249,106,o),
(226,124,o),
(226,151,cs),
(226,180,o),
(248,192,o),
(286,197,cs),
(479,221,l),
(479,329,l),
(237,305,ls),
(87,290,o),
(29,229,o),
(29,147,cs),
(29,46,o),
(124,-10,o),
(264,-10,cs)
);
}
);
width = 693;
}
);
unicode = 261;
},
{
glyphname = ae;
kernLeft = a;
kernRight = e;
lastChange = "2023-10-17 00:48:53 +0000";
layers = (
{
anchors = (
{
name = bottom;
pos = (411,0);
},
{
name = top;
pos = (408,504);
}
);
layerId = "E39CE873-C6CB-4040-8FBA-1D86B139B3E5";
shapes = (
{
closed = 1;
nodes = (
(672,-12,o),
(754,48,o),
(770,148,c),
(702,164,l),
(683,88,o),
(638,56,o),
(574,56,cs),
(482,56,o),
(429,126,o),
(429,256,cs),
(429,281,ls),
(429,392,o),
(492,448,o),
(572,448,cs),
(650,448,o),
(694,386,o),
(694,308,cs),
(694,281,l),
(724,308,l),
(419,308,l),
(418,244,l),
(767,244,l),
(782,384,o),
(721,516,o),
(570,516,cs),
(495,516,o),
(428,480,o),
(391,408,c),
(409,408,l),
(380,478,o),
(327,516,o),
(246,516,cs),
(142,516,o),
(69,457,o),
(52,371,c),
(124,357,l),
(138,420,o),
(181,450,o),
(240,450,cs),
(299,450,o),
(348,421,o),
(348,336,cs),
(348,89,l),
(390,99,l),
(430,19,o),
(498,-12,o),
(574,-12,cs)
);
},
{
closed = 1;
nodes = (
(325,-12,o),
(401,52,o),
(412,159,c),
(348,169,l),
(348,89,o),
(283,50,o),
(214,50,cs),
(156,50,o),
(122,75,o),
(122,135,cs),
(122,188,o),
(162,212,o),
(225,229,cs),
(367,267,l),
(367,326,l),
(202,285,ls),
(97,259,o),
(39,213,o),
(39,131,cs),
(39,35,o),
(110,-12,o),
(207,-12,cs)
);
}
);
width = 812;
},
{
anchors = (
{
name = bottom;
pos = (423,0);
},
{
name = top;
pos = (423,514);
}
);
layerId = "7F29FB76-5474-4FBC-BDD6-396388860F4A";
shapes = (
{
closed = 1;
nodes = (
(715,-12,o),
(789,59,o),
(806,152,c),
(659,176,l),
(644,125,o),
(620,106,o),
(578,106,cs),
(527,106,o),
(494,148,o),
(494,231,cs),
(494,297,ls),
(494,372,o),
(530,408,o),
(581,408,cs),
(629,408,o),
(656,374,o),
(656,314,cs),
(656,255,l),
(716,314,l),
(454,314,l),
(454,222,l),
(806,222,l),
(833,379,o),
(761,526,o),
(582,526,cs),
(499,526,o),
(435,493,o),
(393,438,c),
(439,438,l),
(404,495,o),
(340,526,o),
(247,526,cs),
(114,526,o),
(43,454,o),
(32,361,c),
(191,338,l),
(200,381,o),
(218,401,o),
(256,401,cs),
(296,401,o),
(316,379,o),
(316,344,cs),
(316,108,l),
(369,108,l),
(408,32,o),
(481,-12,o),
(581,-12,cs)
);
},
{
closed = 1;
nodes = (
(307,-12,o),
(385,22,o),
(418,116,c),
(316,164,l),
(316,125,o),
(284,104,o),
(254,104,cs),
(221,104,o),
(202,121,o),
(202,151,cs),
(202,182,o),
(224,199,o),
(266,212,cs),
(331,232,l),
(331,329,l),
(216,303,ls),
(91,275,o),
(22,232,o),
(22,139,cs),
(22,46,o),
(96,-12,o),
(215,-12,cs)
);
}
);
width = 837;
},
{
anchors = (
{
name = bottom;
pos = (285,0);
},
{
name = top;
pos = (290,504);
}
);
layerId = "C91C925B-D0D7-4075-AF07-39B2B48BEC27";
shapes = (
{
closed = 1;
nodes = (
(469,-12,o),
(527,43,o),
(535,173,c),
(471,179,l),
(461,87,o),
(443,49,o),
(394,49,cs),
(339,49,o),
(308,91,o),
(308,222,cs),
(308,285,ls),
(308,416,o),
(341,456,o),
(395,456,cs),
(443,456,o),
(471,415,o),
(471,306,cs),
(471,273,l),
(498,306,l),
(287,306,l),
(287,246,l),
(532,246,l),
(539,349,o),
(531,516,o),
(396,516,cs),
(345,516,o),
(300,493,o),
(273,422,c),
(289,425,l),
(275,484,o),
(236,516,o),
(174,516,cs),
(92,516,o),
(43,465,o),
(31,371,c),
(93,358,l),
(103,430,o),
(132,456,o),
(176,456,cs),
(214,456,o),
(242,436,o),
(242,370,cs),
(242,102,l),
(265,102,l),
(277,28,o),
(331,-12,o),
(391,-12,cs)
);
},
{
closed = 1;
nodes = (
(231,-12,o),
(285,32,o),
(291,114,c),
(242,133,l),
(242,77,o),
(213,44,o),
(164,44,cs),
(120,44,o),
(96,66,o),
(96,132,cs),
(96,196,o),
(125,221,o),
(172,239,cs),
(257,272,l),
(257,332,l),
(144,289,ls),
(67,260,o),
(28,208,o),
(28,128,cs),
(28,36,o),
(75,-12,o),
(156,-12,cs)
);
}
);
width = 567;
},
{
anchors = (
{
name = bottom;
pos = (327,0);
},
{
name = top;
pos = (336,514);
}
);
layerId = "B6DC6C93-7E5A-4350-AC8D-F1BB3AE9B4CB";
shapes = (
{
closed = 1;
nodes = (
(557,-12,o),
(628,36,o),
(633,174,c),
(499,184,l),
(496,118,o),
(484,96,o),
(451,96,cs),
(418,96,o),
(403,119,o),
(403,181,cs),
(403,338,ls),
(403,397,o),
(420,419,o),
(452,419,cs),
(484,419,o),
(498,398,o),
(498,339,cs),
(498,261,l),
(549,312,l),
(363,312,l),
(363,230,l),
(630,230,l),
(646,377,o),
(616,526,o),
(458,526,cs),
(398,526,o),
(349,507,o),
(313,444,c),
(357,447,l),
(326,506,o),
(270,526,o),
(208,526,cs),
(95,526,o),
(31,456,o),
(23,355,c),
(166,342,l),
(170,390,o),
(182,411,o),
(210,411,cs),
(234,411,o),
(247,399,o),
(247,366,cs),
(247,104,l),
(290,104,l),
(310,20,o),
(372,-12,o),
(458,-12,cs)
);
},
{
closed = 1;
nodes = (
(261,-12,o),
(334,24,o),
(345,134,c),
(247,140,l),
(247,110,o),
(231,94,o),
(207,94,cs),
(183,94,o),
(167,107,o),
(167,147,cs),
(167,188,o),
(187,205,o),
(218,221,cs),
(258,241,l),
(258,331,l),
(162,297,ls),
(72,265,o),
(15,230,o),
(15,133,cs),
(15,44,o),
(76,-12,o),
(177,-12,cs)
);
}
);
width = 657;
},
{
anchors = (
{
name = bottom;
pos = (564,0);
},
{
name = top;
pos = (575,504);
}
);
layerId = "AD0154C7-7101-4C76-975C-BE8A541C5FBC";
shapes = (
{
closed = 1;
nodes = (
(917,-12,o),
(1045,22,o),
(1083,162,c),
(1009,181,l),
(978,79,o),
(896,54,o),
(798,54,cs),
(667,54,o),
(582,116,o),
(582,242,cs),
(582,262,ls),
(582,389,o),
(663,450,o),
(798,450,cs),
(916,450,o),
(1005,397,o),
(1005,308,cs),
(1005,286,l),
(1034,308,l),
(556,308,l),
(556,244,l),
(1088,244,l),
(1102,452,o),
(948,516,o),
(798,516,cs),
(692,516,o),
(594,478,o),
(539,396,c),
(560,396,l),
(526,478,o),
(444,516,o),
(325,516,cs),
(172,516,o),
(79,457,o),
(53,366,c),
(140,353,l),
(159,417,o),
(226,450,o),
(322,450,cs),
(427,450,o),
(491,415,o),
(491,331,cs),
(491,108,l),
(537,108,l),
(593,21,o),
(695,-12,o),
(804,-12,cs)
);
},
{
closed = 1;
nodes = (
(444,-12,o),
(551,51,o),
(560,174,c),
(491,183,l),
(491,98,o),
(401,54,o),
(285,54,cs),
(181,54,o),
(133,85,o),
(133,141,cs),
(133,187,o),
(165,213,o),
(251,224,cs),
(549,262,l),
(549,324,l),
(240,290,ls),
(112,276,o),
(42,223,o),
(42,140,cs),
(42,39,o),
(141,-12,o),
(279,-12,cs)
);
}
);
width = 1133;
},
{
anchors = (
{
name = bottom;
pos = (570,0);
},
{
name = top;
pos = (580,514);
}
);
layerId = "E5B4AC11-8521-476B-8B52-54F023F880B1";
shapes = (
{
closed = 1;
nodes = (
(955,-12,o),
(1082,47,o),
(1112,158,c),
(935,177,l),
(916,142,o),
(883,119,o),
(800,119,cs),
(695,119,o),
(646,171,o),
(646,234,cs),
(646,297,ls),
(646,354,o),
(691,405,o),
(796,405,cs),
(890,405,o),
(939,366,o),
(939,301,cs),
(939,280,l),
(998,318,l),
(603,318,l),
(603,219,l),
(1114,219,l),
(1133,421,o),
(1005,526,o),
(794,526,cs),
(691,526,o),
(599,494,o),
(541,432,c),
(587,430,l),
(545,493,o),
(463,526,o),
(348,526,cs),
(147,526,o),
(59,446,o),
(36,354,c),
(231,340,l),
(244,383,o),
(279,401,o),
(345,401,cs),
(416,401,o),
(452,379,o),
(452,331,cs),
(452,118,l),
(523,118,l),
(570,29,o),
(680,-12,o),
(807,-12,cs)
);
},
{
closed = 1;
nodes = (
(458,-12,o),
(574,32,o),
(596,171,c),
(452,183,l),
(452,125,o),
(389,104,o),
(317,104,cs),
(251,104,o),
(226,122,o),
(226,151,cs),
(226,180,o),
(248,192,o),
(286,197,cs),
(479,221,l),
(479,329,l),
(237,305,ls),
(87,290,o),
(29,229,o),
(29,147,cs),
(29,44,o),
(139,-12,o),
(300,-12,cs)
);
}
);
width = 1146;
}
);
unicode = 230;
},
{
glyphname = b;
kernLeft = h;
kernRight = b;
lastChange = "2023-10-17 00:48:53 +0000";
layers = (
{
anchors = (
{
name = bottom;
pos = (271,0);
},
{
name = center;
pos = (271,252);
},
{
name = top;
pos = (271,504);
}
);
background = {
shapes = (
{
closed = 1;
nodes = (
(388,-12,o),
(494,73,o),
(494,253,cs),
(494,431,o),
(395,516,o),
(287,516,cs),
(211,516,o),
(138,462,o),
(114,382,c),
(137,293,l),
(137,402,o),
(206,450,o),
(276,450,cs),
(343,450,o),
(410,402,o),
(410,252,cs),
(410,101,o),
(343,54,o),
(276,54,cs),
(206,54,o),
(137,102,o),
(137,211,c),
(114,118,l),
(138,39,o),
(202,-12,o),
(287,-12,cs)
);
}
);
};
layerId = "E39CE873-C6CB-4040-8FBA-1D86B139B3E5";
shapes = (
{
closed = 1;
nodes = (
(406,-12,o),
(508,73,o),
(508,253,cs),
(508,431,o),
(413,516,o),
(301,516,cs),
(216,516,o),
(153,465,o),
(124,382,c),
(151,272,l),
(151,402,o),
(220,450,o),
(290,450,cs),
(370,450,o),
(425,392,o),
(425,266,cs),
(425,238,ls),
(425,112,o),
(370,54,o),
(291,54,cs),
(221,54,o),
(151,102,o),
(151,232,c),
(124,118,l),
(153,36,o),
(207,-12,o),
(301,-12,cs)
);
},
{
closed = 1;
nodes = (
(138,0,l),
(151,87,l),
(151,710,l),
(68,710,l),
(68,0,l)
);
}
);
width = 549;
},
{
anchors = (
{
name = bottom;
pos = (288,0);
},
{
name = center;
pos = (288,257);
},
{
name = top;
pos = (288,514);
}
);
background = {
shapes = (
{
closed = 1;
nodes = (
(451,-12,o),
(554,65,o),
(554,257,cs),
(554,449,o),
(455,526,o),
(355,526,cs),
(278,526,o),
(208,484,o),
(179,355,c),
(218,284,l),
(218,369,o),
(254,391,o),
(295,391,cs),
(340,391,o),
(376,355,o),
(376,257,cs),
(376,159,o),
(340,123,o),
(295,123,cs),
(254,123,o),
(218,145,o),
(218,230,c),
(170,159,l),
(199,30,o),
(271,-12,o),
(348,-12,cs)
);
}
);
};
layerId = "7F29FB76-5474-4FBC-BDD6-396388860F4A";
shapes = (
{
closed = 1;
nodes = (
(457,-12,o),
(561,65,o),
(561,257,cs),
(561,449,o),
(456,526,o),
(349,526,cs),
(275,526,o),
(204,486,o),
(175,371,c),
(222,275,l),
(222,362,o),
(260,391,o),
(304,391,cs),
(353,391,o),
(383,350,o),
(383,271,cs),
(383,243,ls),
(383,164,o),
(353,123,o),
(304,123,cs),
(260,123,o),
(222,152,o),
(222,239,c),
(166,143,l),
(201,20,o),
(271,-12,o),
(348,-12,cs)
);
},
{
closed = 1;
nodes = (
(198,0,l),
(222,115,l),
(222,710,l),
(44,710,l),
(44,0,l)
);
}
);
width = 588;
},
{
anchors = (
{
name = bottom;
pos = (199,0);
},
{
name = center;
pos = (199,252);
},
{
name = top;
pos = (199,503);
}
);
layerId = "C91C925B-D0D7-4075-AF07-39B2B48BEC27";
shapes = (
{
closed = 1;
nodes = (
(297,-12,o),
(357,62,o),
(357,251,cs),
(357,441,o),
(299,516,o),
(211,516,cs),
(156,516,o),
(111,480,o),
(96,391,c),
(117,312,l),
(117,428,o),
(157,455,o),
(203,455,cs),
(256,455,o),
(286,406,o),
(286,291,cs),
(286,213,ls),
(286,98,o),
(256,49,o),
(203,49,cs),
(157,49,o),
(117,74,o),
(117,181,c),
(91,115,l),
(104,27,o),
(147,-12,o),
(215,-12,cs)
);
},
{
closed = 1;
nodes = (
(104,0,l),
(117,121,l),
(117,710,l),
(48,710,l),
(48,0,l)
);
}
);
width = 389;
},
{
anchors = (
{
name = bottom;
pos = (230,0);
},
{
name = center;
pos = (230,256);
},
{
name = top;
pos = (230,513);
}
);
layerId = "B6DC6C93-7E5A-4350-AC8D-F1BB3AE9B4CB";
shapes = (
{
closed = 1;
nodes = (
(364,-12,o),
(438,53,o),
(438,257,cs),
(438,464,o),
(364,526,o),
(286,526,cs),
(224,526,o),
(180,487,o),
(164,386,c),
(188,337,l),
(188,397,o),
(208,414,o),
(235,414,cs),
(267,414,o),
(282,389,o),
(282,336,cs),
(282,177,ls),
(282,125,o),
(267,100,o),
(235,100,cs),
(208,100,o),
(188,117,o),
(188,175,c),
(155,128,l),
(169,31,o),
(222,-12,o),
(287,-12,cs)
);
},
{
closed = 1;
nodes = (
(171,0,l),
(188,100,l),
(188,710,l),
(33,710,l),
(33,0,l)
);
}
);
width = 460;
},
{
anchors = (
{
name = bottom;
pos = (367,0);
},
{
name = center;
pos = (367,252);
},
{
name = top;
pos = (367,504);
}
);
background = {
shapes = (
{
closed = 1;
nodes = (
(498,-12,o),
(628,72,o),
(628,251,cs),
(628,431,o),
(498,516,o),
(350,516,cs),
(231,516,o),
(132,462,o),
(102,363,c),
(145,262,l),
(145,398,o),
(235,450,o),
(344,450,cs),
(457,450,o),
(537,388,o),
(537,258,cs),
(537,246,ls),
(537,115,o),
(455,54,o),
(344,54,cs),
(241,54,o),
(145,105,o),
(145,242,c),
(114,116,l),
(143,34,o),
(231,-12,o),
(350,-12,cs)
);
},
{
closed = 1;
nodes = (
(130,0,l),
(145,119,l),
(145,710,l),
(54,710,l),
(54,0,l)
);
}
);
};
layerId = "AD0154C7-7101-4C76-975C-BE8A541C5FBC";
shapes = (
{
closed = 1;
nodes = (
(541,-12,o),
(690,73,o),
(690,253,cs),
(690,432,o),
(541,516,o),
(389,516,cs),
(270,516,o),
(164,463,o),
(133,366,c),
(166,262,l),
(166,399,o),
(278,450,o),
(384,450,cs),
(498,450,o),
(600,389,o),
(600,262,cs),
(600,242,ls),
(600,116,o),
(498,54,o),
(384,54,cs),
(278,54,o),
(166,106,o),
(166,242,c),
(133,122,l),
(167,41,o),
(270,-12,o),
(389,-12,cs)
);
},
{
closed = 1;
nodes = (
(151,0,l),
(166,118,l),
(166,710,l),
(75,710,l),
(75,0,l)
);
}
);
width = 734;
},
{
anchors = (
{
name = bottom;
pos = (387,0);
},
{
name = center;
pos = (387,257);
},
{
name = top;
pos = (387,514);
}
);
background = {
shapes = (
{
closed = 1;
nodes = (
(568,-12,o),
(716,66,o),
(716,257,cs),
(716,447,o),
(563,526,o),
(422,526,cs),
(307,526,o),
(205,485,o),
(162,365,c),
(242,265,l),
(242,358,o),
(311,391,o),
(386,391,cs),
(464,391,o),
(522,346,o),
(522,262,cs),
(522,252,ls),
(522,167,o),
(464,123,o),
(386,123,cs),
(310,123,o),
(242,155,o),
(242,249,c),
(164,138,l),
(195,43,o),
(285,-12,o),
(412,-12,cs)
);
},
{
closed = 1;
nodes = (
(219,0,l),
(242,113,l),
(242,710,l),
(48,710,l),
(48,0,l)
);
}
);
};
guides = (
{
angle = 180;
pos = (-80,49);
}
);
layerId = "E5B4AC11-8521-476B-8B52-54F023F880B1";
shapes = (
{
closed = 1;
nodes = (
(581,-12,o),
(752,65,o),
(752,257,cs),
(752,450,o),
(587,526,o),
(445,526,cs),
(326,526,o),
(214,471,o),
(182,376,c),
(246,265,l),
(246,359,o),
(328,394,o),
(403,394,cs),
(488,394,o),
(557,347,o),
(557,262,cs),
(557,252,ls),
(557,168,o),
(488,120,o),
(403,120,cs),
(328,120,o),
(246,156,o),
(246,249,c),
(172,139,l),
(208,29,o),
(326,-12,o),
(445,-12,cs)
);
},
{
closed = 1;
nodes = (
(223,0,l),
(246,113,l),
(246,710,l),
(52,710,l),
(52,0,l)
);
}
);
width = 781;
}
);
note = b;
unicode = 98;
},
{
glyphname = c;
kernLeft = o;
kernRight = c;
lastChange = "2023-10-17 00:48:53 +0000";
layers = (
{
anchors = (
{
name = bottom;
pos = (276,0);
},
{
name = top;
pos = (254,504);
}
);
background = {
shapes = (
{
closed = 0;
nodes = (
(268,54,l),
(182,54,o),
(123,111,o),
(123,236,cs),
(123,268,ls),
(123,393,o),
(182,450,o),
(268,450,cs)
);
}
);
};
layerId = "E39CE873-C6CB-4040-8FBA-1D86B139B3E5";
shapes = (
{
closed = 1;
nodes = (
(371,-12,o),
(461,48,o),
(478,160,c),
(406,172,l),
(392,95,o),
(340,56,o),
(272,56,cs),
(179,56,o),
(122,130,o),
(122,239,cs),
(122,266,ls),
(122,374,o),
(177,448,o),
(271,448,cs),
(329,448,o),
(384,417,o),
(403,333,c),
(475,345,l),
(456,457,o),
(367,516,o),
(270,516,cs),
(134,516,o),
(39,406,o),
(39,252,cs),
(39,97,o),
(134,-12,o),
(272,-12,cs)
);
}
);
width = 512;
},
{
anchors = (
{
name = bottom;
pos = (280,0);
},
{
name = top;
pos = (268,514);
}
);
layerId = "7F29FB76-5474-4FBC-BDD6-396388860F4A";
shapes = (
{
closed = 1;
nodes = (
(410,-12,o),
(496,66,o),
(511,191,c),
(355,210,l),
(348,145,o),
(321,120,o),
(280,120,cs),
(225,120,o),
(202,174,o),
(202,248,cs),
(202,266,ls),
(202,341,o),
(225,394,o),
(280,394,cs),
(324,394,o),
(345,365,o),
(354,304,c),
(508,323,l),
(494,448,o),
(411,526,o),
(281,526,cs),
(123,526,o),
(24,415,o),
(24,257,cs),
(24,99,o),
(123,-12,o),
(281,-12,cs)
);
}
);
width = 530;
},
{
anchors = (
{
name = bottom;
pos = (195,0);
},
{
name = top;
pos = (181,503);
}
);
layerId = "C91C925B-D0D7-4075-AF07-39B2B48BEC27";
shapes = (
{
closed = 1;
nodes = (
(268,-12,o),
(327,39,o),
(332,189,c),
(268,193,l),
(261,94,o),
(245,49,o),
(190,49,cs),
(134,49,o),
(103,91,o),
(103,219,cs),
(103,285,ls),
(103,413,o),
(134,455,o),
(189,455,cs),
(243,455,o),
(261,412,o),
(267,311,c),
(331,315,l),
(327,465,o),
(268,516,o),
(189,516,cs),
(92,516,o),
(32,444,o),
(32,252,cs),
(32,60,o),
(92,-12,o),
(189,-12,cs)
);
}
);
width = 360;
},
{
anchors = (
{
name = bottom;
pos = (230,0);
},
{
name = top;
pos = (212,513);
}
);
layerId = "B6DC6C93-7E5A-4350-AC8D-F1BB3AE9B4CB";
shapes = (
{
closed = 1;
nodes = (
(322,-12,o),
(399,38,o),
(403,205,c),
(270,213,l),
(266,128,o),
(256,102,o),
(224,102,cs),
(192,102,o),
(178,127,o),
(178,186,cs),
(178,327,ls),
(178,386,o),
(192,412,o),
(224,412,cs),
(256,412,o),
(266,386,o),
(270,302,c),
(402,310,l),
(397,476,o),
(320,526,o),
(221,526,cs),
(109,526,o),
(21,454,o),
(21,256,cs),
(21,57,o),
(109,-12,o),
(221,-12,cs)
);
}
);
width = 421;
},
{
anchors = (
{
name = bottom;
pos = (362,0);
},
{
name = top;
pos = (343,504);
}
);
background = {
anchors = (
{
name = bottom;
pos = (387,0);
},
{
name = top;
pos = (391,513);
}
);
shapes = (
{
ref = o;
}
);
};
layerId = "AD0154C7-7101-4C76-975C-BE8A541C5FBC";
shapes = (
{
closed = 1;
nodes = (
(465,-12,o),
(604,26,o),
(645,162,c),
(567,181,l),
(533,82,o),
(447,54,o),
(352,54,cs),
(229,54,o),
(134,116,o),
(134,242,cs),
(134,262,ls),
(134,389,o),
(229,450,o),
(352,450,cs),
(447,450,o),
(533,422,o),
(567,323,c),
(645,342,l),
(604,478,o),
(465,516,o),
(358,516,cs),
(188,516,o),
(44,429,o),
(44,253,cs),
(44,76,o),
(187,-12,o),
(358,-12,cs)
);
}
);
width = 682;
},
{
anchors = (
{
name = bottom;
pos = (379,0);
},
{
name = top;
pos = (365,514);
}
);
background = {
shapes = (
{
ref = o;
}
);
};
layerId = "E5B4AC11-8521-476B-8B52-54F023F880B1";
shapes = (
{
closed = 1;
nodes = (
(526,-12,o),
(665,47,o),
(696,185,c),
(516,204,l),
(496,153,o),
(449,120,o),
(374,120,cs),
(280,120,o),
(222,175,o),
(222,252,cs),
(222,262,ls),
(222,340,o),
(280,394,o),
(374,394,cs),
(449,394,o),
(496,361,o),
(516,310,c),
(696,329,l),
(665,467,o),
(526,526,o),
(375,526,cs),
(184,526,o),
(27,433,o),
(27,257,cs),
(27,82,o),
(197,-12,o),
(375,-12,cs)
);
}
);
width = 717;
}
);
note = c;
unicode = 99;
},
{
glyphname = d;
kernLeft = d;
kernRight = d;
lastChange = "2023-10-17 00:48:53 +0000";
layers = (
{
anchors = (
{
name = bottom;
pos = (278,0);
},
{
name = center;
pos = (278,252);
},
{
name = top;
pos = (278,758);
},
{
name = topright;
pos = (535,758);
}
);
background = {
shapes = (
{
closed = 1;
nodes = (
(336,-12,o),
(396,39,o),
(420,118,c),
(397,211,l),
(397,102,o),
(328,54,o),
(258,54,cs),
(191,54,o),
(124,101,o),
(124,252,cs),
(124,402,o),
(191,450,o),
(258,450,cs),
(328,450,o),
(397,402,o),
(397,293,c),
(421,382,l),
(394,472,o),
(327,516,o),
(251,516,cs),
(143,516,o),
(40,431,o),
(40,253,cs),
(40,73,o),
(150,-12,o),
(251,-12,cs)
);
}
);
};
layerId = "E39CE873-C6CB-4040-8FBA-1D86B139B3E5";
shapes = (
{
closed = 1;
nodes = (
(342,-12,o),
(398,36,o),
(427,118,c),
(398,232,l),
(398,102,o),
(328,54,o),
(258,54,cs),
(179,54,o),
(124,112,o),
(124,238,cs),
(124,266,ls),
(124,392,o),
(179,450,o),
(259,450,cs),
(329,450,o),
(398,402,o),
(398,272,c),
(427,382,l),
(398,465,o),
(333,516,o),
(248,516,cs),
(136,516,o),
(41,431,o),
(41,253,cs),
(41,73,o),
(143,-12,o),
(248,-12,cs)
);
},
{
closed = 1;
nodes = (
(481,0,l),
(481,710,l),
(398,710,l),
(398,123,l),
(398,112,l),
(398,0,l)
);
}
);
width = 549;
},
{
anchors = (
{
name = bottom;
pos = (301,0);
},
{
name = center;
pos = (301,257);
},
{
name = top;
pos = (301,758);
},
{
name = topright;
pos = (576,758);
}
);
background = {
shapes = (
{
closed = 1;
nodes = (
(308,-12,o),
(380,30,o),
(409,159,c),
(361,230,l),
(361,145,o),
(325,123,o),
(284,123,cs),
(239,123,o),
(203,159,o),
(203,257,cs),
(203,355,o),
(239,391,o),
(284,391,cs),
(325,391,o),
(361,369,o),
(361,284,c),
(405,355,l),
(376,484,o),
(304,526,o),
(224,526,cs),
(124,526,o),
(25,449,o),
(25,257,cs),
(25,65,o),
(128,-12,o),
(231,-12,cs)
);
}
);
};
layerId = "7F29FB76-5474-4FBC-BDD6-396388860F4A";
shapes = (
{
closed = 1;
nodes = (
(317,-12,o),
(387,20,o),
(422,156,c),
(366,239,l),
(366,152,o),
(328,123,o),
(284,123,cs),
(235,123,o),
(205,164,o),
(205,243,cs),
(205,271,ls),
(205,350,o),
(235,391,o),
(284,391,cs),
(328,391,o),
(366,362,o),
(366,275,c),
(416,371,l),
(387,486,o),
(313,526,o),
(239,526,cs),
(132,526,o),
(27,449,o),
(27,257,cs),
(27,65,o),
(131,-12,o),
(240,-12,cs)
);
},
{
closed = 1;
nodes = (
(544,0,l),
(544,710,l),
(366,710,l),
(366,123,l),
(369,123,l),
(369,0,l)
);
}
);
width = 588;
},
{
anchors = (
{
name = bottom;
pos = (189,0);
},
{
name = center;
pos = (189,252);
},
{
name = top;
pos = (189,758);
},
{
name = topright;
pos = (357,758);
}
);
layerId = "C91C925B-D0D7-4075-AF07-39B2B48BEC27";
shapes = (
{
closed = 1;
nodes = (
(235,-12,o),
(274,27,o),
(287,115,c),
(272,181,l),
(272,74,o),
(232,49,o),
(186,49,cs),
(133,49,o),
(103,98,o),
(103,213,cs),
(103,291,ls),
(103,406,o),
(133,455,o),
(186,455,cs),
(232,455,o),
(272,428,o),
(272,312,c),
(293,392,l),
(278,480,o),
(233,516,o),
(178,516,cs),
(90,516,o),
(32,441,o),
(32,251,cs),
(32,62,o),
(92,-12,o),
(174,-12,cs)
);
},
{
closed = 1;
nodes = (
(341,0,l),
(341,710,l),
(272,710,l),
(272,137,l),
(272,124,l),
(272,0,l)
);
}
);
width = 389;
},
{
anchors = (
{
name = bottom;
pos = (232,0);
},
{
name = center;
pos = (232,256);
},
{
name = top;
pos = (232,758);
},
{
name = topright;
pos = (436,758);
}
);
layerId = "B6DC6C93-7E5A-4350-AC8D-F1BB3AE9B4CB";
shapes = (
{
closed = 1;
nodes = (
(235,-12,o),
(287,31,o),
(301,131,c),
(271,175,l),
(271,117,o),
(252,100,o),
(224,100,cs),
(193,100,o),
(178,125,o),
(178,177,cs),
(178,336,ls),
(178,389,o),
(193,414,o),
(224,414,cs),
(252,414,o),
(271,397,o),
(271,337,c),
(297,386,l),
(280,487,o),
(236,526,o),
(174,526,cs),
(96,526,o),
(21,464,o),
(21,257,cs),
(21,53,o),
(96,-12,o),
(173,-12,cs)
);
},
{
closed = 1;
nodes = (
(427,0,l),
(427,710,l),
(271,710,l),
(271,104,l),
(274,102,l),
(274,0,l)
);
}
);
width = 460;
},
{
anchors = (
{
name = bottom;
pos = (331,0);
},
{
name = center;
pos = (331,252);
},
{
name = top;
pos = (331,758);
},
{
name = topright;
pos = (667,758);
}
);
background = {
shapes = (
{
closed = 1;
nodes = (
(438,-12,o),
(524,35,o),
(553,117,c),
(524,242,l),
(524,105,o),
(426,54,o),
(323,54,cs),
(212,54,o),
(132,115,o),
(132,246,cs),
(132,258,ls),
(132,388,o),
(212,450,o),
(325,450,cs),
(434,450,o),
(524,398,o),
(524,262,c),
(570,366,l),
(535,469,o),
(438,516,o),
(317,516,cs),
(171,516,o),
(41,431,o),
(41,251,cs),
(41,72,o),
(171,-12,o),
(317,-12,cs)
);
},
{
closed = 1;
nodes = (
(615,0,l),
(615,710,l),
(524,710,l),
(524,128,l),
(524,119,l),
(524,0,l)
);
}
);
};
guides = (
{
angle = 180;
pos = (754,79);
}
);
layerId = "AD0154C7-7101-4C76-975C-BE8A541C5FBC";
shapes = (
{
closed = 1;
nodes = (
(464,-12,o),
(567,41,o),
(601,137,c),
(568,242,l),
(568,106,o),
(456,54,o),
(350,54,cs),
(236,54,o),
(134,116,o),
(134,242,cs),
(134,262,ls),
(134,389,o),
(236,450,o),
(350,450,cs),
(456,450,o),
(568,399,o),
(568,262,c),
(601,366,l),
(570,463,o),
(464,516,o),
(345,516,cs),
(193,516,o),
(44,432,o),
(44,253,cs),
(44,73,o),
(193,-12,o),
(345,-12,cs)
);
},
{
closed = 1;
nodes = (
(659,0,l),
(659,710,l),
(568,710,l),
(568,125,l),
(568,113,l),
(568,0,l)
);
}
);
width = 734;
},
{
anchors = (
{
name = bottom;
pos = (426,0);
},
{
name = center;
pos = (426,257);
},
{
name = top;
pos = (426,758);
},
{
name = topright;
pos = (793,758);
}
);
background = {
anchors = (
{
name = bottom;
pos = (390,0);
},
{
name = center;
pos = (390,257);
},
{
name = top;
pos = (390,758);
},
{
name = topright;
pos = (754,758);
}
);
shapes = (
{
closed = 1;
nodes = (
(475,-12,o),
(571,43,o),
(602,138,c),
(528,249,l),
(528,155,o),
(460,123,o),
(384,123,cs),
(306,123,o),
(248,167,o),
(248,252,cs),
(248,262,ls),
(248,346,o),
(306,391,o),
(384,391,cs),
(459,391,o),
(528,358,o),
(528,265,c),
(608,375,l),
(573,485,o),
(468,526,o),
(350,526,cs),
(217,526,o),
(54,447,o),
(54,257,cs),
(54,66,o),
(202,-12,o),
(351,-12,cs)
);
},
{
closed = 1;
nodes = (
(722,0,l),
(722,710,l),
(528,710,l),
(528,113,l),
(531,114,l),
(531,0,l)
);
}
);
};
layerId = "E5B4AC11-8521-476B-8B52-54F023F880B1";
shapes = (
{
closed = 1;
nodes = (
(455,-12,o),
(570,30,o),
(605,155,c),
(535,249,l),
(535,156,o),
(453,120,o),
(378,120,cs),
(293,120,o),
(224,168,o),
(224,252,cs),
(224,262,ls),
(224,347,o),
(293,394,o),
(378,394,cs),
(453,394,o),
(535,359,o),
(535,265,c),
(599,376,l),
(568,471,o),
(455,526,o),
(336,526,cs),
(194,526,o),
(29,450,o),
(29,257,cs),
(29,65,o),
(200,-12,o),
(336,-12,cs)
);
},
{
closed = 1;
nodes = (
(729,0,l),
(729,710,l),
(535,710,l),
(535,113,l),
(538,108,l),
(538,0,l)
);
}
);
width = 781;
}
);
note = d;
unicode = 100;
},
{
glyphname = dcaron;
kernLeft = d;
kernRight = dcaron;
lastChange = "2023-10-17 00:48:53 +0000";
layers = (
{
layerId = "E39CE873-C6CB-4040-8FBA-1D86B139B3E5";
shapes = (
{
closed = 1;
nodes = (
(590,498,l),
(617,710,l),
(549,710,l),
(539,498,l)
);
},
{
ref = d;
}
);
width = 588;
},
{
layerId = "7F29FB76-5474-4FBC-BDD6-396388860F4A";
shapes = (
{
closed = 1;
nodes = (
(694,467,l),
(732,710,l),
(611,710,l),
(601,467,l)
);
},
{
ref = d;
}
);
width = 688;
},
{
layerId = "C91C925B-D0D7-4075-AF07-39B2B48BEC27";
shapes = (
{
closed = 1;
nodes = (
(435,518,l),
(459,710,l),
(399,710,l),
(389,518,l)
);
},
{
ref = d;
}
);
width = 409;
},
{
layerId = "B6DC6C93-7E5A-4350-AC8D-F1BB3AE9B4CB";
shapes = (
{
closed = 1;
nodes = (
(567,487,l),
(596,710,l),
(492,710,l),
(482,487,l)
);
},
{
ref = d;
}
);
width = 571;
},
{
layerId = "AD0154C7-7101-4C76-975C-BE8A541C5FBC";
shapes = (
{
closed = 1;
nodes = (
(778,478,l),
(805,710,l),
(727,710,l),
(715,478,l)
);
},
{
ref = d;
}
);
width = 781;
},
{
guides = (
{
pos = (-609,732);
}
);
layerId = "E5B4AC11-8521-476B-8B52-54F023F880B1";
shapes = (
{
closed = 1;
nodes = (
(889,455,l),
(926,710,l),
(793,710,l),
(783,455,l)
);
},
{
ref = d;
}
);
width = 886;
}
);
unicode = 271;
},
{
glyphname = dcroat;
kernLeft = d;
kernRight = d;
lastChange = "2023-10-17 00:48:53 +0000";
layers = (
{
layerId = "E39CE873-C6CB-4040-8FBA-1D86B139B3E5";
shapes = (
{
closed = 1;
nodes = (
(544,580,l),
(544,640,l),
(252,640,l),
(252,580,l)
);
},
{
ref = d;
}
);
width = 549;
},
{
layerId = "7F29FB76-5474-4FBC-BDD6-396388860F4A";
shapes = (
{
closed = 1;
nodes = (
(596,555,l),
(596,649,l),
(250,649,l),
(250,555,l)
);
},
{
ref = d;
}
);
width = 588;
},
{
layerId = "C91C925B-D0D7-4075-AF07-39B2B48BEC27";
shapes = (
{
closed = 1;
nodes = (
(389,583,l),
(389,637,l),
(172,637,l),
(172,583,l)
);
},
{
ref = d;
}
);
width = 389;
},
{
layerId = "B6DC6C93-7E5A-4350-AC8D-F1BB3AE9B4CB";
shapes = (
{
closed = 1;
nodes = (
(462,555,l),
(462,650,l),
(184,650,l),
(184,555,l)
);
},
{
ref = d;
}
);
width = 460;
},
{
layerId = "AD0154C7-7101-4C76-975C-BE8A541C5FBC";
shapes = (
{
closed = 1;
nodes = (
(717,578,l),
(717,640,l),
(349,640,l),
(349,578,l)
);
},
{
ref = d;
}
);
width = 734;
},
{
layerId = "E5B4AC11-8521-476B-8B52-54F023F880B1";
shapes = (
{
closed = 1;
nodes = (
(809,555,l),
(809,649,l),
(361,649,l),
(361,555,l)
);
},
{
ref = d;
}
);
width = 781;
}
);
unicode = 273;
},
{
glyphname = eth;
lastChange = "2023-10-17 00:48:53 +0000";
layers = (
{
guides = (
{
angle = 180;
pos = (191,722);
}
);
layerId = "E39CE873-C6CB-4040-8FBA-1D86B139B3E5";
shapes = (
{
closed = 1;
nodes = (
(398,-12,o),
(496,75,o),
(496,262,cs),
(496,395,o),
(476,606,o),
(195,722,c),
(158,663,l),
(292,608,o),
(361,536,o),
(392,455,c),
(400,458,l),
(363,497,o),
(311,516,o),
(253,516,cs),
(132,516,o),
(40,420,o),
(40,252,cs),
(40,84,o),
(138,-12,o),
(268,-12,cs)
);
},
{
closed = 1;
nodes = (
(182,54,o),
(123,111,o),
(123,236,cs),
(123,268,ls),
(123,393,o),
(182,450,o),
(268,450,cs),
(353,450,o),
(413,392,o),
(413,266,cs),
(413,238,ls),
(413,112,o),
(353,54,o),
(268,54,cs)
);
},
{
closed = 1;
nodes = (
(435,662,l),
(435,722,l),
(158,591,l),
(158,531,l)
);
}
);
width = 541;
},
{
guides = (
{
pos = (417,722);
}
);
layerId = "7F29FB76-5474-4FBC-BDD6-396388860F4A";
shapes = (
{
closed = 1;
nodes = (
(447,-12,o),
(550,101,o),
(550,288,cs),
(550,415,o),
(498,654,o),
(219,722,c),
(123,636,l),
(256,598,o),
(310,551,o),
(348,481,c),
(362,486,l),
(331,513,o),
(296,526,o),
(251,526,cs),
(113,526,o),
(25,412,o),
(25,257,cs),
(25,101,o),
(129,-12,o),
(288,-12,cs)
);
},
{
closed = 1;
nodes = (
(234,120,o),
(203,162,o),
(203,243,cs),
(203,271,ls),
(203,352,o),
(234,394,o),
(288,394,cs),
(340,394,o),
(372,352,o),
(372,271,cs),
(372,243,ls),
(372,162,o),
(340,120,o),
(288,120,cs)
);
},
{
closed = 1;
nodes = (
(461,662,l),
(461,722,l),
(128,579,l),
(128,519,l)
);
}
);
width = 577;
},
{
layerId = "C91C925B-D0D7-4075-AF07-39B2B48BEC27";
shapes = (
{
closed = 1;
nodes = (
(285,-12,o),
(346,58,o),
(346,252,cs),
(346,405,o),
(342,583,o),
(125,722,c),
(90,669,l),
(193,608,o),
(238,538,o),
(263,465,c),
(275,462,l),
(251,503,o),
(217,516,o),
(177,516,cs),
(95,516,o),
(32,446,o),
(32,252,cs),
(32,58,o),
(93,-12,o),
(189,-12,cs)
);
},
{
closed = 1;
nodes = (
(135,48,o),
(103,89,o),
(103,218,cs),
(103,286,ls),
(103,415,o),
(135,456,o),
(189,456,cs),
(243,456,o),
(275,415,o),
(275,285,cs),
(275,219,ls),
(275,89,o),
(243,48,o),
(189,48,cs)
);
},
{
closed = 1;
nodes = (
(294,664,l),
(294,722,l),
(90,598,l),
(90,540,l)
);
}
);
width = 381;
},
{
layerId = "B6DC6C93-7E5A-4350-AC8D-F1BB3AE9B4CB";
shapes = (
{
closed = 1;
nodes = (
(343,-12,o),
(431,57,o),
(431,287,cs),
(431,405,o),
(406,599,o),
(180,722,c),
(97,636,l),
(188,594,o),
(233,551,o),
(260,499,c),
(291,503,l),
(260,521,o),
(238,526,o),
(208,526,cs),
(109,526,o),
(21,454,o),
(21,257,cs),
(21,57,o),
(109,-12,o),
(226,-12,cs)
);
},
{
closed = 1;
nodes = (
(194,102,o),
(178,124,o),
(178,185,cs),
(178,328,ls),
(178,389,o),
(194,412,o),
(226,412,cs),
(258,412,o),
(274,389,o),
(274,328,cs),
(274,185,ls),
(274,125,o),
(258,102,o),
(226,102,cs)
);
},
{
closed = 1;
nodes = (
(342,664,l),
(342,722,l),
(97,585,l),
(97,527,l)
);
}
);
width = 453;
},
{
guides = (
{
angle = 180;
pos = (188,722);
}
);
layerId = "AD0154C7-7101-4C76-975C-BE8A541C5FBC";
shapes = (
{
closed = 1;
nodes = (
(524,-12,o),
(665,80,o),
(665,267,cs),
(665,410,o),
(592,647,o),
(202,722,c),
(180,660,l),
(370,622,o),
(479,548,o),
(533,457,c),
(540,459,l),
(491,497,o),
(421,516,o),
(343,516,cs),
(176,516,o),
(44,429,o),
(44,253,cs),
(44,76,o),
(185,-12,o),
(355,-12,cs)
);
},
{
closed = 1;
nodes = (
(227,54,o),
(134,116,o),
(134,242,cs),
(134,262,ls),
(134,389,o),
(227,450,o),
(355,450,cs),
(483,450,o),
(575,389,o),
(575,262,cs),
(575,242,ls),
(575,116,o),
(483,54,o),
(355,54,cs)
);
},
{
closed = 1;
nodes = (
(572,660,l),
(572,722,l),
(180,597,l),
(180,535,l)
);
}
);
width = 712;
},
{
guides = (
{
pos = (417,722);
}
);
layerId = "E5B4AC11-8521-476B-8B52-54F023F880B1";
shapes = (
{
closed = 1;
nodes = (
(571,-12,o),
(726,85,o),
(726,299,cs),
(726,428,o),
(641,693,o),
(219,722,c),
(163,626,l),
(375,603,o),
(453,561,o),
(523,475,c),
(524,487,l),
(474,512,o),
(415,527,o),
(344,526,cs),
(173,522,o),
(29,433,o),
(29,257,cs),
(29,82,o),
(197,-12,o),
(380,-12,cs)
);
},
{
closed = 1;
nodes = (
(287,120,o),
(224,173,o),
(224,252,cs),
(224,262,ls),
(224,342,o),
(287,394,o),
(380,394,cs),
(473,394,o),
(535,342,o),
(535,262,cs),
(535,252,ls),
(535,173,o),
(473,120,o),
(380,120,cs)
);
},
{
closed = 1;
nodes = (
(647,660,l),
(647,722,l),
(163,575,l),
(163,513,l)
);
}
);
width = 757;
}
);
unicode = 240;
userData = {
RMXScaler = {
source = o;
};
};
},
{
glyphname = e;
kernLeft = o;
kernRight = e;
lastChange = "2023-10-17 00:48:53 +0000";
layers = (
{
anchors = (
{
name = bottom;
pos = (260,0);
},
{
name = ogonek;
pos = (418,0);
},
{
name = top;
pos = (269,504);
}
);
background = {
anchors = (
{
name = bottom;
pos = (280,0);
},
{
name = ogonek;
pos = (399,10);
},
{
name = top;
pos = (283,513);
}
);
shapes = (
{
closed = 1;
nodes = (
(403,-12,o),
(487,47,o),
(511,154,c),
(437,154,l),
(417,91,o),
(366,57,o),
(291,57,cs),
(184,57,o),
(124,130,o),
(124,253,c),
(124,274,l),
(128,392,o),
(192,456,o),
(288,456,cs),
(399,456,o),
(442,368,o),
(436,265,c),
(453,308,l),
(106,308,l),
(105,244,l),
(513,244,l),
(514,259,o),
(514,267,o),
(514,270,cs),
(514,422,o),
(429,525,o),
(288,525,cs),
(148,525,o),
(46,417,o),
(46,252,cs),
(46,89,o),
(146,-12,o),
(291,-12,cs)
);
}
);
};
layerId = "E39CE873-C6CB-4040-8FBA-1D86B139B3E5";
shapes = (
{
closed = 1;
nodes = (
(374,-12,o),
(456,48,o),
(472,148,c),
(404,164,l),
(385,88,o),
(340,56,o),
(269,56,cs),
(175,56,o),
(122,126,o),
(122,256,cs),
(122,281,ls),
(122,392,o),
(185,448,o),
(268,448,cs),
(353,448,o),
(396,392,o),
(396,290,cs),
(396,260,l),
(413,308,l),
(105,308,l),
(104,244,l),
(469,244,l),
(484,384,o),
(425,516,o),
(269,516,cs),
(134,516,o),
(40,414,o),
(40,250,cs),
(40,91,o),
(133,-12,o),
(269,-12,cs)
);
}
);
width = 513;
},
{
anchors = (
{
name = bottom;
pos = (277,0);
},
{
name = ogonek;
pos = (449,0);
},
{
name = top;
pos = (282,514);
}
);
layerId = "7F29FB76-5474-4FBC-BDD6-396388860F4A";
shapes = (
{
closed = 1;
nodes = (
(418,-12,o),
(491,59,o),
(508,152,c),
(361,176,l),
(346,125,o),
(322,106,o),
(280,106,cs),
(229,106,o),
(196,148,o),
(196,231,cs),
(196,297,ls),
(196,372,o),
(232,408,o),
(283,408,cs),
(334,408,o),
(358,372,o),
(358,300,cs),
(358,284,l),
(386,314,l),
(169,314,l),
(169,222,l),
(508,222,l),
(535,379,o),
(463,526,o),
(284,526,cs),
(123,526,o),
(25,414,o),
(25,257,cs),
(25,97,o),
(120,-12,o),
(281,-12,cs)
);
}
);
width = 539;
},
{
anchors = (
{
name = bottom;
pos = (183,0);
},
{
name = ogonek;
pos = (290,0);
},
{
name = top;
pos = (188,504);
}
);
layerId = "C91C925B-D0D7-4075-AF07-39B2B48BEC27";
shapes = (
{
closed = 1;
nodes = (
(263,-12,o),
(321,43,o),
(330,173,c),
(266,179,l),
(256,87,o),
(238,49,o),
(189,49,cs),
(134,49,o),
(103,91,o),
(103,222,cs),
(103,285,ls),
(103,416,o),
(135,456,o),
(189,456,cs),
(239,456,o),
(266,419,o),
(266,291,cs),
(266,278,l),
(282,306,l),
(77,306,l),
(77,246,l),
(327,246,l),
(334,349,o),
(327,516,o),
(188,516,cs),
(92,516,o),
(32,445,o),
(32,251,cs),
(32,59,o),
(91,-12,o),
(189,-12,cs)
);
}
);
width = 362;
},
{
anchors = (
{
name = bottom;
pos = (216,0);
},
{
name = ogonek;
pos = (353,0);
},
{
name = top;
pos = (221,514);
}
);
layerId = "B6DC6C93-7E5A-4350-AC8D-F1BB3AE9B4CB";
shapes = (
{
closed = 1;
nodes = (
(324,-12,o),
(399,36,o),
(405,174,c),
(271,184,l),
(265,118,o),
(257,96,o),
(224,96,cs),
(191,96,o),
(175,119,o),
(175,181,cs),
(175,338,ls),
(175,397,o),
(192,419,o),
(224,419,cs),
(256,419,o),
(270,398,o),
(270,339,cs),
(270,292,l),
(290,312,l),
(140,312,l),
(140,230,l),
(402,230,l),
(418,377,o),
(388,526,o),
(221,526,cs),
(109,526,o),
(21,454,o),
(21,256,cs),
(21,57,o),
(108,-12,o),
(221,-12,cs)
);
}
);
width = 428;
},
{
anchors = (
{
name = bottom;
pos = (333,0);
},
{
name = ogonek;
pos = (562,0);
},
{
name = top;
pos = (352,504);
}
);
background = {
anchors = (
{
name = bottom;
pos = (388,0);
},
{
name = ogonek;
pos = (507,10);
},
{
name = top;
pos = (391,513);
}
);
shapes = (
{
closed = 1;
nodes = (
(511,-12,o),
(595,47,o),
(619,154,c),
(545,154,l),
(525,91,o),
(474,57,o),
(399,57,cs),
(292,57,o),
(232,130,o),
(232,253,c),
(232,274,l),
(236,392,o),
(300,456,o),
(396,456,cs),
(507,456,o),
(550,368,o),
(544,265,c),
(561,308,l),
(214,308,l),
(213,244,l),
(621,244,l),
(622,259,o),
(622,267,o),
(622,270,cs),
(622,422,o),
(537,525,o),
(396,525,cs),
(256,525,o),
(154,417,o),
(154,252,cs),
(154,89,o),
(254,-12,o),
(399,-12,cs)
);
}
);
};
layerId = "AD0154C7-7101-4C76-975C-BE8A541C5FBC";
shapes = (
{
closed = 1;
nodes = (
(471,-12,o),
(599,22,o),
(637,162,c),
(563,181,l),
(532,79,o),
(450,54,o),
(352,54,cs),
(221,54,o),
(136,116,o),
(136,252,cs),
(136,272,ls),
(136,389,o),
(217,450,o),
(352,450,cs),
(473,450,o),
(559,404,o),
(559,292,cs),
(559,278,l),
(577,308,l),
(111,308,l),
(111,244,l),
(642,244,l),
(656,452,o),
(502,516,o),
(352,516,cs),
(184,516,o),
(44,429,o),
(44,253,cs),
(44,76,o),
(181,-12,o),
(358,-12,cs)
);
}
);
width = 687;
},
{
anchors = (
{
name = bottom;
pos = (367,0);
},
{
name = ogonek;
pos = (632,0);
},
{
name = top;
pos = (380,514);
}
);
layerId = "E5B4AC11-8521-476B-8B52-54F023F880B1";
shapes = (
{
closed = 1;
nodes = (
(554,-12,o),
(678,47,o),
(708,158,c),
(531,177,l),
(512,142,o),
(479,119,o),
(386,119,cs),
(271,119,o),
(222,171,o),
(222,234,cs),
(222,297,ls),
(222,354,o),
(267,405,o),
(382,405,cs),
(485,405,o),
(534,367,o),
(534,301,cs),
(534,278,l),
(572,318,l),
(192,318,l),
(192,219,l),
(710,219,l),
(729,421,o),
(601,526,o),
(380,526,cs),
(170,526,o),
(28,433,o),
(28,257,cs),
(28,82,o),
(180,-12,o),
(386,-12,cs)
);
}
);
width = 742;
}
);
note = e;
unicode = 101;
},
{
glyphname = eogonek;
kernLeft = o;
kernRight = e;
lastChange = "2023-10-17 00:48:53 +0000";
layers = (
{
background = {
shapes = (
{
ref = e;
},
{
pos = (292,0);
ref = ogonekcomb;
}
);
};
layerId = "E39CE873-C6CB-4040-8FBA-1D86B139B3E5";
shapes = (
{
closed = 1;
nodes = (
(428,-106,l),
(396,-109,o),
(357,-102,o),
(357,-60,cs),
(357,-32,o),
(378,1,o),
(409,34,cs),
(443,70,o),
(465,103,o),
(472,148,c),
(404,164,l),
(385,88,o),
(340,56,o),
(269,56,cs),
(175,56,o),
(122,126,o),
(122,256,cs),
(122,281,ls),
(122,392,o),
(185,448,o),
(268,448,cs),
(353,448,o),
(396,392,o),
(396,290,cs),
(396,269,l),
(413,308,l),
(105,308,l),
(104,244,l),
(469,244,l),
(484,384,o),
(425,516,o),
(269,516,cs),
(134,516,o),
(40,414,o),
(40,250,cs),
(40,91,o),
(133,-12,o),
(269,-12,cs),
(295,-12,o),
(317,-8,o),
(341,-3,c),
(337,8,l),
(310,-17,o),
(288,-45,o),
(288,-80,cs),
(288,-155,o),
(372,-171,o),
(428,-158,c)
);
}
);
width = 513;
},
{
background = {
shapes = (
{
ref = e;
},
{
pos = (271,0);
ref = ogonekcomb;
}
);
};
layerId = "7F29FB76-5474-4FBC-BDD6-396388860F4A";
shapes = (
{
closed = 1;
nodes = (
(463,-74,l),
(437,-80,o),
(388,-84,o),
(388,-37,cs),
(388,-17,o),
(397,0,o),
(435,32,cs),
(469,61,o),
(499,103,o),
(508,152,c),
(361,176,l),
(346,125,o),
(322,106,o),
(280,106,cs),
(229,106,o),
(196,148,o),
(196,231,cs),
(196,297,ls),
(196,372,o),
(232,408,o),
(283,408,cs),
(334,408,o),
(358,372,o),
(358,300,cs),
(358,284,l),
(386,314,l),
(169,314,l),
(169,222,l),
(508,222,l),
(535,379,o),
(463,526,o),
(284,526,cs),
(123,526,o),
(25,414,o),
(25,257,cs),
(25,97,o),
(120,-12,o),
(281,-12,cs),
(311,-12,o),
(335,-8,o),
(364,-1,c),
(362,20,l),
(317,-14,o),
(274,-48,o),
(274,-93,cs),
(274,-182,o),
(395,-181,o),
(463,-161,c)
);
}
);
width = 539;
},
{
background = {
shapes = (
{
ref = e;
},
{
pos = (186,0);
ref = ogonekcomb;
}
);
};
layerId = "C91C925B-D0D7-4075-AF07-39B2B48BEC27";
shapes = (
{
closed = 1;
nodes = (
(297,-110,l),
(272,-113,o),
(249,-101,o),
(249,-66,cs),
(249,-46,o),
(256,-14,o),
(287,35,cs),
(311,74,o),
(326,114,o),
(330,173,c),
(266,179,l),
(256,87,o),
(238,49,o),
(189,49,cs),
(134,49,o),
(103,91,o),
(103,222,cs),
(103,285,ls),
(103,416,o),
(135,456,o),
(189,456,cs),
(239,456,o),
(266,419,o),
(266,291,cs),
(266,278,l),
(282,306,l),
(77,306,l),
(77,246,l),
(327,246,l),
(334,349,o),
(327,516,o),
(188,516,cs),
(92,516,o),
(32,445,o),
(32,251,cs),
(32,59,o),
(91,-12,o),
(189,-12,cs),
(208,-12,o),
(227,-8,o),
(240,-2,c),
(238,7,l),
(214,-20,o),
(192,-50,o),
(192,-86,cs),
(192,-146,o),
(246,-164,o),
(297,-157,c)
);
}
);
width = 362;
},
{
background = {
shapes = (
{
ref = e;
},
{
pos = (207,0);
ref = ogonekcomb;
}
);
};
layerId = "B6DC6C93-7E5A-4350-AC8D-F1BB3AE9B4CB";
shapes = (
{
closed = 1;
nodes = (
(363,-87,l),
(335,-89,o),
(301,-79,o),
(301,-44,cs),
(301,-17,o),
(318,0,o),
(345,27,cs),
(375,57,o),
(401,103,o),
(404,174,c),
(270,184,l),
(264,118,o),
(256,96,o),
(223,96,cs),
(190,96,o),
(174,119,o),
(174,181,cs),
(174,338,ls),
(174,397,o),
(191,419,o),
(223,419,cs),
(255,419,o),
(269,398,o),
(269,339,cs),
(269,261,l),
(320,312,l),
(139,312,l),
(139,230,l),
(401,230,l),
(417,377,o),
(387,526,o),
(220,526,cs),
(108,526,o),
(20,454,o),
(20,256,cs),
(20,57,o),
(107,-12,o),
(212,-12,cs),
(237,-12,o),
(258,-6,o),
(276,0,c),
(273,9,l),
(239,-9,o),
(210,-48,o),
(210,-87,cs),
(210,-160,o),
(295,-176,o),
(363,-165,c)
);
}
);
width = 427;
},
{
background = {
shapes = (
{
ref = e;
},
{
pos = (415,0);
ref = ogonekcomb;
}
);
};
layerId = "AD0154C7-7101-4C76-975C-BE8A541C5FBC";
shapes = (
{
closed = 1;
nodes = (
(584,-96,l),
(552,-104,o),
(491,-103,o),
(491,-55,cs),
(491,-29,o),
(506,-2,o),
(553,38,cs),
(589,69,o),
(622,109,o),
(637,162,c),
(563,181,l),
(532,79,o),
(450,54,o),
(352,54,cs),
(221,54,o),
(136,116,o),
(136,252,cs),
(136,272,ls),
(136,389,o),
(217,450,o),
(352,450,cs),
(473,450,o),
(559,404,o),
(559,292,cs),
(559,278,l),
(577,308,l),
(111,308,l),
(111,244,l),
(642,244,l),
(656,452,o),
(502,516,o),
(352,516,cs),
(184,516,o),
(44,429,o),
(44,253,cs),
(44,76,o),
(181,-12,o),
(358,-12,cs),
(396,-12,o),
(433,-9,o),
(471,2,c),
(466,11,l),
(438,-13,o),
(417,-42,o),
(417,-80,cs),
(417,-153,o),
(518,-172,o),
(584,-150,c)
);
}
);
width = 687;
},
{
background = {
shapes = (
{
ref = e;
},
{
pos = (424,0);
ref = ogonekcomb;
}
);
};
layerId = "E5B4AC11-8521-476B-8B52-54F023F880B1";
shapes = (
{
closed = 1;
nodes = (
(661,-71,l),
(627,-78,o),
(567,-81,o),
(567,-32,cs),
(567,-14,o),
(573,4,o),
(611,34,cs),
(659,72,o),
(695,110,o),
(708,158,c),
(531,177,l),
(512,142,o),
(479,119,o),
(386,119,cs),
(271,119,o),
(222,171,o),
(222,234,cs),
(222,297,ls),
(222,354,o),
(267,405,o),
(382,405,cs),
(485,405,o),
(534,367,o),
(534,301,cs),
(534,278,l),
(572,318,l),
(192,318,l),
(192,219,l),
(710,219,l),
(729,421,o),
(601,526,o),
(380,526,cs),
(170,526,o),
(28,433,o),
(28,257,cs),
(28,82,o),
(180,-12,o),
(386,-12,cs),
(432,-12,o),
(476,-8,o),
(515,0,c),
(506,13,l),
(478,-2,o),
(430,-39,o),
(430,-86,cs),
(430,-181,o),
(577,-183,o),
(661,-159,c)
);
}
);
width = 742;
}
);
unicode = 281;
},
{
glyphname = f;
kernLeft = f;
kernRight = f;
lastChange = "2023-10-17 00:48:53 +0000";
layers = (
{
anchors = (
{
name = bottom;
pos = (154,0);
},
{
name = top;
pos = (154,728);
}
);
background = {
anchors = (
{
name = bottom;
pos = (163,0);
},
{
name = top;
pos = (163,758);
}
);
shapes = (
{
closed = 1;
nodes = (
(187,0,l),
(187,447,l),
(312,447,l),
(312,513,l),
(187,513,l),
(187,622,ls),
(187,670,o),
(210,690,o),
(254,690,cs),
(342,690,l),
(342,758,l),
(254,758,ls),
(159,758,o),
(111,710,o),
(111,622,cs),
(111,539,ls),
(111,521,o),
(102,513,o),
(81,513,cs),
(24,513,l),
(24,447,l),
(109,447,l),
(109,0,l)
);
}
);
};
guides = (
{
angle = 180;
pos = (856,493);
}
);
layerId = "E39CE873-C6CB-4040-8FBA-1D86B139B3E5";
shapes = (
{
closed = 1;
nodes = (
(181,0,l),
(181,567,ls),
(181,630,o),
(215,655,o),
(267,655,cs),
(284,655,o),
(305,652,o),
(333,645,c),
(333,710,l),
(307,718,o),
(287,722,o),
(260,722,cs),
(176,722,o),
(98,672,o),
(98,563,cs),
(98,0,l)
);
},
{
closed = 1;
nodes = (
(301,438,l),
(301,504,l),
(17,504,l),
(17,438,l)
);
}
);
width = 311;
},
{
anchors = (
{
name = bottom;
pos = (181,0);
},
{
name = top;
pos = (181,728);
}
);
layerId = "7F29FB76-5474-4FBC-BDD6-396388860F4A";
shapes = (
{
closed = 1;
nodes = (
(269,0,l),
(269,540,ls),
(269,585,o),
(306,598,o),
(343,598,cs),
(359,598,o),
(370,597,o),
(385,595,c),
(385,710,l),
(351,720,o),
(317,722,o),
(295,722,cs),
(173,722,o),
(91,648,o),
(91,539,cs),
(91,0,l)
);
},
{
closed = 1;
nodes = (
(361,390,l),
(361,514,l),
(22,514,l),
(22,390,l)
);
}
);
width = 373;
},
{
anchors = (
{
name = bottom;
pos = (134,0);
},
{
name = top;
pos = (134,758);
}
);
layerId = "C91C925B-D0D7-4075-AF07-39B2B48BEC27";
shapes = (
{
closed = 1;
nodes = (
(140,0,l),
(140,589,ls),
(140,642,o),
(157,663,o),
(192,663,cs),
(207,663,o),
(221,661,o),
(244,656,c),
(244,712,l),
(225,718,o),
(207,722,o),
(186,722,cs),
(134,722,o),
(71,692,o),
(71,583,cs),
(71,0,l)
);
},
{
closed = 1;
nodes = (
(225,444,l),
(225,504,l),
(13,504,l),
(13,444,l)
);
}
);
width = 234;
},
{
anchors = (
{
name = bottom;
pos = (157,0);
},
{
name = top;
pos = (157,758);
}
);
layerId = "B6DC6C93-7E5A-4350-AC8D-F1BB3AE9B4CB";
shapes = (
{
closed = 1;
nodes = (
(222,0,l),
(222,553,ls),
(222,594,o),
(246,604,o),
(273,604,cs),
(283,604,o),
(294,603,o),
(309,601,c),
(309,712,l),
(282,719,o),
(259,722,o),
(234,722,cs),
(126,722,o),
(67,658,o),
(67,549,cs),
(67,0,l)
);
},
{
closed = 1;
nodes = (
(294,404,l),
(294,514,l),
(17,514,l),
(17,404,l)
);
}
);
width = 300;
},
{
anchors = (
{
name = bottom;
pos = (231,0);
},
{
name = top;
pos = (231,728);
}
);
background = {
shapes = (
{
closed = 1;
nodes = (
(230,0,l),
(230,567,ls),
(230,630,o),
(288,655,o),
(397,655,cs),
(424,655,o),
(468,652,o),
(528,645,c),
(528,710,l),
(491,718,o),
(471,722,o),
(419,722,cs),
(307,722,o),
(178,672,o),
(178,563,cs),
(178,0,l)
);
},
{
closed = 1;
nodes = (
(460,438,l),
(460,504,l),
(29,504,l),
(29,438,l)
);
}
);
};
guides = (
{
angle = 180;
pos = (835,493);
}
);
layerId = "AD0154C7-7101-4C76-975C-BE8A541C5FBC";
shapes = (
{
closed = 1;
nodes = (
(220,0,l),
(220,509,ls),
(220,614,o),
(260,656,o),
(381,656,cs),
(414,656,o),
(442,653,o),
(493,644,c),
(493,707,l),
(443,718,o),
(408,722,o),
(365,722,cs),
(225,722,o),
(129,647,o),
(129,504,cs),
(129,0,l)
);
},
{
closed = 1;
nodes = (
(441,438,l),
(441,504,l),
(16,504,l),
(16,438,l)
);
}
);
width = 451;
},
{
anchors = (
{
name = bottom;
pos = (259,0);
},
{
name = top;
pos = (259,728);
}
);
layerId = "E5B4AC11-8521-476B-8B52-54F023F880B1";
shapes = (
{
closed = 1;
nodes = (
(332,0,l),
(332,521,ls),
(332,585,o),
(385,597,o),
(446,597,cs),
(484,597,o),
(534,592,o),
(580,585,c),
(580,702,l),
(524,715,o),
(466,722,o),
(416,722,cs),
(245,722,o),
(138,649,o),
(138,503,cs),
(138,0,l)
);
},
{
closed = 1;
nodes = (
(551,387,l),
(551,514,l),
(15,514,l),
(15,387,l)
);
}
);
width = 562;
}
);
note = f;
unicode = 102;
},
